<?xml version="1.0" encoding="utf-8"?>
<!-- Generator: Adobe Illustrator 14.0.0, SVG Export Plug-In . SVG Version: 6.00 Build 43363)  -->
<!DOCTYPE svg PUBLIC "-//W3C//DTD SVG 1.1//EN" "http://www.w3.org/Graphics/SVG/1.1/DTD/svg11.dtd">
<svg version="1.1" id="Camada_1" xmlns="http://www.w3.org/2000/svg" xmlns:xlink="http://www.w3.org/1999/xlink" x="0px" y="0px"
	 width="300px" height="300px" viewBox="0 0 300 300" enable-background="new 0 0 300 300" xml:space="preserve">
<g>
	<path fill="none" stroke="#2C3E50" stroke-width="9.7498" d="M65.667,49.667H45.621c-4.761,0-8.621,4.438-8.621,9.908v221.85
		c0,5.474,3.86,9.909,8.621,9.909h180.091c4.761,0,8.621-4.436,8.621-9.909v-18.091"/>
	<path fill="none" stroke="#2C3E50" stroke-width="9.7498" d="M234.333,59.575v203.759h20.046c4.761,0,8.621-4.436,8.621-9.909
		V31.575c0-5.471-3.86-9.908-8.621-9.908H74.288c-4.761,0-8.621,4.438-8.621,9.908v18.092h160.045
		C230.473,49.667,234.333,54.104,234.333,59.575z"/>
</g>
<path fill="#3B96D2" d="M213.072,107.02c0,2.762-2.238,5-5,5h-148c-2.761,0-5-2.238-5-5l0,0c0-2.761,2.239-5,5-5h148
	C210.834,102.02,213.072,104.259,213.072,107.02L213.072,107.02z"/>
<path fill="#3B96D2" d="M213.072,76.148c0,2.761-2.238,5-5,5h-148c-2.761,0-5-2.239-5-5l0,0c0-2.761,2.239-5,5-5h148
	C210.834,71.148,213.072,73.387,213.072,76.148L213.072,76.148z"/>
<path fill="#3B96D2" d="M213.072,137.892c0,2.761-2.238,5-5,5h-148c-2.761,0-5-2.239-5-5l0,0c0-2.761,2.239-5,5-5h148
	C210.834,132.892,213.072,135.13,213.072,137.892L213.072,137.892z"/>
<path fill="#3B96D2" d="M213.072,168.764c0,2.762-2.238,5-5,5h-148c-2.761,0-5-2.238-5-5l0,0c0-2.762,2.239-5,5-5h148
	C210.834,163.764,213.072,166.002,213.072,168.764L213.072,168.764z"/>
<path fill="#3B96D2" d="M213.072,199.635c0,2.762-2.238,5-5,5h-148c-2.761,0-5-2.238-5-5l0,0c0-2.762,2.239-5,5-5h148
	C210.834,194.635,213.072,196.873,213.072,199.635L213.072,199.635z"/>
<path fill="#3B96D2" d="M213.072,230.507c0,2.762-2.238,5-5,5h-148c-2.761,0-5-2.238-5-5l0,0c0-2.762,2.239-5,5-5h148
	C210.834,225.507,213.072,227.745,213.072,230.507L213.072,230.507z"/>
<path fill="#3B96D2" d="M213.071,261.379c0,2.762-2.238,5-5,5H60.072c-2.761,0-5-2.238-5-5l0,0c0-2.762,2.239-5,5-5h147.999
	C210.833,256.379,213.071,258.617,213.071,261.379L213.071,261.379z"/>
</svg>
