<?xml version="1.0" encoding="utf-8"?>
<!-- Generator: Adobe Illustrator 14.0.0, SVG Export Plug-In . SVG Version: 6.00 Build 43363)  -->
<!DOCTYPE svg PUBLIC "-//W3C//DTD SVG 1.1//EN" "http://www.w3.org/Graphics/SVG/1.1/DTD/svg11.dtd">
<svg version="1.1" id="Camada_1" xmlns="http://www.w3.org/2000/svg" xmlns:xlink="http://www.w3.org/1999/xlink" x="0px" y="0px"
	 width="774px" height="250px" viewBox="0 0 774 250" enable-background="new 0 0 774 250" xml:space="preserve">
<g>
	<rect x="180.907" y="169.501" fill="#FFFF00" width="412.186" height="74.347"/>
	<g enable-background="new    ">
		<path d="M226.434,223.089h-5.521V204.48h-17.027v18.607h-5.521v-40.537h5.521v17.151h17.027v-17.151h5.521V223.089z"/>
		<path d="M245.416,196.416h-9.213v-4.467h14.671v26.643h9.272v4.497H235.18v-4.497h10.236V196.416L245.416,196.416z
			 M247.307,178.893c0.601,0,1.158,0.108,1.677,0.325c0.516,0.218,0.966,0.522,1.349,0.915s0.683,0.844,0.899,1.35
			c0.217,0.509,0.325,1.062,0.325,1.66c0,0.578-0.108,1.127-0.325,1.645c-0.218,0.518-0.518,0.972-0.899,1.363
			c-0.383,0.395-0.833,0.697-1.349,0.914c-0.519,0.219-1.076,0.326-1.677,0.326c-0.6,0-1.157-0.107-1.674-0.326
			c-0.518-0.217-0.967-0.521-1.35-0.914c-0.383-0.393-0.683-0.849-0.899-1.363c-0.217-0.518-0.325-1.063-0.325-1.645
			c0-0.601,0.108-1.151,0.325-1.66c0.218-0.506,0.518-0.957,0.899-1.35c0.381-0.393,0.832-0.697,1.35-0.915
			C246.148,179.001,246.707,178.893,247.307,178.893z"/>
		<path d="M292.155,196.354c0.579,0.727,1.027,1.566,1.349,2.528c0.32,0.961,0.48,2,0.48,3.116c0,1.613-0.294,3.087-0.884,4.42
			c-0.59,1.334-1.422,2.477-2.497,3.428c-1.074,0.951-2.361,1.69-3.861,2.217c-1.498,0.527-3.147,0.791-4.946,0.791
			c-1.303,0-2.521-0.14-3.659-0.418c-1.139-0.277-2.037-0.625-2.699-1.039c-0.393,0.58-0.724,1.127-0.991,1.646
			c-0.271,0.519-0.403,1.097-0.403,1.735c0,0.785,0.377,1.438,1.132,1.953c0.755,0.52,1.753,0.797,2.993,0.838l8.188,0.312
			c1.552,0.042,2.982,0.238,4.296,0.59c1.313,0.353,2.438,0.858,3.381,1.521c0.94,0.662,1.676,1.479,2.202,2.451
			c0.526,0.972,0.791,2.099,0.791,3.381c0,1.385-0.301,2.697-0.899,3.938c-0.6,1.241-1.525,2.331-2.775,3.271
			c-1.252,0.939-2.838,1.689-4.762,2.25c-1.922,0.558-4.207,0.837-6.854,0.837c-2.523,0-4.668-0.201-6.437-0.604
			c-1.769-0.402-3.221-0.962-4.357-1.675c-1.139-0.714-1.965-1.562-2.481-2.544c-0.517-0.98-0.775-2.063-0.775-3.24
			c0-1.51,0.353-2.834,1.056-3.971c0.703-1.137,1.789-2.232,3.257-3.287c-0.538-0.248-1.003-0.559-1.396-0.932
			c-0.393-0.371-0.713-0.779-0.961-1.227c-0.249-0.443-0.436-0.912-0.559-1.41c-0.125-0.496-0.188-0.98-0.188-1.457
			c0-1.345,0.315-2.574,0.946-3.69c0.631-1.116,1.38-2.171,2.248-3.163c-0.393-0.477-0.739-0.939-1.039-1.396
			c-0.3-0.455-0.559-0.944-0.774-1.474c-0.217-0.528-0.384-1.096-0.496-1.706c-0.113-0.609-0.17-1.308-0.17-2.093
			c0-1.613,0.294-3.087,0.883-4.42c0.59-1.334,1.416-2.478,2.481-3.429c1.064-0.949,2.347-1.689,3.847-2.217
			c1.498-0.527,3.157-0.791,4.978-0.791c0.765,0,1.499,0.053,2.202,0.153c0.703,0.104,1.322,0.238,1.861,0.403h11.289v4.402h-4.994
			v0.002H292.155z M273.422,227.586c0,1.469,0.766,2.538,2.295,3.21c1.53,0.672,3.66,1.009,6.39,1.009
			c1.717,0,3.157-0.154,4.326-0.466c1.168-0.312,2.109-0.719,2.822-1.225c0.714-0.509,1.227-1.087,1.536-1.737s0.465-1.318,0.465-2
			c0-1.262-0.518-2.191-1.551-2.792c-1.034-0.601-2.616-0.95-4.746-1.056l-8.125-0.278c-0.683,0.455-1.246,0.899-1.691,1.334
			c-0.443,0.435-0.791,0.873-1.039,1.317c-0.247,0.445-0.424,0.89-0.526,1.334C273.473,226.682,273.422,227.131,273.422,227.586z
			 M275.065,202.122c0,0.993,0.165,1.903,0.497,2.729c0.329,0.825,0.795,1.528,1.395,2.107s1.309,1.029,2.125,1.352
			c0.816,0.319,1.721,0.479,2.714,0.479c1.075,0,2.032-0.182,2.869-0.543s1.54-0.854,2.108-1.475
			c0.567-0.621,1.003-1.334,1.303-2.141c0.3-0.807,0.45-1.645,0.45-2.513c0-0.992-0.166-1.901-0.497-2.729
			c-0.33-0.826-0.795-1.529-1.396-2.107c-0.601-0.579-1.309-1.028-2.125-1.352c-0.815-0.32-1.721-0.479-2.714-0.479
			c-1.075,0-2.031,0.188-2.868,0.559c-0.838,0.372-1.541,0.863-2.108,1.475c-0.569,0.608-1.004,1.316-1.304,2.125
			C275.214,200.417,275.065,201.254,275.065,202.122z"/>
		<path d="M329.684,223.089h-5.396v-19.881c0-2.397-0.449-4.19-1.352-5.381c-0.896-1.188-2.186-1.783-3.859-1.783
			c-0.726,0-1.4,0.099-2.031,0.294c-0.631,0.197-1.287,0.538-1.969,1.023c-0.686,0.486-1.428,1.144-2.234,1.97
			c-0.806,0.827-1.734,1.86-2.791,3.103v20.655h-5.396v-43.823h5.396v12.686l-0.186,4.898c0.848-1.013,1.68-1.865,2.496-2.559
			c0.814-0.691,1.633-1.256,2.45-1.689c0.815-0.435,1.647-0.744,2.495-0.932c0.85-0.186,1.729-0.277,2.639-0.277
			c3.102,0,5.5,0.944,7.193,2.838c1.695,1.893,2.543,4.74,2.543,8.543L329.684,223.089L329.684,223.089z"/>
		<path d="M350.186,183.699h-9.213v-4.436h14.672v39.326h9.273v4.497h-24.969v-4.497h10.234L350.186,183.699L350.186,183.699z"/>
		<path d="M385.107,196.416h-9.211v-4.467h14.67v26.643h9.271v4.497h-24.967v-4.497h10.234L385.107,196.416L385.107,196.416z
			 M387,178.893c0.6,0,1.158,0.108,1.676,0.325c0.518,0.218,0.965,0.522,1.35,0.915c0.383,0.393,0.684,0.844,0.898,1.35
			c0.217,0.509,0.326,1.062,0.326,1.66c0,0.578-0.109,1.127-0.326,1.645s-0.518,0.972-0.898,1.363
			c-0.385,0.395-0.832,0.697-1.35,0.914c-0.518,0.219-1.076,0.326-1.676,0.326s-1.158-0.107-1.674-0.326
			c-0.52-0.217-0.967-0.521-1.352-0.914c-0.383-0.394-0.684-0.849-0.898-1.363c-0.216-0.518-0.324-1.063-0.324-1.645
			c0-0.601,0.107-1.151,0.324-1.66c0.217-0.506,0.518-0.957,0.898-1.35c0.384-0.393,0.832-0.697,1.352-0.915
			C385.842,179.001,386.4,178.893,387,178.893z"/>
		<path d="M431.848,196.354c0.578,0.727,1.029,1.566,1.352,2.528c0.318,0.961,0.479,2,0.479,3.116c0,1.613-0.295,3.087-0.885,4.42
			c-0.588,1.334-1.422,2.477-2.496,3.428s-2.361,1.69-3.861,2.217c-1.5,0.527-3.146,0.791-4.945,0.791
			c-1.305,0-2.521-0.14-3.66-0.418c-1.137-0.277-2.035-0.625-2.697-1.039c-0.393,0.58-0.725,1.127-0.992,1.646
			c-0.27,0.519-0.402,1.097-0.402,1.735c0,0.785,0.377,1.438,1.133,1.953c0.754,0.52,1.752,0.797,2.992,0.838l8.188,0.312
			c1.551,0.042,2.982,0.238,4.295,0.59c1.313,0.353,2.439,0.858,3.381,1.521c0.939,0.662,1.676,1.479,2.201,2.451
			c0.527,0.971,0.791,2.099,0.791,3.381c0,1.385-0.299,2.697-0.896,3.938c-0.602,1.241-1.525,2.331-2.775,3.271
			c-1.252,0.939-2.838,1.689-4.762,2.25c-1.924,0.558-4.207,0.837-6.854,0.837c-2.521,0-4.668-0.201-6.438-0.604
			c-1.77-0.402-3.222-0.962-4.357-1.675c-1.137-0.714-1.965-1.562-2.479-2.544c-0.52-0.98-0.775-2.063-0.775-3.24
			c0-1.51,0.353-2.834,1.055-3.971c0.703-1.137,1.787-2.232,3.257-3.287c-0.536-0.248-1.002-0.559-1.396-0.932
			c-0.396-0.371-0.715-0.779-0.963-1.227c-0.248-0.443-0.435-0.912-0.558-1.41c-0.125-0.496-0.188-0.98-0.188-1.457
			c0-1.345,0.315-2.574,0.947-3.69c0.629-1.116,1.379-2.171,2.248-3.163c-0.395-0.477-0.74-0.939-1.039-1.396
			c-0.302-0.455-0.561-0.944-0.775-1.474c-0.215-0.528-0.383-1.096-0.496-1.706c-0.111-0.609-0.17-1.308-0.17-2.093
			c0-1.613,0.293-3.087,0.883-4.42c0.592-1.334,1.416-2.478,2.48-3.429c1.065-0.949,2.348-1.689,3.848-2.217
			c1.498-0.527,3.158-0.791,4.979-0.791c0.766,0,1.5,0.053,2.203,0.153c0.702,0.104,1.32,0.238,1.859,0.403h11.289v4.402h-4.995
			v0.002H431.848z M413.115,227.586c0,1.469,0.764,2.538,2.295,3.21c1.529,0.672,3.66,1.009,6.389,1.009
			c1.717,0,3.158-0.154,4.326-0.466s2.109-0.719,2.822-1.225c0.715-0.509,1.227-1.087,1.535-1.737c0.311-0.65,0.467-1.318,0.467-2
			c0-1.262-0.52-2.191-1.553-2.792s-2.615-0.95-4.744-1.056l-8.125-0.278c-0.686,0.455-1.246,0.899-1.691,1.334
			s-0.791,0.873-1.039,1.317c-0.248,0.445-0.424,0.89-0.527,1.334C413.166,226.682,413.115,227.131,413.115,227.586z
			 M414.758,202.122c0,0.993,0.166,1.903,0.496,2.729c0.332,0.825,0.797,1.528,1.396,2.107c0.599,0.579,1.307,1.029,2.125,1.352
			c0.814,0.318,1.721,0.479,2.713,0.479c1.076,0,2.029-0.182,2.869-0.543c0.838-0.361,1.541-0.854,2.107-1.475
			c0.568-0.621,1.002-1.334,1.303-2.141s0.449-1.645,0.449-2.513c0-0.992-0.166-1.901-0.496-2.729s-0.797-1.529-1.395-2.107
			c-0.604-0.579-1.311-1.028-2.125-1.352c-0.818-0.32-1.725-0.479-2.715-0.479c-1.074,0-2.031,0.188-2.869,0.559
			c-0.836,0.372-1.539,0.863-2.107,1.475c-0.568,0.608-1.004,1.316-1.303,2.125C414.908,200.417,414.758,201.254,414.758,202.122z"
			/>
		<path d="M469.377,223.089h-5.396v-19.881c0-2.397-0.449-4.19-1.352-5.381c-0.896-1.188-2.186-1.783-3.86-1.783
			c-0.726,0-1.399,0.099-2.03,0.294c-0.631,0.197-1.287,0.538-1.97,1.023c-0.685,0.486-1.429,1.144-2.233,1.97
			c-0.808,0.827-1.736,1.86-2.791,3.103v20.655h-5.396v-43.823h5.396v12.686l-0.188,4.898c0.85-1.013,1.682-1.865,2.496-2.559
			c0.816-0.691,1.634-1.256,2.451-1.689c0.816-0.435,1.648-0.744,2.496-0.932c0.848-0.186,1.728-0.277,2.637-0.277
			c3.104,0,5.5,0.944,7.195,2.838c1.695,1.893,2.543,4.74,2.543,8.543L469.377,223.089L469.377,223.089z"/>
		<path d="M504.361,222.654c-1.221,0.311-2.48,0.531-3.783,0.666c-1.303,0.136-2.627,0.203-3.971,0.203
			c-3.908,0-6.822-0.885-8.746-2.652c-1.922-1.768-2.887-4.48-2.887-8.143v-16.252h-8.715v-4.527h8.715v-8.561l5.396-1.396v9.956
			h13.988v4.526h-13.988v15.818c0,2.232,0.596,3.902,1.785,5.01c1.188,1.105,2.938,1.658,5.256,1.658
			c0.992,0,2.078-0.076,3.258-0.232c1.178-0.153,2.408-0.396,3.689-0.729L504.361,222.654L504.361,222.654z"/>
		<path d="M540.494,205.875c0,0.766-0.01,1.406-0.031,1.923c-0.02,0.519-0.051,1.004-0.092,1.458h-21.867
			c0,3.186,0.889,5.63,2.668,7.335c1.777,1.706,4.342,2.56,7.691,2.56c0.91,0,1.818-0.034,2.729-0.107
			c0.908-0.07,1.787-0.17,2.637-0.294c0.848-0.124,1.658-0.265,2.436-0.419c0.777-0.155,1.494-0.326,2.156-0.514v4.437
			c-1.471,0.414-3.129,0.75-4.979,1.009c-1.852,0.26-3.77,0.389-5.754,0.389c-2.666,0-4.963-0.361-6.885-1.086
			c-1.924-0.725-3.5-1.771-4.73-3.147c-1.229-1.374-2.141-3.06-2.729-5.056c-0.59-1.994-0.885-4.254-0.885-6.776
			c0-2.19,0.313-4.265,0.945-6.219c0.629-1.953,1.552-3.671,2.761-5.148c1.209-1.477,2.692-2.651,4.45-3.52
			c1.756-0.869,3.752-1.304,5.984-1.304c2.172,0,4.096,0.342,5.77,1.022c1.678,0.683,3.087,1.647,4.234,2.897
			c1.146,1.252,2.016,2.771,2.605,4.562C540.199,201.663,540.494,203.663,540.494,205.875z M534.881,205.1
			c0.063-1.385-0.072-2.649-0.404-3.799c-0.33-1.146-0.842-2.135-1.533-2.962s-1.557-1.474-2.592-1.938
			c-1.031-0.465-2.23-0.696-3.598-0.696c-1.178,0-2.254,0.229-3.225,0.683c-0.975,0.455-1.813,1.098-2.514,1.924
			s-1.271,1.818-1.707,2.979c-0.434,1.158-0.701,2.43-0.807,3.814h16.378L534.881,205.1L534.881,205.1z"/>
		<path d="M550.389,191.949h4.934l0.152,5.738c1.844-2.213,3.654-3.815,5.443-4.81c1.789-0.992,3.594-1.487,5.412-1.487
			c3.227,0,5.672,1.045,7.336,3.133s2.434,5.188,2.311,9.305h-5.459c0.063-2.729-0.336-4.709-1.191-5.939
			c-0.859-1.229-2.115-1.845-3.771-1.845c-0.723,0-1.453,0.129-2.186,0.388c-0.734,0.26-1.488,0.672-2.264,1.24
			c-0.775,0.569-1.6,1.299-2.469,2.188c-0.869,0.891-1.799,1.966-2.791,3.227v20.005h-5.459L550.389,191.949L550.389,191.949z"/>
	</g>
	<g>
		<g>
			<path fill="#FFFFFF" d="M11.748,119.767c2.67-0.429,6.151-0.716,9.774-0.716c6.15,0,10.156,1.147,13.207,3.435
				c3.337,2.479,5.435,6.435,5.435,12.11c0,6.15-2.239,10.394-5.292,13.016c-3.385,2.816-8.582,4.15-14.876,4.15
				c-3.766,0-6.484-0.24-8.249-0.479v-31.515H11.748z M18.996,145.943c0.619,0.142,1.669,0.142,2.527,0.142
				c6.627,0.049,10.966-3.574,10.966-11.252c0-6.674-3.91-10.205-10.205-10.205c-1.572,0-2.669,0.144-3.289,0.286L18.996,145.943
				L18.996,145.943z"/>
			<path fill="#FFFFFF" d="M50.279,142.081c0.189,3.005,3.194,4.433,6.579,4.433c2.479,0,4.481-0.333,6.437-1.002l0.954,4.916
				c-2.384,0.998-5.292,1.475-8.44,1.475c-7.914,0-12.444-4.576-12.444-11.869c0-5.915,3.671-12.446,11.777-12.446
				c7.533,0,10.394,5.865,10.394,11.633c0,1.24-0.143,2.337-0.238,2.861H50.279L50.279,142.081z M58.812,137.122
				c0-1.765-0.763-4.72-4.101-4.72c-3.052,0-4.291,2.813-4.481,4.72H58.812z"/>
			<path fill="#FFFFFF" d="M69.829,145.134c1.335,0.81,4.101,1.715,6.246,1.715c2.192,0,3.098-0.714,3.098-1.906
				c0-1.239-0.714-1.812-3.385-2.717c-4.863-1.621-6.722-4.244-6.675-7.009c0-4.389,3.719-7.677,9.488-7.677
				c2.718,0,5.103,0.667,6.532,1.381l-1.239,5.007c-1.049-0.571-3.099-1.336-5.053-1.336c-1.765,0-2.765,0.715-2.765,1.861
				c0,1.146,0.905,1.717,3.766,2.717c4.434,1.525,6.246,3.816,6.293,7.2c0,4.385-3.385,7.581-10.06,7.581
				c-3.051,0-5.769-0.717-7.534-1.669L69.829,145.134z"/>
			<path fill="#FFFFFF" d="M108.069,150.807c-1.288,0.619-3.719,1.096-6.484,1.096c-7.533,0-12.349-4.625-12.349-11.92
				c0-6.816,4.672-12.396,13.35-12.396c1.907,0,4.004,0.335,5.531,0.907l-1.145,5.386c-0.858-0.379-2.146-0.713-4.052-0.713
				c-3.813,0-6.293,2.718-6.246,6.53c0,4.244,2.861,6.532,6.388,6.532c1.716,0,3.052-0.285,4.148-0.762L108.069,150.807z"/>
			<path fill="#FFFFFF" d="M112.076,135.788c0-3.436-0.048-5.675-0.191-7.678h6.199l0.287,4.291h0.19
				c1.192-3.435,4.005-4.861,6.294-4.861c0.667,0,1.001,0.047,1.525,0.142v6.816c-0.572-0.095-1.144-0.189-1.955-0.189
				c-2.671,0-4.481,1.429-4.959,3.672c-0.095,0.476-0.143,1.048-0.143,1.62v11.825h-7.247V135.788L112.076,135.788z"/>
			<path fill="#FFFFFF" d="M137.683,121.626c0,2.004-1.479,3.623-3.91,3.623c-2.289,0-3.766-1.619-3.766-3.623
				c0-2.051,1.526-3.624,3.861-3.624C136.204,118.003,137.634,119.575,137.683,121.626z M130.196,151.426V128.11h7.247v23.315
				H130.196z"/>
			<path fill="#FFFFFF" d="M143.262,135.931c0-3.051-0.096-5.626-0.191-7.82h6.294l0.334,3.243h0.096
				c1.715-2.433,4.385-3.768,7.771-3.768c5.102,0,9.679,4.434,9.679,11.872c0,8.485-5.387,12.492-10.584,12.492
				c-2.813,0-5.005-1.145-6.055-2.671h-0.095v11.586h-7.247v-24.935H143.262L143.262,135.931z M150.509,141.414
				c0,0.572,0.048,1.047,0.144,1.525c0.477,1.954,2.146,3.432,4.243,3.432c3.146,0,5.006-2.619,5.006-6.579
				c0-3.719-1.669-6.53-4.911-6.53c-2.051,0-3.862,1.522-4.338,3.67c-0.095,0.383-0.143,0.858-0.143,1.289v3.193H150.509
				L150.509,141.414z"/>
			<path fill="#FFFFFF" d="M179.882,121.817v6.293h5.197v5.34h-5.197v8.439c0,2.813,0.716,4.101,2.86,4.101
				c1.002,0,1.479-0.047,2.146-0.19l0.048,5.482c-0.906,0.334-2.67,0.62-4.674,0.62c-2.335,0-4.29-0.811-5.483-2.003
				c-1.335-1.383-2.003-3.625-2.003-6.913v-9.536h-3.1v-5.34h3.1v-4.341L179.882,121.817z"/>
			<path fill="#FFFFFF" d="M212.069,139.506c0,8.534-6.055,12.446-12.301,12.446c-6.819,0-12.063-4.483-12.063-12.017
				c0-7.581,4.959-12.396,12.492-12.396C207.3,127.54,212.069,132.449,212.069,139.506z M195.19,139.744
				c0,4.006,1.67,7.01,4.768,7.01c2.86,0,4.625-2.814,4.625-7.058c0-3.433-1.335-6.959-4.625-6.959
				C196.524,132.737,195.19,136.311,195.19,139.744z"/>
			<path fill="#FFFFFF" d="M216.553,135.788c0-3.436-0.046-5.675-0.19-7.678h6.198l0.287,4.291h0.191
				c1.191-3.435,4.004-4.861,6.293-4.861c0.667,0,1,0.047,1.525,0.142v6.816c-0.572-0.095-1.144-0.189-1.955-0.189
				c-2.671,0-4.482,1.429-4.959,3.672c-0.096,0.476-0.143,1.048-0.143,1.62v11.825h-7.248V135.788L216.553,135.788z"/>
			<path fill="#FFFFFF" d="M239.87,142.081c0.191,3.005,3.195,4.433,6.579,4.433c2.481,0,4.481-0.333,6.437-1.002l0.954,4.916
				c-2.384,0.998-5.293,1.475-8.439,1.475c-7.915,0-12.444-4.576-12.444-11.869c0-5.915,3.672-12.446,11.777-12.446
				c7.533,0,10.393,5.865,10.393,11.633c0,1.24-0.143,2.337-0.238,2.861H239.87L239.87,142.081z M248.405,137.122
				c0-1.765-0.764-4.72-4.1-4.72c-3.051,0-4.291,2.813-4.481,4.72H248.405z"/>
			<path fill="#FFFFFF" d="M259.423,145.134c1.334,0.81,4.099,1.715,6.244,1.715c2.194,0,3.101-0.714,3.101-1.906
				c0-1.239-0.717-1.812-3.385-2.717c-4.863-1.621-6.723-4.244-6.676-7.009c0-4.389,3.72-7.677,9.489-7.677
				c2.718,0,5.102,0.667,6.532,1.381l-1.239,5.007c-1.05-0.571-3.101-1.336-5.054-1.336c-1.765,0-2.766,0.715-2.766,1.861
				c0,1.146,0.906,1.717,3.768,2.717c4.434,1.525,6.246,3.816,6.292,7.2c0,4.385-3.384,7.581-10.06,7.581
				c-3.051,0-5.77-0.717-7.533-1.669L259.423,145.134z"/>
			<path fill="#FFFFFF" d="M295.374,142.081c0.192,3.005,3.195,4.433,6.581,4.433c2.479,0,4.481-0.333,6.437-1.002l0.954,4.916
				c-2.385,0.998-5.293,1.475-8.439,1.475c-7.915,0-12.444-4.576-12.444-11.869c0-5.915,3.671-12.446,11.777-12.446
				c7.533,0,10.394,5.865,10.394,11.633c0,1.24-0.144,2.337-0.24,2.861H295.374L295.374,142.081z M303.909,137.122
				c0-1.765-0.762-4.72-4.099-4.72c-3.052,0-4.291,2.813-4.482,4.72H303.909z"/>
			<path fill="#FFFFFF" d="M314.974,135.55c0-2.91-0.096-5.341-0.19-7.439h6.293l0.333,3.243h0.144
				c0.954-1.526,3.291-3.768,7.2-3.768c4.768,0,8.345,3.195,8.345,10.062v13.778h-7.248v-12.92c0-3.005-1.048-5.056-3.67-5.056
				c-2.003,0-3.195,1.383-3.72,2.72c-0.19,0.476-0.239,1.144-0.239,1.812v13.446h-7.247V135.55L314.974,135.55z"/>
			<path fill="#FFFFFF" d="M376.342,150.565c-1.287,0.622-4.339,1.385-8.201,1.385c-11.109,0-16.831-6.961-16.831-16.115
				c0-10.966,7.82-17.021,17.547-17.021c3.764,0,6.626,0.713,7.914,1.43l-1.526,5.722c-1.431-0.621-3.48-1.191-6.102-1.191
				c-5.722,0-10.204,3.478-10.204,10.631c0,6.436,3.814,10.489,10.251,10.489c2.24,0,4.624-0.428,6.103-1.049L376.342,150.565z"/>
			<path fill="#FFFFFF" d="M388.218,121.626c0,2.004-1.479,3.623-3.91,3.623c-2.29,0-3.767-1.619-3.767-3.623
				c0-2.051,1.526-3.624,3.861-3.624C386.739,118.003,388.168,119.575,388.218,121.626z M380.73,151.426V128.11h7.249v23.315H380.73
				z"/>
			<path fill="#FFFFFF" d="M399.374,142.081c0.189,3.005,3.193,4.433,6.579,4.433c2.478,0,4.482-0.333,6.435-1.002l0.955,4.916
				c-2.384,0.998-5.294,1.475-8.438,1.475c-7.915,0-12.444-4.576-12.444-11.869c0-5.915,3.671-12.446,11.775-12.446
				c7.534,0,10.395,5.865,10.395,11.633c0,1.24-0.143,2.337-0.237,2.861H399.374L399.374,142.081z M407.907,137.122
				c0-1.765-0.763-4.72-4.101-4.72c-3.051,0-4.289,2.813-4.48,4.72H407.907z"/>
			<path fill="#FFFFFF" d="M418.975,135.55c0-2.91-0.096-5.341-0.192-7.439h6.294l0.336,3.243h0.139
				c0.955-1.526,3.291-3.768,7.203-3.768c4.767,0,8.343,3.195,8.343,10.062v13.778h-7.246v-12.92c0-3.005-1.051-5.056-3.671-5.056
				c-2.003,0-3.195,1.383-3.719,2.72c-0.192,0.476-0.24,1.144-0.24,1.812v13.446h-7.244v-15.879L418.975,135.55L418.975,135.55z"/>
			<path fill="#FFFFFF" d="M464.416,150.807c-1.287,0.619-3.721,1.096-6.485,1.096c-7.533,0-12.352-4.625-12.352-11.92
				c0-6.816,4.675-12.396,13.353-12.396c1.904,0,4.003,0.335,5.528,0.907l-1.144,5.386c-0.856-0.379-2.146-0.713-4.052-0.713
				c-3.813,0-6.295,2.718-6.245,6.53c0,4.244,2.862,6.532,6.389,6.532c1.715,0,3.052-0.285,4.147-0.762L464.416,150.807z"/>
			<path fill="#FFFFFF" d="M475.907,121.626c0,2.004-1.477,3.623-3.908,3.623c-2.288,0-3.768-1.619-3.768-3.623
				c0-2.051,1.526-3.624,3.861-3.624C474.431,118.003,475.861,119.575,475.907,121.626z M468.421,151.426V128.11h7.247v23.315
				H468.421z"/>
			<path fill="#FFFFFF" d="M500.892,145.8c0,2.194,0.096,4.34,0.384,5.626h-6.534l-0.43-2.336h-0.143
				c-1.526,1.857-3.909,2.86-6.675,2.86c-4.718,0-7.532-3.434-7.532-7.153c0-6.056,5.436-8.914,13.684-8.914v-0.286
				c0-1.288-0.667-3.052-4.245-3.052c-2.384,0-4.908,0.812-6.436,1.764l-1.336-4.675c1.621-0.906,4.818-2.095,9.06-2.095
				c7.773,0,10.201,4.575,10.201,10.106v8.153L500.892,145.8L500.892,145.8z M493.885,140.413c-3.815,0-6.774,0.904-6.774,3.671
				c0,1.859,1.241,2.765,2.862,2.765c1.762,0,3.289-1.192,3.769-2.671c0.092-0.381,0.142-0.812,0.142-1.237v-2.527H493.885z"/>
			<path fill="#FFFFFF" d="M506.617,145.134c1.335,0.81,4.101,1.715,6.245,1.715c2.192,0,3.102-0.714,3.102-1.906
				c0-1.239-0.718-1.812-3.388-2.717c-4.862-1.621-6.721-4.244-6.674-7.009c0-4.389,3.717-7.677,9.486-7.677
				c2.72,0,5.104,0.667,6.532,1.381l-1.24,5.007c-1.048-0.571-3.099-1.336-5.053-1.336c-1.765,0-2.766,0.715-2.766,1.861
				c0,1.146,0.905,1.717,3.765,2.717c4.437,1.525,6.249,3.816,6.295,7.2c0,4.385-3.383,7.581-10.06,7.581
				c-3.052,0-5.768-0.717-7.532-1.669L506.617,145.134z"/>
			<path fill="#FFFFFF" d="M559.592,117.574v26.891c0,2.623,0.096,5.39,0.189,6.961h-6.436l-0.285-3.386h-0.142
				c-1.433,2.575-4.293,3.912-7.297,3.912c-5.529,0-9.964-4.722-9.964-11.97c-0.05-7.865,4.861-12.442,10.439-12.442
				c2.91,0,5.103,1.047,6.151,2.621h0.094v-12.587H559.592L559.592,117.574z M552.343,137.981c0-0.382,0-0.907-0.094-1.337
				c-0.43-1.906-2.003-3.526-4.243-3.526c-3.339,0-5.008,2.955-5.008,6.627c0,3.958,1.955,6.437,4.96,6.437
				c2.097,0,3.813-1.43,4.245-3.479c0.094-0.525,0.142-1.098,0.142-1.671v-3.051L552.343,137.981L552.343,137.981z"/>
			<path fill="#FFFFFF" d="M570.99,142.081c0.19,3.005,3.193,4.433,6.579,4.433c2.478,0,4.479-0.333,6.437-1.002l0.953,4.916
				c-2.384,0.998-5.291,1.475-8.439,1.475c-7.914,0-12.441-4.576-12.441-11.869c0-5.915,3.671-12.446,11.776-12.446
				c7.532,0,10.392,5.865,10.392,11.633c0,1.24-0.145,2.337-0.237,2.861H570.99L570.99,142.081z M579.523,137.122
				c0-1.765-0.764-4.72-4.099-4.72c-3.054,0-4.29,2.813-4.483,4.72H579.523z"/>
			<path fill="#FFFFFF" d="M600.222,117.574h7.245v33.852h-7.245V117.574z"/>
			<path fill="#FFFFFF" d="M632.74,145.8c0,2.194,0.095,4.34,0.381,5.626h-6.53l-0.433-2.336h-0.141
				c-1.525,1.857-3.91,2.86-6.674,2.86c-4.721,0-7.533-3.434-7.533-7.153c0-6.056,5.435-8.914,13.683-8.914v-0.286
				c0-1.288-0.67-3.052-4.244-3.052c-2.383,0-4.913,0.812-6.436,1.764l-1.335-4.675c1.619-0.906,4.814-2.095,9.059-2.095
				c7.771,0,10.203,4.575,10.203,10.106V145.8L632.74,145.8z M625.73,140.413c-3.814,0-6.771,0.904-6.771,3.671
				c0,1.859,1.239,2.765,2.86,2.765c1.765,0,3.291-1.192,3.767-2.671c0.096-0.381,0.144-0.812,0.144-1.237V140.413L625.73,140.413z"
				/>
			<path fill="#FFFFFF" d="M648.623,143.939c1.906,1.002,4.958,2.004,8.056,2.004c3.339,0,5.102-1.384,5.102-3.482
				c0-2.001-1.525-3.146-5.388-4.479c-5.34-1.908-8.869-4.863-8.869-9.537c0-5.481,4.626-9.631,12.158-9.631
				c3.67,0,6.293,0.713,8.2,1.62l-1.62,5.818c-1.242-0.62-3.578-1.525-6.676-1.525c-3.146,0-4.672,1.477-4.672,3.099
				c0,2.05,1.765,2.956,5.959,4.528c5.676,2.1,8.298,5.055,8.298,9.586c0,5.387-4.103,9.963-12.922,9.963
				c-3.671,0-7.294-1.001-9.107-2.003L648.623,143.939z"/>
			<path fill="#FFFFFF" d="M693.679,145.8c0,2.194,0.097,4.34,0.382,5.626h-6.53l-0.43-2.336h-0.145
				c-1.524,1.857-3.908,2.86-6.674,2.86c-4.719,0-7.535-3.434-7.535-7.153c0-6.056,5.438-8.914,13.688-8.914v-0.286
				c0-1.288-0.667-3.052-4.247-3.052c-2.384,0-4.909,0.812-6.435,1.764l-1.335-4.675c1.621-0.906,4.816-2.095,9.06-2.095
				c7.771,0,10.203,4.575,10.203,10.106v8.154H693.679z M686.671,140.413c-3.813,0-6.771,0.904-6.771,3.671
				c0,1.859,1.238,2.765,2.859,2.765c1.766,0,3.291-1.192,3.768-2.671c0.095-0.381,0.142-0.812,0.142-1.237v-2.527H686.671z"/>
			<path fill="#FFFFFF" d="M699.452,117.574h7.247v33.852h-7.247V117.574z"/>
			<path fill="#FFFFFF" d="M734.547,143.939c0,3.053,0.094,5.532,0.188,7.486h-6.29l-0.336-3.289h-0.145
				c-0.903,1.43-3.096,3.814-7.294,3.814c-4.768,0-8.201-2.957-8.201-10.157V128.11h7.247v12.542c0,3.383,1.098,5.433,3.672,5.433
				c2.003,0,3.195-1.381,3.625-2.526c0.189-0.428,0.286-0.953,0.286-1.572v-13.875h7.246v15.828H734.547L734.547,143.939z"/>
			<path fill="#FFFFFF" d="M762.965,117.574v26.891c0,2.623,0.096,5.39,0.189,6.961h-6.437l-0.286-3.386h-0.143
				c-1.43,2.575-4.288,3.912-7.296,3.912c-5.529,0-9.962-4.722-9.962-11.97c-0.049-7.865,4.862-12.442,10.441-12.442
				c2.908,0,5.1,1.047,6.151,2.621h0.094v-12.587H762.965L762.965,117.574z M755.718,137.981c0-0.382,0-0.907-0.094-1.337
				c-0.429-1.906-2.003-3.526-4.244-3.526c-3.338,0-5.006,2.955-5.006,6.627c0,3.958,1.954,6.437,4.958,6.437
				c2.098,0,3.814-1.43,4.244-3.479c0.094-0.525,0.142-1.098,0.142-1.671V137.981L755.718,137.981z"/>
		</g>
		<g>
			<g>
				<g>
					<path fill="#FFFFFF" stroke="#999999" stroke-width="0.9741" d="M54.574,72.598c-5.034,3.873-11.054,5.918-17.235,5.345
						C23.056,76.614,13.35,61.807,15.658,44.87c1.046-7.667,4.388-14.437,9.043-19.45c0,0-9.913,7.525-11.755,19.934
						C9.727,67.04,22.17,84.941,39.983,86.597c8.699,0.81,17.146-2.551,23.853-8.649L54.574,72.598z"/>
					<path fill="#FFFFFF" stroke="#999999" stroke-width="0.9741" d="M86.795,22.187C70.374,8.595,47.899,10.382,37.56,24.979
						c-5.614,7.925-6.614,18.155-3.669,27.938l8.884-6.077c-1.481-7.035-0.409-14.163,3.6-19.823
						c8.292-11.706,25.969-12.707,39.482-2.239c6.117,4.738,10.308,11.018,12.323,17.555C98.18,42.333,97.529,31.073,86.795,22.187z
						"/>
					<path fill="#FFFFFF" stroke="#999999" stroke-width="0.9741" d="M92.968,52.902c-3.68-8.006-10.9-13.671-19.636-16.402v10.675
						c5.972,2.407,10.838,6.637,13.463,12.344c5.992,13.033-1.979,28.846-17.801,35.313c-7.163,2.93-14.697,3.42-21.365,1.896
						c0,0,5.805,4.811,23.141,0.212C91.374,91.473,100.44,69.156,92.968,52.902z"/>
					
						<linearGradient id="SVGID_1_" gradientUnits="userSpaceOnUse" x1="95.5581" y1="655.0605" x2="54.1667" y2="671.2327" gradientTransform="matrix(1 0 0 1 -26.96 -617.6602)">
						<stop  offset="0" style="stop-color:#FFFFFF"/>
						<stop  offset="1" style="stop-color:#1F5221"/>
					</linearGradient>
					<path fill="url(#SVGID_1_)" stroke="#999999" stroke-width="0.9741" d="M47.295,47.633c7.558-3.09,15.539-3.484,22.47-1.639
						V35.563c-8.167-1.738-17.336-1.046-26.054,2.516c-8.428,3.445-15.048,9.025-19.31,15.543l8.24,5.285
						C36.063,54.197,41.058,50.183,47.295,47.633z"/>
					
						<linearGradient id="SVGID_2_" gradientUnits="userSpaceOnUse" x1="92.4751" y1="689.1689" x2="100.3911" y2="646.7615" gradientTransform="matrix(1 0 0 1 -26.96 -617.6602)">
						<stop  offset="0" style="stop-color:#FFFFFF"/>
						<stop  offset="1" style="stop-color:#1F5221"/>
					</linearGradient>
					<path fill="url(#SVGID_2_)" stroke="#999999" stroke-width="0.9741" d="M73.642,26.856l-8.698,4.493
						c2.37,5.321,3.35,11.651,2.438,18.329c-1.102,8.085-4.745,15.188-9.805,20.267l8.993,5.259
						c5.604-6.207,9.603-14.506,10.878-23.854C78.678,42.328,77.157,33.805,73.642,26.856z"/>
					
						<linearGradient id="SVGID_3_" gradientUnits="userSpaceOnUse" x1="67.5044" y1="668.2012" x2="96.8486" y2="703.8173" gradientTransform="matrix(1 0 0 1 -26.96 -617.6602)">
						<stop  offset="0" style="stop-color:#FFFFFF"/>
						<stop  offset="1" style="stop-color:#1F5221"/>
					</linearGradient>
					<path fill="url(#SVGID_3_)" stroke="#999999" stroke-width="0.9741" d="M55.831,67.17
						c-6.161-4.773-10.384-11.106-12.379-17.694c-3.281,1.814-6.125,4.06-8.47,6.591c2.785,7.09,7.652,13.781,14.368,18.982
						C56.548,80.625,64.689,83.57,72.465,84l0.459-9.78C67.132,73.613,61.16,71.297,55.831,67.17z"/>
				</g>
				<g>
					<path fill="#FFFFFF" d="M113.404,17.147h26.662c13.877,0,24.33,3.203,31.362,9.607c7.031,6.404,10.546,16.313,10.546,29.724
						c0,13.413-3.516,23.473-10.546,30.18c-7.032,6.704-17.485,10.059-31.362,10.059h-26.662V17.147z M130.321,82.444h9.605
						c9.7,0,16.151-2.228,19.353-6.683c1.717-2.32,3.028-5.069,3.934-8.25c0.905-3.178,1.357-6.856,1.357-11.033
						c0-4.084-0.452-7.634-1.357-10.65c-0.905-3.017-2.217-5.639-3.934-7.867c-3.341-4.456-9.792-6.683-19.353-6.683h-9.605V82.444z
						"/>
					<path fill="#FFFFFF" d="M221.166,97.967c-4.827,0-9.119-0.684-12.878-2.052c-3.759-1.369-6.926-3.343-9.502-5.917
						c-2.576-2.576-4.524-5.709-5.847-9.396c-1.323-3.69-1.984-7.879-1.984-12.566c0-4.734,0.673-8.969,2.02-12.705
						c1.346-3.734,3.283-6.903,5.813-9.502c2.529-2.599,5.615-4.583,9.259-5.953c3.643-1.368,7.784-2.053,12.426-2.053
						c4.5,0,8.55,0.65,12.147,1.949c3.595,1.3,6.648,3.203,9.154,5.708c2.505,2.506,4.431,5.604,5.777,9.293
						c1.345,3.688,2.019,7.926,2.019,12.705v4.037H208.08c0.046,2.877,0.406,5.338,1.08,7.379c0.672,2.043,1.588,3.725,2.75,5.047
						c1.159,1.323,2.517,2.287,4.072,2.891c1.555,0.604,3.282,0.904,5.187,0.904c3.108,0,5.662-0.649,7.657-1.949
						c1.994-1.299,3.341-3.411,4.038-6.336h15.593c-0.557,3.018-1.625,5.674-3.202,7.972c-1.579,2.296-3.55,4.224-5.918,5.778
						c-2.366,1.556-5.082,2.739-8.144,3.549C228.127,97.563,224.787,97.967,221.166,97.967z M233,61.77
						c-0.372-4.918-1.612-8.551-3.725-10.894c-2.111-2.344-5.046-3.516-8.806-3.516c-3.435,0-6.277,1.277-8.527,3.829
						c-2.251,2.552-3.493,6.08-3.724,10.58H233L233,61.77z"/>
					<path fill="#FFFFFF" d="M296,97.967c-5.616,0-10.767-0.894-15.454-2.68c-4.688-1.783-8.703-4.533-12.043-8.248
						c-3.436-3.759-5.952-8.121-7.554-13.087c-1.601-4.966-2.401-10.628-2.401-16.987c0-12.714,3.317-22.763,9.954-30.142
						c3.434-3.712,7.471-6.483,12.112-8.317c4.641-1.833,9.77-2.75,15.384-2.75c4.456,0,8.54,0.534,12.253,1.602
						c3.712,1.067,7.1,2.714,10.163,4.943c3.759,2.783,6.521,5.964,8.284,9.537s2.9,7.611,3.411,12.112h-16.986
						c-0.557-4.315-2.32-7.692-5.29-10.128c-2.97-2.437-6.916-3.655-11.835-3.655c-3.017,0-5.768,0.592-8.249,1.775
						c-2.483,1.184-4.595,2.914-6.334,5.186c-1.741,2.274-3.087,5.082-4.038,8.423c-0.952,3.342-1.427,7.147-1.427,11.417
						s0.464,8.064,1.393,11.382c0.928,3.318,2.25,6.126,3.969,8.423c1.716,2.297,3.804,4.039,6.265,5.221
						c2.458,1.185,5.221,1.775,8.284,1.775c4.918,0,8.864-1.264,11.835-3.793c2.969-2.529,4.778-6.162,5.429-10.895h16.847
						c-0.511,4.641-1.636,8.76-3.376,12.356c-1.74,3.597-4.143,6.695-7.205,9.293c-3.063,2.507-6.521,4.339-10.373,5.499
						C305.165,97.388,300.827,97.967,296,97.967z"/>
					<path fill="#FFFFFF" d="M374.176,97.967c-10.814,0-19.283-2.296-25.409-6.891c-6.125-4.594-9.445-11.557-9.955-20.885h16.291
						c0.556,4.781,2.423,8.354,5.603,10.721c3.179,2.367,7.529,3.551,13.053,3.551c5.057,0,9.061-0.881,12.009-2.646
						c2.946-1.762,4.418-4.314,4.418-7.656c0-1.484-0.357-2.738-1.076-3.76c-0.721-1.02-1.81-1.914-3.272-2.68
						c-1.462-0.766-3.285-1.473-5.465-2.123c-2.182-0.65-4.758-1.346-7.726-2.089l-2.995-0.835
						c-3.759-0.975-7.333-1.961-10.72-2.959c-3.389-0.998-6.359-2.32-8.911-3.969c-2.552-1.646-4.583-3.781-6.091-6.403
						c-1.508-2.622-2.262-6.022-2.262-10.199c0-3.992,0.835-7.46,2.506-10.408c1.671-2.946,3.933-5.384,6.787-7.309
						c2.854-1.926,6.161-3.352,9.919-4.282c3.76-0.926,7.728-1.392,11.905-1.392c4.825,0,9.199,0.568,13.122,1.706
						c3.922,1.138,7.285,2.773,10.096,4.908c2.807,2.136,4.998,4.746,6.576,7.831c1.578,3.087,2.436,6.579,2.578,10.477h-16.43
						c-0.418-3.759-1.985-6.601-4.7-8.527c-2.715-1.924-6.463-2.889-11.242-2.889c-4.595,0-8.122,0.825-10.581,2.472
						c-2.461,1.647-3.691,3.91-3.691,6.788c0,1.346,0.313,2.495,0.94,3.445s1.601,1.787,2.923,2.505
						c1.323,0.721,3.017,1.381,5.083,1.984c2.064,0.603,4.536,1.252,7.414,1.949c2.877,0.649,5.674,1.3,8.389,1.948
						c2.714,0.649,5.268,1.393,7.657,2.228c2.391,0.836,4.57,1.822,6.545,2.959c1.971,1.138,3.654,2.519,5.047,4.143
						c1.391,1.625,2.48,3.55,3.271,5.777c0.787,2.228,1.184,4.851,1.184,7.866c0,3.944-0.777,7.45-2.332,10.511
						c-1.555,3.064-3.76,5.64-6.613,7.728c-2.854,2.089-6.301,3.679-10.338,4.77C383.643,97.422,379.141,97.967,374.176,97.967z"/>
					<path fill="#FFFFFF" d="M448.313,17.147l-23.041,79.569h-13.576l22.973-79.569H448.313z"/>
					<path fill="#FFFFFF" d="M540.551,96.717h-15.246V33.855l-18.934,62.862h-15.453l-19.354-62.862v62.862H456.18V17.147h24.367
						l17.959,60.146l17.82-60.146h24.227v79.569H540.551z"/>
					<path fill="#FFFFFF" d="M582.736,97.967c-4.828,0-9.119-0.684-12.879-2.052c-3.758-1.369-6.928-3.343-9.504-5.917
						c-2.574-2.576-4.521-5.709-5.846-9.396c-1.32-3.69-1.982-7.879-1.982-12.566c0-4.734,0.672-8.969,2.018-12.705
						c1.346-3.734,3.283-6.903,5.813-9.502s5.615-4.583,9.258-5.953c3.645-1.368,7.785-2.053,12.428-2.053
						c4.502,0,8.549,0.65,12.148,1.949c3.594,1.3,6.648,3.203,9.152,5.708c2.508,2.506,4.432,5.604,5.779,9.293
						c1.348,3.688,2.018,7.926,2.018,12.705v4.037H569.65c0.047,2.877,0.404,5.338,1.078,7.379c0.672,2.043,1.59,3.725,2.75,5.047
						c1.16,1.323,2.518,2.287,4.072,2.891s3.281,0.904,5.186,0.904c3.109,0,5.66-0.649,7.658-1.949
						c1.994-1.299,3.342-3.411,4.037-6.336h15.594c-0.559,3.018-1.625,5.674-3.203,7.972c-1.578,2.296-3.549,4.224-5.916,5.778
						c-2.367,1.556-5.082,2.739-8.146,3.549C589.697,97.563,586.355,97.967,582.736,97.967z M594.57,61.77
						c-0.373-4.918-1.611-8.551-3.725-10.894c-2.111-2.344-5.047-3.516-8.807-3.516c-3.434,0-6.275,1.277-8.525,3.829
						c-2.252,2.552-3.494,6.08-3.725,10.58H594.57L594.57,61.77z"/>
					<path fill="#FFFFFF" d="M654.021,97.967c-10.816,0-19.285-2.296-25.41-6.891c-6.127-4.594-9.445-11.557-9.955-20.885h16.289
						c0.557,4.781,2.426,8.354,5.604,10.721c3.18,2.367,7.531,3.551,13.053,3.551c5.057,0,9.061-0.881,12.008-2.646
						c2.947-1.762,4.422-4.314,4.422-7.656c0-1.484-0.361-2.738-1.08-3.76c-0.719-1.02-1.809-1.914-3.271-2.68
						c-1.461-0.766-3.283-1.473-5.465-2.123s-4.758-1.346-7.727-2.089l-2.996-0.835c-3.758-0.975-7.332-1.961-10.721-2.959
						s-6.357-2.32-8.908-3.969c-2.553-1.646-4.584-3.781-6.094-6.403c-1.506-2.622-2.262-6.022-2.262-10.199
						c0-3.992,0.836-7.46,2.506-10.408c1.67-2.946,3.936-5.384,6.787-7.309c2.855-1.926,6.162-3.352,9.92-4.282
						c3.76-0.926,7.729-1.392,11.904-1.392c4.828,0,9.201,0.568,13.123,1.706c3.92,1.138,7.283,2.773,10.094,4.908
						c2.807,2.136,5,4.746,6.578,7.831c1.576,3.087,2.436,6.579,2.576,10.477h-16.43c-0.416-3.759-1.982-6.601-4.699-8.527
						c-2.715-1.924-6.463-2.889-11.242-2.889c-4.594,0-8.121,0.825-10.58,2.472c-2.461,1.647-3.689,3.91-3.689,6.788
						c0,1.346,0.311,2.495,0.938,3.445s1.602,1.787,2.926,2.505c1.32,0.721,3.016,1.381,5.08,1.984
						c2.064,0.603,4.537,1.252,7.416,1.949c2.875,0.649,5.672,1.3,8.389,1.948c2.713,0.649,5.264,1.393,7.654,2.228
						c2.391,0.836,4.572,1.822,6.545,2.959c1.973,1.138,3.654,2.519,5.047,4.143c1.393,1.625,2.484,3.55,3.273,5.777
						c0.785,2.228,1.182,4.851,1.182,7.866c0,3.944-0.775,7.45-2.332,10.511c-1.555,3.064-3.756,5.64-6.611,7.728
						c-2.854,2.089-6.301,3.679-10.338,4.77C663.488,97.422,658.984,97.967,654.021,97.967z"/>
					<path fill="#FFFFFF" d="M765.262,96.717h-16.848V62.049h-31.951v34.668h-16.916V17.147h16.916v30.839h31.951V17.147h16.848
						V96.717z"/>
				</g>
			</g>
		</g>
	</g>
</g>
</svg>
