<?xml version="1.0" encoding="utf-8"?>
<!-- Generator: Adobe Illustrator 14.0.0, SVG Export Plug-In . SVG Version: 6.00 Build 43363)  -->
<!DOCTYPE svg PUBLIC "-//W3C//DTD SVG 1.1//EN" "http://www.w3.org/Graphics/SVG/1.1/DTD/svg11.dtd">
<svg version="1.1" id="Camada_1" xmlns="http://www.w3.org/2000/svg" xmlns:xlink="http://www.w3.org/1999/xlink" x="0px" y="0px"
	 width="774px" height="250px" viewBox="166 0 774 250" enable-background="new 166 0 774 250" xml:space="preserve">
<g>
	<rect x="343.907" y="169.501" fill="#FFFF00" width="412.186" height="74.346"/>
	<g>
		<g>
			<path fill="#FFFFFF" d="M217.647,65.465c-5.005,3.852-10.991,5.886-17.135,5.315c-14.201-1.32-23.852-16.042-21.556-32.882
				c1.04-7.623,4.362-14.354,8.99-19.338c0,0-9.855,7.481-11.687,19.819c-3.202,21.562,9.171,39.359,26.881,41.006
				c8.649,0.805,17.047-2.536,23.716-8.601L217.647,65.465z"/>
			<path fill="#FFFFFF" d="M249.683,15.345c-16.328-13.515-38.672-11.737-48.953,2.776c-5.581,7.88-6.576,18.05-3.646,27.778
				l8.832-6.043c-1.473-6.995-0.406-14.081,3.581-19.709c8.244-11.639,25.819-12.635,39.255-2.227
				c6.082,4.711,10.25,10.955,12.252,17.454C261.003,35.375,260.355,24.18,249.683,15.345z"/>
			<path fill="#FFFFFF" d="M255.821,45.884c-3.659-7.959-10.838-13.592-19.523-16.309v10.614
				c5.938,2.394,10.776,6.598,13.386,12.274c5.958,12.958-1.967,28.678-17.7,35.11c-7.121,2.91-14.612,3.398-21.241,1.883
				c0,0,5.772,4.784,23.007,0.211C254.235,84.231,263.249,62.044,255.821,45.884z"/>
			
				<linearGradient id="SVGID_1_" gradientUnits="userSpaceOnUse" x1="508.5508" y1="348.1299" x2="467.3979" y2="364.2087" gradientTransform="matrix(1 0 0 1 -276.96 -317.6602)">
				<stop  offset="0" style="stop-color:#FFFFFF"/>
				<stop  offset="1" style="stop-color:#1F5221"/>
			</linearGradient>
			<path fill="url(#SVGID_1_)" d="M210.411,40.644c7.515-3.071,15.449-3.463,22.34-1.628V28.645
				c-8.119-1.728-17.236-1.042-25.904,2.501c-8.378,3.426-14.961,8.974-19.198,15.455l8.192,5.256
				C199.244,47.171,204.208,43.18,210.411,40.644z"/>
			
				<linearGradient id="SVGID_2_" gradientUnits="userSpaceOnUse" x1="505.4849" y1="382.043" x2="513.3555" y2="339.8784" gradientTransform="matrix(1 0 0 1 -276.96 -317.6602)">
				<stop  offset="0" style="stop-color:#FFFFFF"/>
				<stop  offset="1" style="stop-color:#1F5221"/>
			</linearGradient>
			<path fill="url(#SVGID_2_)" d="M236.606,19.987l-8.648,4.467c2.356,5.29,3.331,11.584,2.425,18.225
				c-1.096,8.039-4.719,15.102-9.749,20.15l8.941,5.229c5.571-6.171,9.548-14.422,10.815-23.716
				C241.613,35.371,240.101,26.896,236.606,19.987z"/>
			
				<linearGradient id="SVGID_3_" gradientUnits="userSpaceOnUse" x1="480.6572" y1="361.1953" x2="509.8332" y2="396.6073" gradientTransform="matrix(1 0 0 1 -276.96 -317.6602)">
				<stop  offset="0" style="stop-color:#FFFFFF"/>
				<stop  offset="1" style="stop-color:#1F5221"/>
			</linearGradient>
			<path fill="url(#SVGID_3_)" d="M218.897,60.069c-6.126-4.746-10.324-11.042-12.309-17.592c-3.263,1.804-6.09,4.036-8.42,6.554
				c2.768,7.048,7.608,13.701,14.285,18.873c7.157,5.544,15.251,8.471,22.981,8.899l0.457-9.724
				C230.133,66.475,224.195,64.172,218.897,60.069z"/>
		</g>
		<g>
			<path fill="#FFFFFF" d="M276.14,10.334h26.508c13.796,0,24.19,3.184,31.181,9.552c6.99,6.368,10.485,16.219,10.485,29.554
				c0,13.335-3.495,23.337-10.485,30.004c-6.99,6.668-17.384,10.001-31.181,10.001H276.14V10.334z M292.958,75.256h9.551
				c9.644,0,16.058-2.214,19.241-6.644c1.707-2.307,3.011-5.041,3.911-8.202c0.899-3.16,1.349-6.817,1.349-10.97
				c0-4.06-0.449-7.59-1.349-10.59c-0.9-2.999-2.204-5.606-3.911-7.821c-3.322-4.429-9.736-6.644-19.241-6.644h-9.551V75.256z"/>
			<path fill="#FFFFFF" d="M383.281,90.69c-4.799,0-9.066-0.68-12.805-2.042c-3.738-1.361-6.887-3.322-9.448-5.883
				c-2.561-2.561-4.499-5.675-5.813-9.343c-1.314-3.669-1.973-7.832-1.973-12.494c0-4.706,0.669-8.917,2.007-12.631
				c1.338-3.714,3.264-6.863,5.779-9.448c2.515-2.583,5.583-4.556,9.206-5.918c3.622-1.36,7.739-2.042,12.354-2.042
				c4.476,0,8.5,0.647,12.078,1.938c3.575,1.292,6.61,3.184,9.101,5.676c2.493,2.492,4.406,5.572,5.746,9.239
				c1.338,3.668,2.006,7.88,2.006,12.632v4.014h-41.25c0.045,2.862,0.404,5.307,1.073,7.336c0.668,2.032,1.58,3.703,2.734,5.018
				c1.153,1.315,2.502,2.273,4.048,2.873c1.545,0.599,3.264,0.899,5.156,0.899c3.091,0,5.629-0.646,7.614-1.938
				c1.983-1.291,3.322-3.392,4.014-6.298h15.503c-0.554,3-1.616,5.641-3.185,7.925c-1.569,2.285-3.529,4.2-5.882,5.746
				c-2.353,1.546-5.053,2.723-8.098,3.529C390.202,90.287,386.88,90.69,383.281,90.69z M395.047,54.7
				c-0.37-4.89-1.604-8.501-3.703-10.832c-2.1-2.329-5.018-3.495-8.755-3.495c-3.415,0-6.241,1.27-8.479,3.806
				c-2.239,2.538-3.473,6.045-3.703,10.521H395.047z"/>
			<path fill="#FFFFFF" d="M457.685,90.69c-5.583,0-10.705-0.889-15.366-2.666c-4.661-1.774-8.651-4.509-11.973-8.201
				c-3.416-3.737-5.918-8.074-7.51-13.012c-1.592-4.937-2.388-10.565-2.388-16.888c0-12.642,3.299-22.633,9.898-29.969
				c3.414-3.691,7.428-6.447,12.042-8.271c4.614-1.822,9.713-2.734,15.296-2.734c4.43,0,8.489,0.531,12.182,1.592
				c3.69,1.062,7.059,2.7,10.105,4.914c3.737,2.769,6.482,5.93,8.235,9.482c1.752,3.553,2.884,7.567,3.391,12.042h-16.888
				c-0.554-4.291-2.308-7.648-5.26-10.071c-2.954-2.422-6.875-3.634-11.767-3.634c-3,0-5.734,0.588-8.201,1.765
				c-2.468,1.177-4.567,2.896-6.298,5.156c-1.73,2.262-3.069,5.053-4.015,8.375c-0.947,3.322-1.419,7.106-1.419,11.351
				c0,4.246,0.46,8.018,1.385,11.316c0.922,3.299,2.237,6.091,3.945,8.374c1.706,2.285,3.782,4.015,6.229,5.191
				c2.445,1.176,5.191,1.765,8.236,1.765c4.889,0,8.812-1.256,11.766-3.772c2.952-2.514,4.752-6.125,5.398-10.832h16.75
				c-0.509,4.615-1.627,8.71-3.357,12.286c-1.73,3.576-4.118,6.656-7.164,9.239c-3.044,2.493-6.483,4.315-10.313,5.468
				C466.797,90.113,462.483,90.69,457.685,90.69z"/>
			<path fill="#FFFFFF" d="M535.41,90.69c-10.752,0-19.172-2.284-25.263-6.852c-6.09-4.567-9.39-11.489-9.897-20.764h16.196
				c0.554,4.753,2.41,8.306,5.572,10.659c3.16,2.354,7.486,3.53,12.977,3.53c5.029,0,9.009-0.876,11.94-2.63
				c2.929-1.752,4.395-4.291,4.395-7.613c0-1.476-0.358-2.723-1.073-3.737c-0.716-1.015-1.8-1.903-3.252-2.665
				c-1.455-0.762-3.266-1.464-5.434-2.111c-2.169-0.646-4.73-1.338-7.681-2.077l-2.977-0.83c-3.738-0.969-7.291-1.949-10.659-2.942
				c-3.368-0.991-6.322-2.306-8.859-3.944c-2.539-1.638-4.558-3.761-6.057-6.368c-1.499-2.606-2.249-5.987-2.249-10.14
				c0-3.968,0.831-7.417,2.492-10.348c1.66-2.929,3.91-5.352,6.748-7.268c2.838-1.914,6.125-3.333,9.863-4.256
				c3.738-0.922,7.683-1.384,11.835-1.384c4.798,0,9.147,0.565,13.046,1.695c3.899,1.132,7.244,2.758,10.037,4.879
				c2.79,2.123,4.971,4.719,6.54,7.787c1.568,3.069,2.423,6.541,2.561,10.417h-16.334c-0.416-3.737-1.973-6.563-4.672-8.479
				c-2.699-1.915-6.426-2.872-11.178-2.872c-4.568,0-8.076,0.82-10.52,2.457c-2.447,1.639-3.669,3.888-3.669,6.749
				c0,1.339,0.311,2.481,0.935,3.426c0.622,0.946,1.591,1.776,2.907,2.492c1.314,0.716,2.999,1.373,5.052,1.973
				c2.053,0.6,4.51,1.246,7.371,1.938c2.861,0.647,5.641,1.292,8.341,1.938c2.699,0.647,5.235,1.384,7.613,2.215
				c2.377,0.831,4.544,1.811,6.507,2.941c1.96,1.132,3.634,2.504,5.018,4.119c1.384,1.616,2.468,3.53,3.253,5.745
				c0.783,2.214,1.177,4.822,1.177,7.821c0,3.922-0.772,7.406-2.32,10.45c-1.545,3.046-3.735,5.606-6.574,7.683
				c-2.838,2.076-6.265,3.658-10.278,4.741C544.823,90.147,540.347,90.69,535.41,90.69z"/>
			<path fill="#FFFFFF" d="M609.122,10.334l-22.91,79.111h-13.497l22.84-79.111H609.122z"/>
			<path fill="#FFFFFF" d="M700.829,89.445h-15.158v-62.5l-18.825,62.5H651.48l-19.241-62.5v62.5h-15.296V10.334h24.225l17.855,59.8
				l17.718-59.8h24.087L700.829,89.445L700.829,89.445z"/>
			<path fill="#FFFFFF" d="M742.771,90.69c-4.8,0-9.066-0.68-12.805-2.042c-3.737-1.361-6.888-3.322-9.448-5.883
				c-2.56-2.561-4.498-5.675-5.813-9.343c-1.314-3.669-1.973-7.832-1.973-12.494c0-4.706,0.669-8.917,2.007-12.631
				c1.338-3.714,3.264-6.863,5.778-9.448c2.516-2.583,5.583-4.556,9.206-5.918c3.623-1.36,7.739-2.042,12.355-2.042
				c4.475,0,8.5,0.647,12.077,1.938c3.575,1.292,6.61,3.184,9.102,5.676c2.492,2.492,4.405,5.572,5.744,9.239
				c1.339,3.667,2.008,7.88,2.008,12.632v4.014h-41.251c0.046,2.862,0.404,5.307,1.072,7.336c0.67,2.032,1.581,3.703,2.734,5.018
				s2.503,2.273,4.05,2.873c1.544,0.599,3.263,0.899,5.155,0.899c3.091,0,5.629-0.646,7.614-1.938
				c1.983-1.291,3.321-3.392,4.013-6.298h15.504c-0.554,3-1.615,5.641-3.184,7.925c-1.568,2.285-3.53,4.2-5.883,5.746
				s-5.054,2.723-8.098,3.529C749.692,90.287,746.371,90.69,742.771,90.69z M754.538,54.7c-0.37-4.89-1.604-8.501-3.703-10.832
				c-2.1-2.329-5.019-3.495-8.755-3.495c-3.416,0-6.242,1.27-8.479,3.806c-2.237,2.538-3.473,6.045-3.703,10.521H754.538z"/>
			<path fill="#FFFFFF" d="M813.646,90.69c-10.752,0-19.173-2.284-25.263-6.852c-6.091-4.567-9.391-11.489-9.897-20.764h16.195
				c0.554,4.753,2.411,8.306,5.572,10.659c3.159,2.354,7.485,3.53,12.977,3.53c5.028,0,9.009-0.876,11.939-2.63
				c2.93-1.752,4.396-4.291,4.396-7.613c0-1.476-0.358-2.723-1.073-3.737s-1.799-1.903-3.253-2.665
				c-1.453-0.762-3.265-1.464-5.433-2.111c-2.17-0.646-4.73-1.338-7.682-2.077l-2.978-0.83c-3.737-0.969-7.29-1.949-10.658-2.942
				c-3.369-0.991-6.322-2.306-8.858-3.944c-2.538-1.638-4.558-3.761-6.057-6.368c-1.5-2.606-2.25-5.987-2.25-10.14
				c0-3.968,0.831-7.417,2.491-10.348c1.661-2.929,3.912-5.352,6.748-7.268c2.839-1.914,6.126-3.333,9.863-4.256
				c3.738-0.922,7.684-1.384,11.836-1.384c4.799,0,9.147,0.565,13.047,1.695c3.898,1.132,7.242,2.758,10.036,4.879
				c2.79,2.123,4.971,4.719,6.54,7.787c1.569,3.069,2.422,6.541,2.561,10.417h-16.334c-0.415-3.737-1.973-6.563-4.673-8.479
				c-2.698-1.915-6.425-2.872-11.177-2.872c-4.568,0-8.075,0.82-10.52,2.457c-2.446,1.639-3.669,3.888-3.669,6.749
				c0,1.339,0.31,2.481,0.935,3.426c0.623,0.946,1.591,1.776,2.907,2.492c1.313,0.716,2.998,1.373,5.052,1.973
				s4.51,1.246,7.371,1.938c2.861,0.647,5.641,1.292,8.341,1.938c2.698,0.647,5.235,1.384,7.613,2.215
				c2.376,0.831,4.544,1.811,6.507,2.941c1.96,1.132,3.633,2.504,5.018,4.119c1.383,1.616,2.467,3.53,3.253,5.745
				c0.783,2.214,1.176,4.822,1.176,7.821c0,3.922-0.772,7.406-2.319,10.45c-1.545,3.046-3.736,5.606-6.574,7.683
				c-2.839,2.076-6.266,3.658-10.277,4.741C823.059,90.147,818.582,90.69,813.646,90.69z"/>
			<path fill="#FFFFFF" d="M924.246,89.445h-16.749V54.976h-31.769v34.469H858.91V10.334h16.818v30.662h31.769V10.334h16.749V89.445
				z"/>
		</g>
		<g>
			<path fill="#FFFFFF" d="M187.573,106.764v15.859h15.31v-15.859h9.271v41.11h-9.271v-17.14h-15.31v17.14h-9.271v-41.11H187.573z"
				/>
			<path fill="#FFFFFF" d="M227.222,135.858c0.305,3.904,4.086,5.733,8.418,5.733c3.172,0,5.733-0.427,8.234-1.281l1.22,6.282
				c-3.05,1.281-6.771,1.891-10.796,1.891c-10.125,0-15.92-5.855-15.92-15.248c0-7.563,4.757-15.921,15.065-15.921
				c9.638,0,13.297,7.503,13.297,14.885c0,1.586-0.183,2.987-0.304,3.72L227.222,135.858z M238.14,129.517
				c0-2.196-0.976-6.04-5.184-6.04c-3.965,0-5.551,3.598-5.795,6.04H238.14z"/>
			<path fill="#FFFFFF" d="M277.118,140.678c0,2.806,0.123,5.55,0.488,7.196h-8.356l-0.549-2.987h-0.183
				c-1.952,2.379-5.001,3.659-8.54,3.659c-6.038,0-9.637-4.392-9.637-9.148c0-7.747,6.953-11.407,17.506-11.407v-0.365
				c0-1.587-0.854-3.843-5.429-3.843c-3.05,0-6.283,1.036-8.234,2.196l-1.708-5.917c2.073-1.159,6.16-2.685,11.589-2.685
				c9.942,0,13.053,5.855,13.053,12.871L277.118,140.678L277.118,140.678z M268.152,133.785c-4.88,0-8.661,1.159-8.661,4.696
				c0,2.379,1.585,3.537,3.659,3.537c2.257,0,4.209-1.524,4.819-3.415c0.123-0.487,0.183-1.037,0.183-1.586L268.152,133.785
				L268.152,133.785z"/>
			<path fill="#FFFFFF" d="M284.5,104.567h9.271v43.307H284.5V104.567z"/>
			<path fill="#FFFFFF" d="M311.582,109.936v8.112h6.649v6.83h-6.649v10.858c0,3.599,0.915,5.246,3.66,5.246
				c1.282,0,1.891-0.062,2.745-0.245l0.062,7.015c-1.159,0.428-3.416,0.793-5.978,0.793c-2.988,0-5.49-1.036-7.015-2.562
				c-1.708-1.77-2.561-4.635-2.561-8.844v-12.261h-3.964v-6.832h3.964v-5.611L311.582,109.936z"/>
			<path fill="#FFFFFF" d="M323.599,104.567h9.271v17.079h0.122c0.976-1.341,2.196-2.378,3.66-3.11
				c1.403-0.732,3.111-1.159,4.818-1.159c5.917,0,10.431,4.087,10.431,13.115v17.383h-9.271v-16.407
				c0-3.903-1.342-6.588-4.818-6.588c-2.44,0-3.965,1.586-4.636,3.295c-0.244,0.549-0.305,1.341-0.305,2.013v17.688H323.6
				L323.599,104.567L323.599,104.567z"/>
			<path fill="#FFFFFF" d="M372.275,138.359c2.439,1.282,6.343,2.563,10.308,2.563c4.27,0,6.527-1.77,6.527-4.514
				c0-2.501-1.952-4.024-6.893-5.733c-6.831-2.439-11.344-6.221-11.344-12.261c0-7.014,5.917-12.32,15.553-12.32
				c4.697,0,8.051,0.915,10.491,2.074l-2.074,7.442c-1.585-0.792-4.574-1.952-8.539-1.952c-4.025,0-5.978,1.891-5.978,3.964
				c0,2.624,2.257,3.782,7.624,5.856c7.258,2.685,10.614,6.466,10.614,12.322c0,6.892-5.246,12.748-16.53,12.748
				c-4.696,0-9.332-1.281-11.65-2.563L372.275,138.359z"/>
			<path fill="#FFFFFF" d="M426.989,147.143c-1.647,0.793-4.758,1.403-8.296,1.403c-9.636,0-15.797-5.916-15.797-15.31
				c0-8.723,5.977-15.86,17.079-15.86c2.438,0,5.123,0.427,7.074,1.159l-1.464,6.893c-1.098-0.488-2.745-0.915-5.184-0.915
				c-4.881,0-8.053,3.477-7.992,8.357c0,5.489,3.661,8.417,8.173,8.417c2.196,0,3.904-0.365,5.307-0.976L426.989,147.143z"/>
			<path fill="#FFFFFF" d="M436.688,114.145c-3.111,0-5.124-2.196-5.124-4.941c0-2.805,2.074-4.94,5.246-4.94
				c3.172,0,5.124,2.135,5.185,4.94c0,2.746-2.013,4.941-5.246,4.941H436.688z M432.113,147.874v-29.826h9.271v29.826H432.113z"/>
			<path fill="#FFFFFF" d="M455.962,135.858c0.304,3.904,4.086,5.733,8.417,5.733c3.172,0,5.734-0.427,8.234-1.281l1.22,6.282
				c-3.049,1.281-6.77,1.891-10.795,1.891c-10.125,0-15.92-5.855-15.92-15.248c0-7.563,4.757-15.921,15.066-15.921
				c9.637,0,13.296,7.503,13.296,14.885c0,1.586-0.183,2.987-0.304,3.72L455.962,135.858z M466.88,129.517
				c0-2.196-0.976-6.04-5.184-6.04c-3.965,0-5.55,3.598-5.795,6.04H466.88z"/>
			<path fill="#FFFFFF" d="M481.033,127.563c0-3.721-0.122-6.832-0.244-9.515h8.051l0.426,4.146h0.184
				c1.22-1.952,4.209-4.818,9.209-4.818c6.1,0,10.675,4.087,10.675,12.871v17.627h-9.272v-16.529c0-3.843-1.341-6.466-4.696-6.466
				c-2.562,0-4.087,1.77-4.757,3.477c-0.245,0.609-0.305,1.464-0.305,2.318v17.2h-9.271L481.033,127.563L481.033,127.563z"/>
			<path fill="#FFFFFF" d="M539.164,147.143c-1.647,0.793-4.758,1.403-8.296,1.403c-9.636,0-15.797-5.916-15.797-15.31
				c0-8.723,5.978-15.86,17.079-15.86c2.439,0,5.123,0.427,7.075,1.159l-1.464,6.893c-1.098-0.488-2.745-0.915-5.184-0.915
				c-4.88,0-8.052,3.477-7.991,8.357c0,5.489,3.661,8.417,8.173,8.417c2.196,0,3.904-0.365,5.307-0.976L539.164,147.143z"/>
			<path fill="#FFFFFF" d="M550.755,135.858c0.304,3.904,4.086,5.733,8.417,5.733c3.171,0,5.733-0.427,8.233-1.281l1.22,6.282
				c-3.048,1.281-6.77,1.891-10.794,1.891c-10.126,0-15.921-5.855-15.921-15.248c0-7.563,4.757-15.921,15.065-15.921
				c9.637,0,13.298,7.503,13.298,14.885c0,1.586-0.184,2.987-0.305,3.72L550.755,135.858z M561.673,129.517
				c0-2.196-0.977-6.04-5.186-6.04c-3.964,0-5.55,3.598-5.795,6.04H561.673z"/>
			<path fill="#FFFFFF" d="M575.764,139.824c1.708,1.036,5.247,2.196,7.991,2.196c2.807,0,3.965-0.916,3.965-2.439
				c0-1.587-0.916-2.318-4.331-3.478c-6.221-2.013-8.601-5.429-8.54-8.905c0-5.612,4.758-9.82,12.139-9.82
				c3.477,0,6.527,0.854,8.356,1.77l-1.587,6.343c-1.341-0.672-3.964-1.646-6.465-1.646c-2.257,0-3.537,0.914-3.537,2.378
				c0,1.464,1.159,2.195,4.818,3.477c5.671,1.891,7.99,4.819,8.052,9.148c0,5.611-4.332,9.698-12.87,9.698
				c-3.903,0-7.38-0.915-9.638-2.136L575.764,139.824z"/>
			<path fill="#FFFFFF" d="M614.925,107.374c3.416-0.61,7.868-0.914,12.504-0.914c7.868,0,12.992,1.28,16.896,4.27
				c4.271,3.172,6.954,8.295,6.954,15.615c0,7.868-2.867,13.297-6.771,16.65c-4.331,3.599-10.979,5.308-19.029,5.308
				c-4.82,0-8.297-0.305-10.553-0.61V107.374z M624.195,140.86c0.792,0.184,2.136,0.184,3.233,0.184
				c8.478,0.061,14.029-4.574,14.029-14.395c0-8.845-5.002-13.054-13.054-13.054c-2.013,0-3.416,0.184-4.209,0.366V140.86z"/>
			<path fill="#FFFFFF" d="M664.516,135.858c0.305,3.904,4.087,5.733,8.418,5.733c3.171,0,5.732-0.427,8.233-1.281l1.22,6.282
				c-3.05,1.281-6.771,1.891-10.796,1.891c-10.126,0-15.92-5.855-15.92-15.248c0-7.563,4.759-15.921,15.066-15.921
				c9.637,0,13.296,7.503,13.296,14.885c0,1.586-0.182,2.987-0.304,3.72L664.516,135.858z M675.434,129.517
				c0-2.196-0.976-6.04-5.185-6.04c-3.964,0-5.55,3.598-5.795,6.04H675.434z"/>
			<path fill="#FFFFFF" d="M689.524,139.824c1.707,1.036,5.246,2.196,7.991,2.196c2.806,0,3.964-0.916,3.964-2.439
				c0-1.587-0.915-2.318-4.331-3.478c-6.221-2.013-8.6-5.429-8.539-8.905c0-5.612,4.757-9.82,12.138-9.82
				c3.477,0,6.527,0.854,8.355,1.77l-1.585,6.343c-1.341-0.672-3.964-1.646-6.465-1.646c-2.258,0-3.538,0.914-3.538,2.378
				c0,1.464,1.159,2.195,4.818,3.477c5.672,1.891,7.99,4.819,8.053,9.148c0,5.611-4.333,9.698-12.87,9.698
				c-3.904,0-7.381-0.915-9.638-2.136L689.524,139.824z"/>
			<path fill="#FFFFFF" d="M738.443,147.143c-1.647,0.793-4.758,1.403-8.295,1.403c-9.639,0-15.799-5.916-15.799-15.31
				c0-8.723,5.979-15.86,17.079-15.86c2.439,0,5.123,0.427,7.075,1.159l-1.463,6.893c-1.099-0.488-2.747-0.915-5.186-0.915
				c-4.879,0-8.052,3.477-7.99,8.357c0,5.489,3.659,8.417,8.173,8.417c2.195,0,3.904-0.365,5.306-0.976L738.443,147.143z"/>
			<path fill="#FFFFFF" d="M743.629,127.869c0-4.392-0.061-7.259-0.243-9.821h7.929l0.366,5.551h0.245
				c1.524-4.393,5.123-6.222,8.051-6.222c0.853,0,1.282,0.062,1.952,0.183v8.722c-0.793-0.121-1.525-0.244-2.562-0.244
				c-3.416,0-5.733,1.77-6.345,4.696c-0.122,0.611-0.183,1.282-0.183,2.075v15.064h-9.271L743.629,127.869z"/>
			<path fill="#FFFFFF" d="M771.199,114.145c-3.109,0-5.123-2.196-5.123-4.941c0-2.805,2.074-4.94,5.246-4.94
				s5.123,2.135,5.184,4.94c0,2.746-2.012,4.941-5.244,4.941H771.199z M766.626,147.874v-29.826h9.271v29.826H766.626z"/>
			<path fill="#FFFFFF" d="M783.339,128.051c0-3.904-0.124-7.197-0.245-10.002h8.052l0.427,4.146h0.122
				c2.196-3.11,5.611-4.818,9.942-4.818c6.525,0,12.381,5.673,12.381,15.189c0,10.856-6.892,15.979-13.54,15.979
				c-3.6,0-6.405-1.464-7.746-3.415h-0.122v14.821h-9.271V128.051z M792.61,135.065c0,0.733,0.061,1.343,0.183,1.951
				c0.61,2.502,2.745,4.394,5.429,4.394c4.025,0,6.404-3.355,6.404-8.418c0-4.758-2.135-8.357-6.282-8.357
				c-2.624,0-4.94,1.953-5.55,4.698c-0.122,0.488-0.184,1.098-0.184,1.646V135.065L792.61,135.065z"/>
			<path fill="#FFFFFF" d="M830.184,109.936v8.112h6.648v6.83h-6.648v10.858c0,3.599,0.915,5.246,3.659,5.246
				c1.281,0,1.892-0.062,2.745-0.245l0.062,7.015c-1.16,0.428-3.416,0.793-5.978,0.793c-2.989,0-5.49-1.036-7.015-2.562
				c-1.708-1.77-2.562-4.635-2.562-8.844v-12.261h-3.966v-6.832h3.966v-5.611L830.184,109.936z"/>
			<path fill="#FFFFFF" d="M855.62,148.546c-8.722,0-15.433-5.733-15.433-15.37c0-9.639,6.345-15.799,15.98-15.799
				c9.09,0,15.188,6.282,15.188,15.31c0,10.857-7.747,15.859-15.676,15.859H855.62L855.62,148.546z M855.802,141.897
				c3.661,0,5.919-3.599,5.919-8.967c0-4.391-1.71-8.905-5.919-8.905c-4.391,0-6.098,4.514-6.098,8.966
				c0,5.063,2.135,8.905,6.037,8.905H855.802z"/>
			<path fill="#FFFFFF" d="M877.152,127.869c0-4.392-0.061-7.259-0.243-9.821h7.929l0.366,5.551h0.244
				c1.525-4.393,5.124-6.222,8.051-6.222c0.854,0,1.282,0.062,1.952,0.183v8.722c-0.793-0.121-1.525-0.244-2.562-0.244
				c-3.415,0-5.733,1.77-6.345,4.696c-0.121,0.611-0.182,1.282-0.182,2.075v15.064h-9.271L877.152,127.869z"/>
			<path fill="#FFFFFF" d="M900.21,139.824c1.707,1.036,5.246,2.196,7.991,2.196c2.806,0,3.964-0.916,3.964-2.439
				c0-1.587-0.916-2.318-4.33-3.478c-6.222-2.013-8.601-5.429-8.54-8.905c0-5.612,4.758-9.82,12.138-9.82
				c3.478,0,6.527,0.854,8.356,1.77l-1.586,6.343c-1.342-0.672-3.965-1.646-6.465-1.646c-2.258,0-3.538,0.914-3.538,2.378
				c0,1.464,1.159,2.195,4.818,3.477c5.672,1.891,7.99,4.819,8.052,9.148c0,5.611-4.332,9.698-12.869,9.698
				c-3.904,0-7.381-0.915-9.639-2.136L900.21,139.824z"/>
		</g>
	</g>
	<text transform="matrix(1 0 0 1 357.9224 223.0889)" font-family="'Consolas'" font-size="63.5193">Highlighter</text>
</g>
</svg>
