<?xml version="1.0" encoding="utf-8"?>
<!-- Generator: Adobe Illustrator 14.0.0, SVG Export Plug-In . SVG Version: 6.00 Build 43363)  -->
<!DOCTYPE svg PUBLIC "-//W3C//DTD SVG 1.1//EN" "http://www.w3.org/Graphics/SVG/1.1/DTD/svg11.dtd">
<svg version="1.1" id="Camada_1" xmlns="http://www.w3.org/2000/svg" xmlns:xlink="http://www.w3.org/1999/xlink" x="0px" y="0px"
	 width="774px" height="250px" viewBox="0 0 774 250" enable-background="new 0 0 774 250" xml:space="preserve">
<g>
	<rect x="180.907" y="169.501" fill="#FFFF00" width="412.186" height="74.347"/>
	<g>
		<g>
			<path fill="#FFFFFF" d="M54.647,65.464c-5.005,3.852-10.991,5.886-17.135,5.315c-14.201-1.32-23.853-16.042-21.557-32.882
				c1.04-7.623,4.362-14.354,8.99-19.338c0,0-9.855,7.481-11.688,19.819c-3.201,21.562,9.172,39.359,26.882,41.006
				c8.648,0.805,17.047-2.536,23.716-8.601L54.647,65.464z"/>
			<path fill="#FFFFFF" d="M86.684,15.344C70.355,1.83,48.012,3.607,37.73,18.121c-5.581,7.88-6.576,18.05-3.646,27.778l8.832-6.043
				c-1.473-6.995-0.406-14.081,3.581-19.709c8.244-11.639,25.819-12.635,39.255-2.227c6.082,4.711,10.25,10.955,12.252,17.454
				C98.003,35.375,97.355,24.18,86.684,15.344z"/>
			<path fill="#FFFFFF" d="M92.821,45.883c-3.659-7.959-10.838-13.592-19.523-16.309v10.614c5.938,2.394,10.776,6.598,13.387,12.274
				c5.958,12.958-1.968,28.678-17.7,35.11c-7.121,2.91-14.612,3.398-21.241,1.883c0,0,5.772,4.784,23.007,0.211
				C91.235,84.23,100.249,62.043,92.821,45.883z"/>
			
				<linearGradient id="SVGID_1_" gradientUnits="userSpaceOnUse" x1="501.5508" y1="-344.1304" x2="460.3987" y2="-360.2088" gradientTransform="matrix(1 0 0 -1 -432.96 -313.6602)">
				<stop  offset="0" style="stop-color:#FFFFFF"/>
				<stop  offset="1" style="stop-color:#1F5221"/>
			</linearGradient>
			<path fill="url(#SVGID_1_)" d="M47.411,40.644c7.515-3.071,15.449-3.463,22.34-1.628V28.645
				c-8.119-1.728-17.235-1.042-25.903,2.501c-8.379,3.426-14.962,8.974-19.198,15.455l8.191,5.256
				C36.244,47.17,41.208,43.18,47.411,40.644z"/>
			
				<linearGradient id="SVGID_2_" gradientUnits="userSpaceOnUse" x1="498.4854" y1="-378.042" x2="506.356" y2="-335.8774" gradientTransform="matrix(1 0 0 -1 -432.96 -313.6602)">
				<stop  offset="0" style="stop-color:#FFFFFF"/>
				<stop  offset="1" style="stop-color:#1F5221"/>
			</linearGradient>
			<path fill="url(#SVGID_2_)" d="M73.606,19.986l-8.648,4.467c2.356,5.29,3.331,11.584,2.425,18.225
				c-1.096,8.039-4.719,15.102-9.749,20.15l8.941,5.229c5.571-6.171,9.548-14.422,10.815-23.716
				C78.613,35.371,77.102,26.896,73.606,19.986z"/>
			
				<linearGradient id="SVGID_3_" gradientUnits="userSpaceOnUse" x1="473.6572" y1="-357.1948" x2="502.8334" y2="-392.6071" gradientTransform="matrix(1 0 0 -1 -432.96 -313.6602)">
				<stop  offset="0" style="stop-color:#FFFFFF"/>
				<stop  offset="1" style="stop-color:#1F5221"/>
			</linearGradient>
			<path fill="url(#SVGID_3_)" d="M55.897,60.068c-6.126-4.746-10.324-11.042-12.31-17.592c-3.263,1.804-6.09,4.036-8.42,6.554
				c2.769,7.048,7.608,13.701,14.285,18.873c7.157,5.544,15.251,8.471,22.981,8.899l0.457-9.724
				C67.133,66.475,61.195,64.171,55.897,60.068z"/>
		</g>
		<g>
			<path fill="#FFFFFF" d="M113.141,10.333h26.508c13.796,0,24.189,3.184,31.181,9.552c6.99,6.368,10.485,16.219,10.485,29.554
				s-3.495,23.337-10.485,30.004c-6.99,6.668-17.384,10.001-31.181,10.001h-26.508V10.333z M129.958,75.255h9.551
				c9.645,0,16.059-2.214,19.241-6.644c1.707-2.307,3.011-5.041,3.911-8.202c0.898-3.16,1.349-6.817,1.349-10.97
				c0-4.06-0.449-7.59-1.349-10.59c-0.9-2.999-2.204-5.606-3.911-7.821c-3.322-4.429-9.736-6.644-19.241-6.644h-9.551V75.255z"/>
			<path fill="#FFFFFF" d="M220.281,90.689c-4.799,0-9.066-0.68-12.806-2.042c-3.737-1.361-6.887-3.322-9.447-5.883
				c-2.562-2.561-4.499-5.675-5.813-9.343c-1.313-3.669-1.973-7.832-1.973-12.494c0-4.706,0.669-8.917,2.007-12.631
				s3.264-6.863,5.779-9.448c2.515-2.583,5.583-4.556,9.206-5.918c3.622-1.36,7.738-2.042,12.354-2.042
				c4.477,0,8.5,0.647,12.078,1.938c3.575,1.292,6.61,3.184,9.101,5.676c2.493,2.492,4.406,5.572,5.746,9.239
				c1.338,3.668,2.007,7.88,2.007,12.632v4.014h-41.25c0.045,2.862,0.403,5.307,1.072,7.336c0.668,2.032,1.58,3.703,2.734,5.018
				c1.153,1.315,2.502,2.273,4.048,2.873c1.545,0.599,3.264,0.899,5.156,0.899c3.091,0,5.629-0.646,7.614-1.938
				c1.982-1.291,3.321-3.392,4.014-6.298h15.503c-0.554,3-1.616,5.641-3.185,7.925c-1.569,2.285-3.529,4.2-5.883,5.746
				c-2.353,1.546-5.053,2.723-8.098,3.529C227.202,90.287,223.88,90.689,220.281,90.689z M232.047,54.7
				c-0.37-4.89-1.604-8.501-3.703-10.832c-2.1-2.329-5.018-3.495-8.755-3.495c-3.415,0-6.241,1.27-8.479,3.806
				c-2.239,2.538-3.474,6.045-3.703,10.521H232.047z"/>
			<path fill="#FFFFFF" d="M294.685,90.689c-5.583,0-10.704-0.889-15.365-2.666c-4.661-1.774-8.651-4.509-11.974-8.201
				c-3.416-3.737-5.918-8.074-7.51-13.012c-1.592-4.937-2.388-10.565-2.388-16.888c0-12.642,3.299-22.633,9.897-29.969
				c3.414-3.691,7.429-6.447,12.042-8.271c4.614-1.822,9.713-2.734,15.296-2.734c4.431,0,8.489,0.531,12.183,1.592
				c3.689,1.062,7.059,2.7,10.104,4.914c3.737,2.769,6.482,5.93,8.235,9.482c1.752,3.553,2.884,7.567,3.391,12.042h-16.888
				c-0.554-4.291-2.308-7.648-5.26-10.071c-2.954-2.422-6.875-3.634-11.768-3.634c-3,0-5.733,0.588-8.2,1.765
				c-2.469,1.177-4.567,2.896-6.299,5.156c-1.729,2.262-3.068,5.053-4.015,8.375c-0.947,3.322-1.419,7.106-1.419,11.351
				c0,4.246,0.46,8.018,1.385,11.316c0.922,3.299,2.237,6.091,3.945,8.374c1.706,2.285,3.782,4.015,6.229,5.191
				c2.445,1.176,5.191,1.765,8.236,1.765c4.889,0,8.813-1.256,11.766-3.772c2.952-2.514,4.752-6.125,5.398-10.832h16.75
				c-0.509,4.615-1.627,8.71-3.357,12.286c-1.729,3.576-4.117,6.656-7.164,9.239c-3.044,2.493-6.482,4.315-10.313,5.468
				C303.797,90.112,299.483,90.689,294.685,90.689z"/>
			<path fill="#FFFFFF" d="M372.41,90.689c-10.752,0-19.172-2.284-25.264-6.852c-6.09-4.567-9.39-11.489-9.896-20.764h16.196
				c0.554,4.753,2.409,8.306,5.571,10.659c3.16,2.354,7.486,3.53,12.978,3.53c5.029,0,9.009-0.876,11.939-2.63
				c2.93-1.752,4.396-4.291,4.396-7.613c0-1.476-0.358-2.723-1.073-3.737c-0.716-1.015-1.8-1.903-3.252-2.665
				c-1.455-0.762-3.266-1.464-5.434-2.111c-2.169-0.646-4.73-1.338-7.682-2.077l-2.977-0.83c-3.738-0.969-7.291-1.949-10.659-2.942
				c-3.368-0.991-6.322-2.306-8.859-3.944c-2.539-1.638-4.558-3.761-6.057-6.368c-1.499-2.606-2.249-5.987-2.249-10.14
				c0-3.968,0.831-7.417,2.492-10.348c1.66-2.929,3.91-5.352,6.748-7.268c2.838-1.914,6.125-3.333,9.863-4.256
				c3.737-0.922,7.683-1.384,11.835-1.384c4.798,0,9.146,0.565,13.046,1.695c3.898,1.132,7.244,2.758,10.037,4.879
				c2.79,2.123,4.971,4.719,6.54,7.787c1.567,3.069,2.423,6.541,2.561,10.417h-16.334c-0.416-3.737-1.973-6.563-4.672-8.479
				c-2.699-1.915-6.426-2.872-11.178-2.872c-4.568,0-8.076,0.82-10.521,2.457c-2.447,1.639-3.669,3.888-3.669,6.749
				c0,1.339,0.311,2.481,0.936,3.426c0.621,0.946,1.591,1.776,2.906,2.492c1.314,0.716,2.999,1.373,5.053,1.973
				c2.053,0.6,4.51,1.246,7.37,1.938c2.861,0.647,5.642,1.292,8.342,1.938c2.698,0.647,5.234,1.384,7.612,2.215
				c2.377,0.831,4.544,1.811,6.507,2.941c1.96,1.132,3.635,2.504,5.019,4.119c1.384,1.616,2.468,3.53,3.253,5.745
				c0.783,2.214,1.177,4.822,1.177,7.821c0,3.922-0.771,7.406-2.32,10.45c-1.545,3.046-3.734,5.606-6.573,7.683
				c-2.838,2.076-6.266,3.658-10.278,4.741C381.823,90.146,377.347,90.689,372.41,90.689z"/>
			<path fill="#FFFFFF" d="M446.122,10.333l-22.91,79.111h-13.497l22.84-79.111H446.122z"/>
			<path fill="#FFFFFF" d="M537.829,89.444h-15.158v-62.5l-18.825,62.5H488.48l-19.241-62.5v62.5h-15.296V10.333h24.225l17.854,59.8
				l17.719-59.8h24.087L537.829,89.444L537.829,89.444z"/>
			<path fill="#FFFFFF" d="M579.771,90.689c-4.801,0-9.066-0.68-12.806-2.042c-3.737-1.361-6.888-3.322-9.448-5.883
				c-2.56-2.561-4.498-5.675-5.813-9.343c-1.314-3.669-1.973-7.832-1.973-12.494c0-4.706,0.669-8.917,2.007-12.631
				s3.264-6.863,5.777-9.448c2.517-2.583,5.583-4.556,9.206-5.918c3.623-1.36,7.739-2.042,12.355-2.042
				c4.475,0,8.5,0.647,12.077,1.938c3.575,1.292,6.609,3.184,9.102,5.676s4.405,5.572,5.744,9.239s2.008,7.88,2.008,12.632v4.014
				h-41.251c0.046,2.862,0.404,5.307,1.072,7.336c0.67,2.032,1.581,3.703,2.734,5.018c1.152,1.315,2.503,2.273,4.05,2.873
				c1.544,0.599,3.263,0.899,5.155,0.899c3.091,0,5.629-0.646,7.613-1.938c1.983-1.291,3.321-3.392,4.014-6.298H606.9
				c-0.555,3-1.615,5.641-3.185,7.925c-1.567,2.285-3.529,4.2-5.883,5.746c-2.353,1.546-5.054,2.723-8.098,3.529
				C586.692,90.287,583.371,90.689,579.771,90.689z M591.538,54.7c-0.37-4.89-1.604-8.501-3.703-10.832
				c-2.1-2.329-5.019-3.495-8.755-3.495c-3.416,0-6.242,1.27-8.479,3.806c-2.236,2.538-3.473,6.045-3.702,10.521H591.538z"/>
			<path fill="#FFFFFF" d="M650.646,90.689c-10.753,0-19.174-2.284-25.264-6.852c-6.091-4.567-9.391-11.489-9.896-20.764h16.194
				c0.555,4.753,2.411,8.306,5.572,10.659c3.159,2.354,7.485,3.53,12.978,3.53c5.027,0,9.009-0.876,11.938-2.63
				c2.93-1.752,4.396-4.291,4.396-7.613c0-1.476-0.358-2.723-1.073-3.737c-0.715-1.014-1.799-1.903-3.253-2.665
				c-1.453-0.762-3.266-1.464-5.434-2.111c-2.17-0.646-4.729-1.338-7.682-2.077l-2.978-0.83c-3.737-0.969-7.29-1.949-10.658-2.942
				c-3.369-0.991-6.322-2.306-8.858-3.944c-2.538-1.638-4.558-3.761-6.057-6.368c-1.5-2.606-2.25-5.987-2.25-10.14
				c0-3.968,0.831-7.417,2.491-10.348c1.66-2.929,3.912-5.352,6.748-7.268c2.839-1.914,6.126-3.333,9.862-4.256
				c3.738-0.922,7.685-1.384,11.836-1.384c4.8,0,9.147,0.565,13.047,1.695c3.898,1.132,7.242,2.758,10.036,4.879
				c2.79,2.123,4.972,4.719,6.54,7.787c1.569,3.069,2.422,6.541,2.562,10.417h-16.334c-0.415-3.737-1.974-6.563-4.673-8.479
				c-2.698-1.915-6.426-2.872-11.178-2.872c-4.567,0-8.075,0.82-10.52,2.457c-2.446,1.639-3.669,3.888-3.669,6.749
				c0,1.339,0.31,2.481,0.935,3.426c0.623,0.946,1.591,1.776,2.907,2.492c1.313,0.716,2.998,1.373,5.052,1.973
				s4.51,1.246,7.371,1.938c2.861,0.647,5.641,1.292,8.341,1.938c2.698,0.647,5.235,1.384,7.613,2.215
				c2.376,0.831,4.544,1.811,6.507,2.941c1.96,1.132,3.633,2.504,5.019,4.119c1.383,1.616,2.467,3.53,3.253,5.745
				c0.782,2.214,1.176,4.822,1.176,7.821c0,3.922-0.772,7.406-2.319,10.45c-1.545,3.046-3.735,5.606-6.574,7.683
				c-2.839,2.076-6.266,3.658-10.276,4.741C660.059,90.146,655.582,90.689,650.646,90.689z"/>
			<path fill="#FFFFFF" d="M761.246,89.444h-16.749V54.976h-31.77v34.469H695.91V10.333h16.817v30.662h31.77V10.333h16.749V89.444z"
				/>
		</g>
		<g>
			<path fill="#FFFFFF" d="M24.573,106.764v15.859h15.31v-15.859h9.271v41.11h-9.271v-17.14h-15.31v17.14h-9.271v-41.11H24.573
				L24.573,106.764z"/>
			<path fill="#FFFFFF" d="M64.223,135.857c0.305,3.904,4.086,5.733,8.418,5.733c3.172,0,5.732-0.427,8.233-1.28l1.22,6.281
				c-3.05,1.281-6.771,1.891-10.796,1.891c-10.125,0-15.92-5.854-15.92-15.248c0-7.563,4.757-15.921,15.065-15.921
				c9.638,0,13.297,7.503,13.297,14.886c0,1.586-0.183,2.986-0.304,3.72L64.223,135.857z M75.141,129.518
				c0-2.197-0.977-6.041-5.185-6.041c-3.965,0-5.551,3.599-5.795,6.041H75.141z"/>
			<path fill="#FFFFFF" d="M114.118,140.678c0,2.807,0.123,5.551,0.488,7.196h-8.356l-0.549-2.987h-0.183
				c-1.952,2.379-5.001,3.659-8.54,3.659c-6.038,0-9.638-4.392-9.638-9.147c0-7.748,6.953-11.407,17.507-11.407v-0.365
				c0-1.587-0.854-3.843-5.43-3.843c-3.05,0-6.282,1.036-8.233,2.196l-1.708-5.917c2.072-1.159,6.16-2.685,11.589-2.685
				c9.941,0,13.053,5.855,13.053,12.872V140.678L114.118,140.678z M105.152,133.785c-4.88,0-8.661,1.158-8.661,4.695
				c0,2.379,1.585,3.537,3.659,3.537c2.257,0,4.209-1.523,4.818-3.414c0.123-0.487,0.184-1.037,0.184-1.586V133.785L105.152,133.785
				z"/>
			<path fill="#FFFFFF" d="M121.5,104.566h9.271v43.308H121.5V104.566z"/>
			<path fill="#FFFFFF" d="M148.582,109.936v8.112h6.649v6.83h-6.649v10.859c0,3.599,0.915,5.246,3.66,5.246
				c1.282,0,1.891-0.063,2.745-0.246l0.062,7.016c-1.159,0.428-3.416,0.793-5.978,0.793c-2.988,0-5.49-1.036-7.015-2.563
				c-1.708-1.77-2.562-4.635-2.562-8.844v-12.261h-3.964v-6.832h3.964v-5.611L148.582,109.936z"/>
			<path fill="#FFFFFF" d="M160.599,104.566h9.271v17.079h0.122c0.976-1.341,2.196-2.378,3.66-3.11
				c1.402-0.732,3.11-1.159,4.817-1.159c5.917,0,10.432,4.087,10.432,13.116v17.383h-9.271v-16.407c0-3.903-1.342-6.588-4.817-6.588
				c-2.44,0-3.966,1.586-4.637,3.295c-0.244,0.55-0.305,1.341-0.305,2.013v17.688H160.6L160.599,104.566L160.599,104.566z"/>
			<path fill="#FFFFFF" d="M209.275,138.359c2.438,1.281,6.343,2.563,10.308,2.563c4.27,0,6.527-1.77,6.527-4.514
				c0-2.501-1.952-4.024-6.894-5.733c-6.831-2.438-11.344-6.221-11.344-12.261c0-7.014,5.917-12.32,15.553-12.32
				c4.697,0,8.051,0.915,10.491,2.074l-2.074,7.442c-1.585-0.792-4.574-1.952-8.539-1.952c-4.024,0-5.978,1.891-5.978,3.964
				c0,2.624,2.257,3.782,7.624,5.856c7.258,2.686,10.614,6.466,10.614,12.322c0,6.892-5.246,12.748-16.53,12.748
				c-4.696,0-9.332-1.28-11.65-2.563L209.275,138.359z"/>
			<path fill="#FFFFFF" d="M263.989,147.143c-1.647,0.793-4.758,1.403-8.296,1.403c-9.637,0-15.797-5.916-15.797-15.31
				c0-8.724,5.977-15.861,17.078-15.861c2.438,0,5.123,0.427,7.074,1.159l-1.464,6.893c-1.098-0.488-2.745-0.915-5.184-0.915
				c-4.881,0-8.054,3.478-7.992,8.357c0,5.489,3.661,8.417,8.173,8.417c2.196,0,3.904-0.365,5.307-0.977L263.989,147.143z"/>
			<path fill="#FFFFFF" d="M273.688,114.145c-3.11,0-5.123-2.196-5.123-4.941c0-2.805,2.073-4.94,5.245-4.94
				c3.173,0,5.124,2.135,5.186,4.94c0,2.746-2.013,4.941-5.246,4.941H273.688z M269.113,147.874v-29.827h9.271v29.827H269.113z"/>
			<path fill="#FFFFFF" d="M292.962,135.857c0.304,3.904,4.086,5.733,8.417,5.733c3.172,0,5.734-0.427,8.234-1.28l1.22,6.281
				c-3.049,1.281-6.77,1.891-10.795,1.891c-10.125,0-15.92-5.854-15.92-15.248c0-7.563,4.757-15.921,15.065-15.921
				c9.638,0,13.297,7.503,13.297,14.886c0,1.586-0.184,2.986-0.305,3.72L292.962,135.857z M303.88,129.518
				c0-2.197-0.976-6.041-5.184-6.041c-3.965,0-5.55,3.599-5.795,6.041H303.88z"/>
			<path fill="#FFFFFF" d="M318.033,127.563c0-3.721-0.122-6.832-0.244-9.515h8.051l0.426,4.146h0.185
				c1.22-1.952,4.209-4.818,9.209-4.818c6.1,0,10.675,4.087,10.675,12.872v17.627h-9.272v-16.528c0-3.844-1.341-6.467-4.695-6.467
				c-2.563,0-4.087,1.77-4.757,3.477c-0.245,0.609-0.306,1.465-0.306,2.318v17.2h-9.271V127.563L318.033,127.563z"/>
			<path fill="#FFFFFF" d="M376.164,147.143c-1.647,0.793-4.758,1.403-8.296,1.403c-9.636,0-15.797-5.916-15.797-15.31
				c0-8.724,5.978-15.861,17.079-15.861c2.438,0,5.123,0.427,7.074,1.159l-1.464,6.893c-1.098-0.488-2.745-0.915-5.184-0.915
				c-4.88,0-8.052,3.478-7.991,8.357c0,5.489,3.661,8.417,8.173,8.417c2.196,0,3.904-0.365,5.308-0.977L376.164,147.143z"/>
			<path fill="#FFFFFF" d="M387.755,135.857c0.304,3.904,4.086,5.733,8.417,5.733c3.171,0,5.733-0.427,8.233-1.28l1.22,6.281
				c-3.048,1.281-6.771,1.891-10.794,1.891c-10.126,0-15.921-5.854-15.921-15.248c0-7.563,4.757-15.921,15.064-15.921
				c9.638,0,13.298,7.503,13.298,14.886c0,1.586-0.184,2.986-0.305,3.72L387.755,135.857z M398.673,129.518
				c0-2.197-0.977-6.041-5.186-6.041c-3.964,0-5.55,3.599-5.795,6.041H398.673z"/>
			<path fill="#FFFFFF" d="M412.764,139.824c1.708,1.035,5.247,2.195,7.991,2.195c2.808,0,3.965-0.916,3.965-2.438
				c0-1.587-0.916-2.317-4.331-3.478c-6.221-2.014-8.601-5.43-8.54-8.905c0-5.613,4.759-9.821,12.14-9.821
				c3.477,0,6.526,0.854,8.355,1.77l-1.587,6.343c-1.341-0.672-3.964-1.646-6.465-1.646c-2.257,0-3.537,0.914-3.537,2.378
				c0,1.465,1.159,2.195,4.818,3.478c5.671,1.891,7.99,4.819,8.052,9.147c0,5.611-4.332,9.698-12.87,9.698
				c-3.903,0-7.38-0.915-9.638-2.136L412.764,139.824z"/>
			<path fill="#FFFFFF" d="M451.925,107.374c3.416-0.61,7.868-0.914,12.504-0.914c7.868,0,12.992,1.28,16.896,4.27
				c4.271,3.172,6.954,8.295,6.954,15.616c0,7.867-2.867,13.297-6.771,16.649c-4.331,3.599-10.979,5.308-19.029,5.308
				c-4.819,0-8.297-0.305-10.553-0.609L451.925,107.374L451.925,107.374z M461.195,140.859c0.792,0.185,2.136,0.185,3.232,0.185
				c8.479,0.062,14.029-4.573,14.029-14.396c0-8.845-5.002-13.054-13.054-13.054c-2.014,0-3.416,0.184-4.209,0.366L461.195,140.859
				L461.195,140.859z"/>
			<path fill="#FFFFFF" d="M501.516,135.857c0.306,3.904,4.087,5.733,8.418,5.733c3.172,0,5.732-0.427,8.233-1.28l1.22,6.281
				c-3.05,1.281-6.771,1.891-10.796,1.891c-10.126,0-15.92-5.854-15.92-15.248c0-7.563,4.759-15.921,15.066-15.921
				c9.637,0,13.296,7.503,13.296,14.886c0,1.586-0.183,2.986-0.305,3.72L501.516,135.857z M512.434,129.518
				c0-2.197-0.976-6.041-5.185-6.041c-3.964,0-5.55,3.599-5.795,6.041H512.434z"/>
			<path fill="#FFFFFF" d="M526.524,139.824c1.706,1.035,5.245,2.195,7.99,2.195c2.807,0,3.964-0.916,3.964-2.438
				c0-1.587-0.914-2.317-4.33-3.478c-6.222-2.014-8.601-5.43-8.539-8.905c0-5.613,4.757-9.821,12.138-9.821
				c3.477,0,6.527,0.854,8.354,1.77l-1.585,6.343c-1.341-0.672-3.964-1.646-6.465-1.646c-2.258,0-3.538,0.914-3.538,2.378
				c0,1.465,1.159,2.195,4.818,3.478c5.672,1.891,7.99,4.819,8.053,9.147c0,5.611-4.333,9.698-12.87,9.698
				c-3.903,0-7.381-0.915-9.638-2.136L526.524,139.824z"/>
			<path fill="#FFFFFF" d="M575.443,147.143c-1.647,0.793-4.759,1.403-8.295,1.403c-9.64,0-15.8-5.916-15.8-15.31
				c0-8.724,5.979-15.861,17.079-15.861c2.439,0,5.123,0.427,7.075,1.159l-1.463,6.893c-1.099-0.488-2.747-0.915-5.187-0.915
				c-4.879,0-8.052,3.478-7.989,8.357c0,5.489,3.659,8.417,8.173,8.417c2.195,0,3.904-0.365,5.306-0.977L575.443,147.143z"/>
			<path fill="#FFFFFF" d="M580.629,127.869c0-4.393-0.061-7.26-0.243-9.822h7.93l0.365,5.551h0.245
				c1.524-4.393,5.123-6.222,8.052-6.222c0.853,0,1.281,0.062,1.951,0.183v8.723c-0.793-0.121-1.524-0.244-2.562-0.244
				c-3.416,0-5.733,1.771-6.345,4.696c-0.122,0.611-0.184,1.281-0.184,2.074v15.064h-9.271L580.629,127.869z"/>
			<path fill="#FFFFFF" d="M608.199,114.145c-3.109,0-5.123-2.196-5.123-4.941c0-2.805,2.074-4.94,5.246-4.94
				s5.123,2.135,5.184,4.94c0,2.746-2.012,4.941-5.244,4.941H608.199z M603.626,147.874v-29.827h9.271v29.827H603.626z"/>
			<path fill="#FFFFFF" d="M620.339,128.051c0-3.904-0.124-7.197-0.245-10.002h8.053l0.427,4.146h0.122
				c2.195-3.11,5.61-4.818,9.941-4.818c6.525,0,12.381,5.673,12.381,15.19c0,10.855-6.892,15.979-13.539,15.979
				c-3.601,0-6.405-1.464-7.746-3.415h-0.122v14.821h-9.271V128.051L620.339,128.051z M629.61,135.064
				c0,0.733,0.061,1.344,0.183,1.951c0.61,2.502,2.745,4.395,5.429,4.395c4.025,0,6.404-3.355,6.404-8.418
				c0-4.758-2.135-8.358-6.282-8.358c-2.624,0-4.939,1.954-5.55,4.699c-0.122,0.487-0.184,1.099-0.184,1.646V135.064L629.61,135.064
				z"/>
			<path fill="#FFFFFF" d="M667.184,109.936v8.112h6.648v6.83h-6.648v10.859c0,3.599,0.915,5.246,3.659,5.246
				c1.281,0,1.893-0.063,2.745-0.246l0.063,7.016c-1.16,0.428-3.416,0.793-5.979,0.793c-2.989,0-5.49-1.036-7.015-2.563
				c-1.708-1.77-2.563-4.635-2.563-8.844v-12.261h-3.966v-6.832h3.966v-5.611L667.184,109.936z"/>
			<path fill="#FFFFFF" d="M692.62,148.546c-8.722,0-15.433-5.733-15.433-15.37c0-9.639,6.345-15.799,15.979-15.799
				c9.09,0,15.188,6.282,15.188,15.311c0,10.856-7.747,15.858-15.677,15.858H692.62L692.62,148.546z M692.802,141.896
				c3.661,0,5.919-3.599,5.919-8.967c0-4.391-1.71-8.905-5.919-8.905c-4.391,0-6.098,4.515-6.098,8.967
				c0,5.063,2.135,8.905,6.037,8.905H692.802L692.802,141.896z"/>
			<path fill="#FFFFFF" d="M714.152,127.869c0-4.393-0.062-7.26-0.243-9.822h7.929l0.366,5.551h0.244
				c1.524-4.393,5.124-6.222,8.051-6.222c0.854,0,1.282,0.062,1.952,0.183v8.723c-0.793-0.121-1.525-0.244-2.563-0.244
				c-3.414,0-5.732,1.771-6.345,4.696c-0.121,0.611-0.182,1.281-0.182,2.074v15.064h-9.271L714.152,127.869z"/>
			<path fill="#FFFFFF" d="M737.21,139.824c1.707,1.035,5.246,2.195,7.991,2.195c2.806,0,3.964-0.916,3.964-2.438
				c0-1.587-0.916-2.317-4.33-3.478c-6.222-2.014-8.601-5.43-8.54-8.905c0-5.613,4.758-9.821,12.138-9.821
				c3.479,0,6.527,0.854,8.356,1.77l-1.586,6.343c-1.342-0.672-3.965-1.646-6.465-1.646c-2.258,0-3.538,0.914-3.538,2.378
				c0,1.465,1.159,2.195,4.817,3.478c5.673,1.891,7.99,4.819,8.053,9.147c0,5.611-4.332,9.698-12.869,9.698
				c-3.904,0-7.381-0.915-9.639-2.136L737.21,139.824z"/>
		</g>
	</g>
	<g enable-background="new    ">
		<path d="M226.434,223.089h-5.521v-18.609h-17.027v18.609h-5.521v-40.537h5.521v17.151h17.027v-17.151h5.521V223.089z"/>
		<path d="M245.416,196.416h-9.213v-4.467h14.671v26.643h9.273v4.497H235.18v-4.497h10.236V196.416z M247.307,178.892
			c0.6,0,1.158,0.109,1.676,0.326c0.516,0.217,0.966,0.522,1.349,0.915s0.683,0.843,0.899,1.349c0.217,0.508,0.326,1.061,0.326,1.66
			c0,0.579-0.109,1.127-0.326,1.644s-0.517,0.972-0.899,1.364c-0.383,0.394-0.833,0.698-1.349,0.915
			c-0.518,0.217-1.076,0.326-1.676,0.326s-1.158-0.109-1.674-0.326c-0.518-0.217-0.967-0.521-1.35-0.915
			c-0.383-0.393-0.682-0.848-0.899-1.364c-0.217-0.517-0.325-1.064-0.325-1.644c0-0.6,0.108-1.152,0.325-1.66
			c0.218-0.506,0.517-0.956,0.899-1.349s0.832-0.698,1.35-0.915C246.148,179.001,246.707,178.892,247.307,178.892z"/>
		<path d="M292.155,196.354c0.579,0.725,1.028,1.566,1.349,2.528c0.32,0.961,0.48,2,0.48,3.116c0,1.613-0.294,3.087-0.883,4.42
			c-0.59,1.334-1.422,2.477-2.497,3.428s-2.362,1.69-3.862,2.217c-1.498,0.527-3.147,0.791-4.946,0.791
			c-1.303,0-2.522-0.14-3.659-0.418c-1.139-0.279-2.037-0.626-2.699-1.039c-0.393,0.579-0.724,1.127-0.992,1.644
			c-0.27,0.517-0.403,1.096-0.403,1.736c0,0.786,0.377,1.438,1.132,1.954c0.755,0.518,1.753,0.797,2.993,0.838l8.188,0.31
			c1.551,0.042,2.982,0.238,4.295,0.59c1.313,0.352,2.439,0.858,3.381,1.52c0.941,0.662,1.676,1.479,2.202,2.45
			c0.527,0.972,0.791,2.099,0.791,3.381c0,1.385-0.3,2.698-0.899,3.938c-0.6,1.241-1.525,2.331-2.775,3.272
			c-1.252,0.94-2.838,1.69-4.762,2.249c-1.922,0.558-4.207,0.837-6.854,0.837c-2.523,0-4.668-0.201-6.436-0.604
			c-1.769-0.403-3.221-0.962-4.358-1.675c-1.138-0.714-1.964-1.562-2.481-2.544c-0.517-0.981-0.775-2.063-0.775-3.24
			c0-1.51,0.352-2.834,1.055-3.971s1.789-2.232,3.257-3.287c-0.538-0.248-1.003-0.559-1.396-0.931s-0.713-0.78-0.961-1.226
			c-0.249-0.444-0.436-0.914-0.559-1.411c-0.125-0.496-0.187-0.981-0.187-1.457c0-1.344,0.315-2.574,0.946-3.691
			c0.631-1.116,1.38-2.171,2.248-3.163c-0.393-0.476-0.739-0.94-1.039-1.396s-0.559-0.946-0.775-1.474s-0.383-1.096-0.496-1.706
			c-0.113-0.609-0.17-1.308-0.17-2.093c0-1.613,0.294-3.087,0.883-4.42c0.59-1.334,1.416-2.477,2.482-3.428
			c1.064-0.95,2.346-1.69,3.846-2.217c1.498-0.527,3.158-0.791,4.978-0.791c0.765,0,1.499,0.052,2.202,0.154
			c0.703,0.104,1.322,0.238,1.861,0.403h11.289v4.404H292.155z M273.422,227.586c0,1.468,0.765,2.538,2.295,3.21
			s3.66,1.008,6.389,1.008c1.717,0,3.158-0.154,4.327-0.465c1.168-0.311,2.109-0.719,2.822-1.225
			c0.714-0.508,1.226-1.086,1.536-1.737c0.31-0.651,0.465-1.318,0.465-2c0-1.262-0.518-2.192-1.551-2.792
			c-1.034-0.6-2.616-0.95-4.746-1.055l-8.125-0.279c-0.683,0.455-1.246,0.9-1.691,1.334c-0.444,0.435-0.791,0.873-1.039,1.318
			c-0.248,0.444-0.424,0.889-0.527,1.334C273.473,226.682,273.422,227.131,273.422,227.586z M275.065,202.122
			c0,0.993,0.165,1.903,0.497,2.729c0.33,0.827,0.795,1.53,1.395,2.109s1.309,1.029,2.125,1.35s1.721,0.48,2.714,0.48
			c1.075,0,2.032-0.181,2.869-0.543c0.837-0.361,1.54-0.853,2.108-1.474c0.568-0.62,1.003-1.333,1.303-2.14s0.45-1.644,0.45-2.513
			c0-0.992-0.166-1.901-0.497-2.729c-0.33-0.827-0.795-1.53-1.395-2.109c-0.601-0.579-1.309-1.028-2.125-1.35
			c-0.816-0.32-1.721-0.48-2.714-0.48c-1.075,0-2.031,0.187-2.868,0.559c-0.838,0.372-1.541,0.863-2.109,1.473
			c-0.569,0.61-1.004,1.318-1.303,2.125C275.215,200.417,275.065,201.254,275.065,202.122z"/>
		<path d="M329.684,223.089h-5.396v-19.881c0-2.398-0.449-4.191-1.35-5.381c-0.898-1.189-2.186-1.783-3.861-1.783
			c-0.724,0-1.4,0.098-2.031,0.294c-0.631,0.197-1.287,0.538-1.969,1.023c-0.684,0.486-1.428,1.144-2.234,1.97
			c-0.806,0.827-1.736,1.861-2.791,3.102v20.656h-5.396v-43.824h5.396v12.685l-0.186,4.9c0.848-1.013,1.68-1.865,2.496-2.559
			c0.816-0.692,1.633-1.256,2.451-1.69c0.816-0.434,1.648-0.744,2.496-0.931c0.848-0.186,1.727-0.278,2.637-0.278
			c3.102,0,5.5,0.945,7.195,2.838c1.695,1.892,2.543,4.74,2.543,8.544V223.089z"/>
		<path d="M350.186,183.699h-9.213v-4.435h14.672v39.327h9.273v4.497h-24.969v-4.497h10.236V183.699z"/>
		<path d="M385.107,196.416h-9.211v-4.467h14.67v26.643h9.273v4.497h-24.967v-4.497h10.234V196.416z M387,178.892
			c0.6,0,1.158,0.109,1.676,0.326c0.516,0.217,0.965,0.522,1.348,0.915s0.684,0.843,0.9,1.349c0.217,0.508,0.326,1.061,0.326,1.66
			c0,0.579-0.109,1.127-0.326,1.644s-0.518,0.972-0.9,1.364c-0.383,0.394-0.832,0.698-1.348,0.915
			c-0.518,0.217-1.076,0.326-1.676,0.326s-1.158-0.109-1.674-0.326c-0.518-0.217-0.967-0.521-1.35-0.915
			c-0.383-0.393-0.684-0.848-0.9-1.364s-0.324-1.064-0.324-1.644c0-0.6,0.107-1.152,0.324-1.66c0.217-0.506,0.518-0.956,0.9-1.349
			s0.832-0.698,1.35-0.915C385.842,179.001,386.4,178.892,387,178.892z"/>
		<path d="M431.848,196.354c0.578,0.725,1.029,1.566,1.35,2.528c0.32,0.961,0.48,2,0.48,3.116c0,1.613-0.295,3.087-0.885,4.42
			c-0.588,1.334-1.422,2.477-2.496,3.428s-2.361,1.69-3.861,2.217c-1.5,0.527-3.148,0.791-4.947,0.791
			c-1.303,0-2.521-0.14-3.66-0.418c-1.137-0.279-2.035-0.626-2.697-1.039c-0.393,0.579-0.725,1.127-0.992,1.644
			c-0.27,0.517-0.404,1.096-0.404,1.736c0,0.786,0.377,1.438,1.133,1.954c0.754,0.518,1.752,0.797,2.992,0.838l8.189,0.31
			c1.551,0.042,2.982,0.238,4.295,0.59s2.439,0.858,3.381,1.52c0.939,0.662,1.674,1.479,2.201,2.45s0.791,2.099,0.791,3.381
			c0,1.385-0.299,2.698-0.898,3.938c-0.6,1.241-1.525,2.331-2.775,3.272c-1.252,0.94-2.838,1.69-4.762,2.249
			c-1.924,0.558-4.207,0.837-6.854,0.837c-2.523,0-4.668-0.201-6.438-0.604c-1.768-0.403-3.221-0.962-4.357-1.675
			c-1.137-0.714-1.965-1.562-2.48-2.544c-0.518-0.981-0.775-2.063-0.775-3.24c0-1.51,0.352-2.834,1.055-3.971
			s1.787-2.232,3.256-3.287c-0.537-0.248-1.002-0.559-1.395-0.931c-0.395-0.372-0.715-0.78-0.963-1.226
			c-0.248-0.444-0.434-0.914-0.557-1.411c-0.125-0.496-0.188-0.981-0.188-1.457c0-1.344,0.316-2.574,0.947-3.691
			c0.629-1.116,1.379-2.171,2.248-3.163c-0.393-0.476-0.74-0.94-1.039-1.396c-0.301-0.455-0.559-0.946-0.775-1.474
			s-0.383-1.096-0.496-1.706c-0.113-0.609-0.17-1.308-0.17-2.093c0-1.613,0.293-3.087,0.883-4.42c0.59-1.334,1.416-2.477,2.48-3.428
			c1.066-0.95,2.348-1.69,3.848-2.217c1.498-0.527,3.158-0.791,4.977-0.791c0.766,0,1.5,0.052,2.203,0.154
			c0.703,0.104,1.322,0.238,1.861,0.403h11.289v4.404H431.848z M413.115,227.586c0,1.468,0.764,2.538,2.295,3.21
			c1.529,0.672,3.66,1.008,6.389,1.008c1.717,0,3.158-0.154,4.326-0.465s2.109-0.719,2.822-1.225
			c0.715-0.508,1.227-1.086,1.535-1.737c0.311-0.651,0.467-1.318,0.467-2c0-1.262-0.518-2.192-1.551-2.792
			c-1.035-0.6-2.617-0.95-4.746-1.055l-8.125-0.279c-0.684,0.455-1.246,0.9-1.691,1.334c-0.445,0.435-0.791,0.873-1.039,1.318
			c-0.248,0.444-0.424,0.889-0.527,1.334C413.166,226.682,413.115,227.131,413.115,227.586z M414.758,202.122
			c0,0.993,0.166,1.903,0.496,2.729c0.332,0.827,0.797,1.53,1.396,2.109s1.307,1.029,2.125,1.35c0.816,0.32,1.721,0.48,2.713,0.48
			c1.076,0,2.031-0.181,2.869-0.543c0.838-0.361,1.541-0.853,2.109-1.474c0.568-0.62,1.002-1.333,1.303-2.14
			c0.299-0.807,0.449-1.644,0.449-2.513c0-0.992-0.166-1.901-0.496-2.729s-0.797-1.53-1.395-2.109
			c-0.602-0.579-1.309-1.028-2.125-1.35c-0.818-0.32-1.723-0.48-2.715-0.48c-1.074,0-2.031,0.187-2.869,0.559
			c-0.836,0.372-1.539,0.863-2.107,1.473c-0.57,0.61-1.004,1.318-1.303,2.125C414.908,200.417,414.758,201.254,414.758,202.122z"/>
		<path d="M469.377,223.089h-5.396v-19.881c0-2.398-0.449-4.191-1.35-5.381c-0.898-1.189-2.186-1.783-3.861-1.783
			c-0.725,0-1.4,0.098-2.031,0.294c-0.631,0.197-1.287,0.538-1.969,1.023c-0.684,0.486-1.428,1.144-2.234,1.97
			c-0.807,0.827-1.736,1.861-2.791,3.102v20.656h-5.396v-43.824h5.396v12.685l-0.186,4.9c0.848-1.013,1.68-1.865,2.496-2.559
			c0.816-0.692,1.633-1.256,2.451-1.69c0.816-0.434,1.648-0.744,2.496-0.931c0.848-0.186,1.727-0.278,2.637-0.278
			c3.102,0,5.5,0.945,7.195,2.838c1.695,1.892,2.543,4.74,2.543,8.544V223.089z"/>
		<path d="M504.361,222.654c-1.219,0.311-2.48,0.532-3.783,0.667s-2.627,0.202-3.971,0.202c-3.908,0-6.822-0.885-8.746-2.652
			c-1.922-1.768-2.885-4.481-2.885-8.142v-16.252h-8.715v-4.528h8.715v-8.56l5.396-1.396v9.956h13.988v4.528h-13.988v15.818
			c0,2.232,0.596,3.902,1.785,5.009c1.188,1.106,2.939,1.659,5.256,1.659c0.992,0,2.078-0.077,3.258-0.232
			c1.178-0.155,2.408-0.398,3.689-0.729V222.654z"/>
		<path d="M540.494,205.875c0,0.766-0.01,1.406-0.031,1.923c-0.02,0.518-0.051,1.004-0.092,1.458h-21.867
			c0,3.185,0.889,5.63,2.668,7.335c1.777,1.706,4.342,2.56,7.691,2.56c0.91,0,1.82-0.036,2.73-0.109
			c0.908-0.072,1.787-0.17,2.635-0.294s1.66-0.264,2.436-0.419s1.494-0.326,2.156-0.512v4.435c-1.469,0.414-3.129,0.75-4.979,1.009
			c-1.852,0.258-3.77,0.388-5.754,0.388c-2.666,0-4.963-0.362-6.885-1.086c-1.924-0.724-3.5-1.772-4.73-3.148
			c-1.23-1.374-2.141-3.06-2.729-5.055c-0.59-1.995-0.885-4.254-0.885-6.777c0-2.191,0.314-4.265,0.947-6.219
			c0.629-1.953,1.551-3.67,2.76-5.148c1.209-1.478,2.693-2.651,4.451-3.52c1.756-0.869,3.752-1.303,5.984-1.303
			c2.172,0,4.096,0.341,5.77,1.023c1.676,0.682,3.086,1.648,4.234,2.899c1.146,1.252,2.016,2.771,2.605,4.56
			C540.199,201.663,540.494,203.663,540.494,205.875z M534.881,205.1c0.063-1.385-0.072-2.651-0.404-3.799
			c-0.33-1.147-0.842-2.135-1.535-2.962c-0.691-0.827-1.555-1.474-2.59-1.938c-1.033-0.466-2.232-0.698-3.598-0.698
			c-1.178,0-2.254,0.228-3.225,0.683c-0.973,0.455-1.811,1.096-2.512,1.923c-0.703,0.827-1.271,1.819-1.707,2.978
			c-0.434,1.158-0.703,2.43-0.807,3.814H534.881z"/>
		<path d="M550.389,191.949h4.932l0.154,5.738c1.842-2.213,3.654-3.815,5.443-4.808s3.594-1.488,5.412-1.488
			c3.227,0,5.672,1.044,7.336,3.132c1.664,2.089,2.434,5.19,2.311,9.305h-5.459c0.063-2.729-0.336-4.709-1.193-5.939
			c-0.859-1.229-2.115-1.845-3.77-1.845c-0.723,0-1.453,0.129-2.186,0.388c-0.734,0.259-1.488,0.672-2.264,1.24
			c-0.775,0.569-1.598,1.298-2.467,2.187c-0.869,0.89-1.799,1.965-2.791,3.226v20.005h-5.459V191.949z"/>
	</g>
</g>
</svg>
