<?xml version="1.0" encoding="utf-8"?>
<!-- Generator: Adobe Illustrator 14.0.0, SVG Export Plug-In . SVG Version: 6.00 Build 43363)  -->
<!DOCTYPE svg PUBLIC "-//W3C//DTD SVG 1.1//EN" "http://www.w3.org/Graphics/SVG/1.1/DTD/svg11.dtd">
<svg version="1.1" id="Camada_1" xmlns="http://www.w3.org/2000/svg" xmlns:xlink="http://www.w3.org/1999/xlink" x="0px" y="0px"
	 width="774px" height="250px" viewBox="0 0 774 250" enable-background="new 0 0 774 250" xml:space="preserve">
<g>
	<rect x="180.907" y="169.501" fill="#FFFF00" width="412.186" height="74.347"/>
	<g enable-background="new    ">
		<path d="M226.434,223.089h-5.521V204.48h-17.027v18.607h-5.521v-40.537h5.521v17.151h17.027v-17.151h5.521V223.089z"/>
		<path d="M245.416,196.416h-9.213v-4.467h14.671v26.643h9.272v4.497H235.18v-4.497h10.236V196.416L245.416,196.416z
			 M247.307,178.893c0.601,0,1.158,0.108,1.677,0.325c0.516,0.218,0.966,0.522,1.349,0.915s0.683,0.844,0.899,1.35
			c0.217,0.509,0.325,1.062,0.325,1.66c0,0.578-0.108,1.127-0.325,1.645c-0.218,0.518-0.518,0.972-0.899,1.363
			c-0.383,0.395-0.833,0.697-1.349,0.914c-0.519,0.219-1.076,0.326-1.677,0.326c-0.6,0-1.157-0.107-1.674-0.326
			c-0.518-0.217-0.967-0.521-1.35-0.914c-0.383-0.393-0.683-0.849-0.899-1.363c-0.217-0.518-0.325-1.063-0.325-1.645
			c0-0.601,0.108-1.151,0.325-1.66c0.218-0.506,0.518-0.957,0.899-1.35c0.381-0.393,0.832-0.697,1.35-0.915
			C246.148,179.001,246.707,178.893,247.307,178.893z"/>
		<path d="M292.155,196.354c0.579,0.727,1.027,1.566,1.349,2.528c0.32,0.961,0.48,2,0.48,3.116c0,1.613-0.294,3.087-0.884,4.42
			c-0.59,1.334-1.422,2.477-2.497,3.428c-1.074,0.951-2.361,1.69-3.861,2.217c-1.498,0.527-3.147,0.791-4.946,0.791
			c-1.303,0-2.521-0.14-3.659-0.418c-1.139-0.277-2.037-0.625-2.699-1.039c-0.393,0.58-0.724,1.127-0.991,1.646
			c-0.271,0.519-0.403,1.097-0.403,1.735c0,0.785,0.377,1.438,1.132,1.953c0.755,0.52,1.753,0.797,2.993,0.838l8.188,0.312
			c1.552,0.042,2.982,0.238,4.296,0.59c1.313,0.353,2.438,0.858,3.381,1.521c0.94,0.662,1.676,1.479,2.202,2.451
			c0.526,0.972,0.791,2.099,0.791,3.381c0,1.385-0.301,2.697-0.899,3.938c-0.6,1.241-1.525,2.331-2.775,3.271
			c-1.252,0.939-2.838,1.689-4.762,2.25c-1.922,0.558-4.207,0.837-6.854,0.837c-2.523,0-4.668-0.201-6.437-0.604
			c-1.769-0.402-3.221-0.962-4.357-1.675c-1.139-0.714-1.965-1.562-2.481-2.544c-0.517-0.98-0.775-2.063-0.775-3.24
			c0-1.51,0.353-2.834,1.056-3.971c0.703-1.137,1.789-2.232,3.257-3.287c-0.538-0.248-1.003-0.559-1.396-0.932
			c-0.393-0.371-0.713-0.779-0.961-1.227c-0.249-0.443-0.436-0.912-0.559-1.41c-0.125-0.496-0.188-0.98-0.188-1.457
			c0-1.345,0.315-2.574,0.946-3.69c0.631-1.116,1.38-2.171,2.248-3.163c-0.393-0.477-0.739-0.939-1.039-1.396
			c-0.3-0.455-0.559-0.944-0.774-1.474c-0.217-0.528-0.384-1.096-0.496-1.706c-0.113-0.609-0.17-1.308-0.17-2.093
			c0-1.613,0.294-3.087,0.883-4.42c0.59-1.334,1.416-2.478,2.481-3.429c1.064-0.949,2.347-1.689,3.847-2.217
			c1.498-0.527,3.157-0.791,4.978-0.791c0.765,0,1.499,0.053,2.202,0.153c0.703,0.104,1.322,0.238,1.861,0.403h11.289v4.402h-4.994
			v0.002H292.155z M273.422,227.586c0,1.469,0.766,2.538,2.295,3.21c1.53,0.672,3.66,1.009,6.39,1.009
			c1.717,0,3.157-0.154,4.326-0.466c1.168-0.312,2.109-0.719,2.822-1.225c0.714-0.509,1.227-1.087,1.536-1.737s0.465-1.318,0.465-2
			c0-1.262-0.518-2.191-1.551-2.792c-1.034-0.601-2.616-0.95-4.746-1.056l-8.125-0.278c-0.683,0.455-1.246,0.899-1.691,1.334
			c-0.443,0.435-0.791,0.873-1.039,1.317c-0.247,0.445-0.424,0.89-0.526,1.334C273.473,226.682,273.422,227.131,273.422,227.586z
			 M275.065,202.122c0,0.993,0.165,1.903,0.497,2.729c0.329,0.825,0.795,1.528,1.395,2.107s1.309,1.029,2.125,1.352
			c0.816,0.319,1.721,0.479,2.714,0.479c1.075,0,2.032-0.182,2.869-0.543s1.54-0.854,2.108-1.475
			c0.567-0.621,1.003-1.334,1.303-2.141c0.3-0.807,0.45-1.645,0.45-2.513c0-0.992-0.166-1.901-0.497-2.729
			c-0.33-0.826-0.795-1.529-1.396-2.107c-0.601-0.579-1.309-1.028-2.125-1.352c-0.815-0.32-1.721-0.479-2.714-0.479
			c-1.075,0-2.031,0.188-2.868,0.559c-0.838,0.372-1.541,0.863-2.108,1.475c-0.569,0.608-1.004,1.316-1.304,2.125
			C275.214,200.417,275.065,201.254,275.065,202.122z"/>
		<path d="M329.684,223.089h-5.396v-19.881c0-2.397-0.449-4.19-1.352-5.381c-0.896-1.188-2.186-1.783-3.859-1.783
			c-0.726,0-1.4,0.099-2.031,0.294c-0.631,0.197-1.287,0.538-1.969,1.023c-0.686,0.486-1.428,1.144-2.234,1.97
			c-0.806,0.827-1.734,1.86-2.791,3.103v20.655h-5.396v-43.823h5.396v12.686l-0.186,4.898c0.848-1.013,1.68-1.865,2.496-2.559
			c0.814-0.691,1.633-1.256,2.45-1.689c0.815-0.435,1.647-0.744,2.495-0.932c0.85-0.186,1.729-0.277,2.639-0.277
			c3.102,0,5.5,0.944,7.193,2.838c1.695,1.893,2.543,4.74,2.543,8.543L329.684,223.089L329.684,223.089z"/>
		<path d="M350.186,183.699h-9.213v-4.436h14.672v39.326h9.273v4.497h-24.969v-4.497h10.234L350.186,183.699L350.186,183.699z"/>
		<path d="M385.107,196.416h-9.211v-4.467h14.67v26.643h9.271v4.497h-24.967v-4.497h10.234L385.107,196.416L385.107,196.416z
			 M387,178.893c0.6,0,1.158,0.108,1.676,0.325c0.518,0.218,0.965,0.522,1.35,0.915c0.383,0.393,0.684,0.844,0.898,1.35
			c0.217,0.509,0.326,1.062,0.326,1.66c0,0.578-0.109,1.127-0.326,1.645s-0.518,0.972-0.898,1.363
			c-0.385,0.395-0.832,0.697-1.35,0.914c-0.518,0.219-1.076,0.326-1.676,0.326s-1.158-0.107-1.674-0.326
			c-0.52-0.217-0.967-0.521-1.352-0.914c-0.383-0.394-0.684-0.849-0.898-1.363c-0.216-0.518-0.324-1.063-0.324-1.645
			c0-0.601,0.107-1.151,0.324-1.66c0.217-0.506,0.518-0.957,0.898-1.35c0.384-0.393,0.832-0.697,1.352-0.915
			C385.842,179.001,386.4,178.893,387,178.893z"/>
		<path d="M431.848,196.354c0.578,0.727,1.029,1.566,1.352,2.528c0.318,0.961,0.479,2,0.479,3.116c0,1.613-0.295,3.087-0.885,4.42
			c-0.588,1.334-1.422,2.477-2.496,3.428s-2.361,1.69-3.861,2.217c-1.5,0.527-3.146,0.791-4.945,0.791
			c-1.305,0-2.521-0.14-3.66-0.418c-1.137-0.277-2.035-0.625-2.697-1.039c-0.393,0.58-0.725,1.127-0.992,1.646
			c-0.27,0.519-0.402,1.097-0.402,1.735c0,0.785,0.377,1.438,1.133,1.953c0.754,0.52,1.752,0.797,2.992,0.838l8.188,0.312
			c1.551,0.042,2.982,0.238,4.295,0.59c1.313,0.353,2.439,0.858,3.381,1.521c0.939,0.662,1.676,1.479,2.201,2.451
			c0.527,0.971,0.791,2.099,0.791,3.381c0,1.385-0.299,2.697-0.896,3.938c-0.602,1.241-1.525,2.331-2.775,3.271
			c-1.252,0.939-2.838,1.689-4.762,2.25c-1.924,0.558-4.207,0.837-6.854,0.837c-2.521,0-4.668-0.201-6.438-0.604
			c-1.77-0.402-3.222-0.962-4.357-1.675c-1.137-0.714-1.965-1.562-2.479-2.544c-0.52-0.98-0.775-2.063-0.775-3.24
			c0-1.51,0.353-2.834,1.055-3.971c0.703-1.137,1.787-2.232,3.257-3.287c-0.536-0.248-1.002-0.559-1.396-0.932
			c-0.396-0.371-0.715-0.779-0.963-1.227c-0.248-0.443-0.435-0.912-0.558-1.41c-0.125-0.496-0.188-0.98-0.188-1.457
			c0-1.345,0.315-2.574,0.947-3.69c0.629-1.116,1.379-2.171,2.248-3.163c-0.395-0.477-0.74-0.939-1.039-1.396
			c-0.302-0.455-0.561-0.944-0.775-1.474c-0.215-0.528-0.383-1.096-0.496-1.706c-0.111-0.609-0.17-1.308-0.17-2.093
			c0-1.613,0.293-3.087,0.883-4.42c0.592-1.334,1.416-2.478,2.48-3.429c1.065-0.949,2.348-1.689,3.848-2.217
			c1.498-0.527,3.158-0.791,4.979-0.791c0.766,0,1.5,0.053,2.203,0.153c0.702,0.104,1.32,0.238,1.859,0.403h11.289v4.402h-4.995
			v0.002H431.848z M413.115,227.586c0,1.469,0.764,2.538,2.295,3.21c1.529,0.672,3.66,1.009,6.389,1.009
			c1.717,0,3.158-0.154,4.326-0.466s2.109-0.719,2.822-1.225c0.715-0.509,1.227-1.087,1.535-1.737c0.311-0.65,0.467-1.318,0.467-2
			c0-1.262-0.52-2.191-1.553-2.792s-2.615-0.95-4.744-1.056l-8.125-0.278c-0.686,0.455-1.246,0.899-1.691,1.334
			s-0.791,0.873-1.039,1.317c-0.248,0.445-0.424,0.89-0.527,1.334C413.166,226.682,413.115,227.131,413.115,227.586z
			 M414.758,202.122c0,0.993,0.166,1.903,0.496,2.729c0.332,0.825,0.797,1.528,1.396,2.107c0.599,0.579,1.307,1.029,2.125,1.352
			c0.814,0.318,1.721,0.479,2.713,0.479c1.076,0,2.029-0.182,2.869-0.543c0.838-0.361,1.541-0.854,2.107-1.475
			c0.568-0.621,1.002-1.334,1.303-2.141s0.449-1.645,0.449-2.513c0-0.992-0.166-1.901-0.496-2.729s-0.797-1.529-1.395-2.107
			c-0.604-0.579-1.311-1.028-2.125-1.352c-0.818-0.32-1.725-0.479-2.715-0.479c-1.074,0-2.031,0.188-2.869,0.559
			c-0.836,0.372-1.539,0.863-2.107,1.475c-0.568,0.608-1.004,1.316-1.303,2.125C414.908,200.417,414.758,201.254,414.758,202.122z"
			/>
		<path d="M469.377,223.089h-5.396v-19.881c0-2.397-0.449-4.19-1.352-5.381c-0.896-1.188-2.186-1.783-3.86-1.783
			c-0.726,0-1.399,0.099-2.03,0.294c-0.631,0.197-1.287,0.538-1.97,1.023c-0.685,0.486-1.429,1.144-2.233,1.97
			c-0.808,0.827-1.736,1.86-2.791,3.103v20.655h-5.396v-43.823h5.396v12.686l-0.188,4.898c0.85-1.013,1.682-1.865,2.496-2.559
			c0.816-0.691,1.634-1.256,2.451-1.689c0.816-0.435,1.648-0.744,2.496-0.932c0.848-0.186,1.728-0.277,2.637-0.277
			c3.104,0,5.5,0.944,7.195,2.838c1.695,1.893,2.543,4.74,2.543,8.543L469.377,223.089L469.377,223.089z"/>
		<path d="M504.361,222.654c-1.221,0.311-2.48,0.531-3.783,0.666c-1.303,0.136-2.627,0.203-3.971,0.203
			c-3.908,0-6.822-0.885-8.746-2.652c-1.922-1.768-2.887-4.48-2.887-8.143v-16.252h-8.715v-4.527h8.715v-8.561l5.396-1.396v9.956
			h13.988v4.526h-13.988v15.818c0,2.232,0.596,3.902,1.785,5.01c1.188,1.105,2.938,1.658,5.256,1.658
			c0.992,0,2.078-0.076,3.258-0.232c1.178-0.153,2.408-0.396,3.689-0.729L504.361,222.654L504.361,222.654z"/>
		<path d="M540.494,205.875c0,0.766-0.01,1.406-0.031,1.923c-0.02,0.519-0.051,1.004-0.092,1.458h-21.867
			c0,3.186,0.889,5.63,2.668,7.335c1.777,1.706,4.342,2.56,7.691,2.56c0.91,0,1.818-0.034,2.729-0.107
			c0.908-0.07,1.787-0.17,2.637-0.294c0.848-0.124,1.658-0.265,2.436-0.419c0.777-0.155,1.494-0.326,2.156-0.514v4.437
			c-1.471,0.414-3.129,0.75-4.979,1.009c-1.852,0.26-3.77,0.389-5.754,0.389c-2.666,0-4.963-0.361-6.885-1.086
			c-1.924-0.725-3.5-1.771-4.73-3.147c-1.229-1.374-2.141-3.06-2.729-5.056c-0.59-1.994-0.885-4.254-0.885-6.776
			c0-2.19,0.313-4.265,0.945-6.219c0.629-1.953,1.552-3.671,2.761-5.148c1.209-1.477,2.692-2.651,4.45-3.52
			c1.756-0.869,3.752-1.304,5.984-1.304c2.172,0,4.096,0.342,5.77,1.022c1.678,0.683,3.087,1.647,4.234,2.897
			c1.146,1.252,2.016,2.771,2.605,4.562C540.199,201.663,540.494,203.663,540.494,205.875z M534.881,205.1
			c0.063-1.385-0.072-2.649-0.404-3.799c-0.33-1.146-0.842-2.135-1.533-2.962s-1.557-1.474-2.592-1.938
			c-1.031-0.465-2.23-0.696-3.598-0.696c-1.178,0-2.254,0.229-3.225,0.683c-0.975,0.455-1.813,1.098-2.514,1.924
			s-1.271,1.818-1.707,2.979c-0.434,1.158-0.701,2.43-0.807,3.814h16.378L534.881,205.1L534.881,205.1z"/>
		<path d="M550.389,191.949h4.934l0.152,5.738c1.844-2.213,3.654-3.815,5.443-4.81c1.789-0.992,3.594-1.487,5.412-1.487
			c3.227,0,5.672,1.045,7.336,3.133s2.434,5.188,2.311,9.305h-5.459c0.063-2.729-0.336-4.709-1.191-5.939
			c-0.859-1.229-2.115-1.845-3.771-1.845c-0.723,0-1.453,0.129-2.186,0.388c-0.734,0.26-1.488,0.672-2.264,1.24
			c-0.775,0.569-1.6,1.299-2.469,2.188c-0.869,0.891-1.799,1.966-2.791,3.227v20.005h-5.459L550.389,191.949L550.389,191.949z"/>
	</g>
	<g>
		<g>
			<path fill="#FFFFFF" d="M12.84,118.808c2.647-0.426,6.101-0.709,9.695-0.709c6.102,0,10.073,1.135,13.101,3.405
				c3.311,2.461,5.392,6.385,5.392,12.013c0,6.101-2.223,10.31-5.249,12.91c-3.358,2.791-8.514,4.116-14.756,4.116
				c-3.736,0-6.432-0.237-8.181-0.473L12.84,118.808L12.84,118.808z M20.029,144.771c0.615,0.142,1.656,0.142,2.506,0.142
				c6.573,0.049,10.877-3.546,10.877-11.161c0-6.619-3.877-10.12-10.121-10.12c-1.561,0-2.648,0.142-3.263,0.284L20.029,144.771
				L20.029,144.771z"/>
			<path fill="#FFFFFF" d="M51.051,140.941c0.189,2.979,3.169,4.398,6.527,4.398c2.459,0,4.445-0.331,6.384-0.993l0.946,4.871
				c-2.365,0.994-5.249,1.467-8.371,1.467c-7.85,0-12.345-4.542-12.345-11.775c0-5.865,3.643-12.344,11.682-12.344
				c7.472,0,10.311,5.816,10.311,11.539c0,1.23-0.142,2.317-0.236,2.837H51.051z M59.518,136.022c0-1.75-0.756-4.683-4.067-4.683
				c-3.027,0-4.257,2.792-4.446,4.683H59.518z"/>
			<path fill="#FFFFFF" d="M70.442,143.967c1.323,0.805,4.067,1.703,6.195,1.703c2.176,0,3.074-0.709,3.074-1.891
				c0-1.23-0.709-1.797-3.357-2.697c-4.824-1.606-6.668-4.21-6.621-6.95c0-4.352,3.689-7.615,9.411-7.615
				c2.696,0,5.062,0.662,6.48,1.372l-1.229,4.965c-1.041-0.566-3.074-1.324-5.013-1.324c-1.75,0-2.743,0.708-2.743,1.844
				s0.898,1.702,3.736,2.696c4.397,1.514,6.195,3.783,6.242,7.142c0,4.352-3.358,7.52-9.979,7.52c-3.027,0-5.722-0.71-7.473-1.655
				L70.442,143.967z"/>
			<path fill="#FFFFFF" d="M108.37,149.596c-1.277,0.616-3.689,1.089-6.432,1.089c-7.472,0-12.25-4.589-12.25-11.823
				c0-6.764,4.635-12.296,13.242-12.296c1.892,0,3.973,0.33,5.486,0.896l-1.136,5.346c-0.851-0.379-2.128-0.71-4.02-0.71
				c-3.783,0-6.243,2.695-6.195,6.48c0,4.208,2.836,6.479,6.336,6.479c1.703,0,3.028-0.284,4.115-0.757L108.37,149.596z"/>
			<path fill="#FFFFFF" d="M112.341,134.698c0-3.404-0.048-5.626-0.189-7.613h6.148l0.284,4.255h0.189
				c1.183-3.402,3.973-4.822,6.243-4.822c0.661,0,0.993,0.048,1.513,0.141v6.766c-0.568-0.096-1.136-0.189-1.939-0.189
				c-2.648,0-4.445,1.418-4.918,3.64c-0.095,0.474-0.142,1.042-0.142,1.608v11.729h-7.188L112.341,134.698L112.341,134.698z"/>
			<path fill="#FFFFFF" d="M137.737,120.652c0,1.986-1.467,3.594-3.877,3.594c-2.271,0-3.737-1.608-3.737-3.594
				c0-2.035,1.514-3.594,3.831-3.594C136.27,117.058,137.689,118.619,137.737,120.652z M130.311,150.21v-23.126h7.188v23.126
				H130.311z"/>
			<path fill="#FFFFFF" d="M143.269,134.84c0-3.027-0.095-5.581-0.189-7.756h6.243l0.332,3.217h0.094
				c1.702-2.412,4.351-3.735,7.709-3.735c5.059,0,9.6,4.397,9.6,11.775c0,8.417-5.343,12.391-10.499,12.391
				c-2.79,0-4.965-1.136-6.006-2.649h-0.095v11.493h-7.188V134.84z M150.457,140.278c0,0.568,0.048,1.041,0.143,1.514
				c0.473,1.939,2.128,3.406,4.209,3.406c3.121,0,4.965-2.602,4.965-6.525c0-3.69-1.655-6.481-4.871-6.481
				c-2.034,0-3.831,1.514-4.303,3.643c-0.095,0.378-0.143,0.849-0.143,1.276V140.278z"/>
			<path fill="#FFFFFF" d="M179.588,120.842v6.242h5.154v5.298h-5.154v8.37c0,2.79,0.708,4.069,2.838,4.069
				c0.993,0,1.466-0.05,2.127-0.19l0.047,5.438c-0.897,0.332-2.648,0.615-4.634,0.615c-2.317,0-4.256-0.805-5.439-1.986
				c-1.324-1.372-1.986-3.596-1.986-6.858v-9.458h-3.074v-5.298h3.074v-4.304L179.588,120.842z"/>
			<path fill="#FFFFFF" d="M194.202,140.941c0.188,2.979,3.168,4.398,6.526,4.398c2.46,0,4.446-0.331,6.385-0.993l0.945,4.871
				c-2.364,0.994-5.249,1.467-8.371,1.467c-7.85,0-12.344-4.542-12.344-11.775c0-5.865,3.642-12.344,11.682-12.344
				c7.472,0,10.31,5.816,10.31,11.539c0,1.23-0.142,2.317-0.236,2.837H194.202z M202.667,136.022c0-1.75-0.757-4.683-4.068-4.683
				c-3.027,0-4.256,2.792-4.446,4.683H202.667z"/>
			<path fill="#FFFFFF" d="M235.44,142.785c0,3.026,0.095,5.486,0.189,7.425h-6.243l-0.331-3.265h-0.142
				c-0.898,1.422-3.074,3.786-7.236,3.786c-4.73,0-8.135-2.932-8.135-10.074v-13.573h7.188v12.438c0,3.358,1.088,5.391,3.642,5.391
				c1.986,0,3.169-1.371,3.595-2.507c0.189-0.424,0.284-0.944,0.284-1.559v-13.763h7.189L235.44,142.785L235.44,142.785z"/>
			<path fill="#FFFFFF" d="M241.209,134.698c0-3.404-0.048-5.626-0.189-7.613h6.148l0.283,4.255h0.189
				c1.183-3.402,3.973-4.822,6.243-4.822c0.662,0,0.993,0.048,1.513,0.141v6.766c-0.567-0.096-1.135-0.189-1.938-0.189
				c-2.648,0-4.447,1.418-4.919,3.64c-0.095,0.474-0.142,1.042-0.142,1.608v11.729h-7.188L241.209,134.698L241.209,134.698z"/>
			<path fill="#FFFFFF" d="M259.132,143.967c1.324,0.805,4.067,1.703,6.195,1.703c2.177,0,3.074-0.709,3.074-1.891
				c0-1.23-0.71-1.797-3.357-2.697c-4.824-1.606-6.668-4.21-6.621-6.95c0-4.352,3.688-7.615,9.412-7.615
				c2.696,0,5.061,0.662,6.479,1.372l-1.229,4.965c-1.04-0.566-3.073-1.324-5.013-1.324c-1.75,0-2.743,0.708-2.743,1.844
				s0.898,1.702,3.736,2.696c4.398,1.514,6.195,3.783,6.243,7.142c0,4.352-3.357,7.52-9.979,7.52c-3.027,0-5.722-0.71-7.472-1.655
				L259.132,143.967z"/>
			<path fill="#FFFFFF" d="M294.789,140.941c0.19,2.979,3.169,4.398,6.528,4.398c2.458,0,4.446-0.331,6.384-0.993l0.946,4.871
				c-2.364,0.994-5.25,1.467-8.372,1.467c-7.85,0-12.344-4.542-12.344-11.775c0-5.865,3.642-12.344,11.682-12.344
				c7.472,0,10.31,5.816,10.31,11.539c0,1.23-0.142,2.317-0.237,2.837H294.789z M303.255,136.022c0-1.75-0.756-4.683-4.068-4.683
				c-3.026,0-4.256,2.792-4.445,4.683H303.255z"/>
			<path fill="#FFFFFF" d="M314.227,134.462c0-2.885-0.095-5.299-0.189-7.378h6.243l0.331,3.217h0.142
				c0.947-1.514,3.264-3.735,7.142-3.735c4.73,0,8.277,3.168,8.277,9.979v13.668h-7.189v-12.818c0-2.98-1.041-5.012-3.641-5.012
				c-1.986,0-3.169,1.37-3.69,2.694c-0.188,0.473-0.236,1.136-0.236,1.797v13.339h-7.188V134.462L314.227,134.462z"/>
			<path fill="#FFFFFF" d="M351.965,142.785c1.891,0.994,4.918,1.986,7.992,1.986c3.311,0,5.062-1.372,5.062-3.452
				c0-1.984-1.513-3.121-5.344-4.446c-5.297-1.891-8.797-4.821-8.797-9.458c0-5.439,4.587-9.553,12.06-9.553
				c3.641,0,6.243,0.708,8.134,1.607l-1.608,5.77c-1.23-0.615-3.547-1.513-6.621-1.513c-3.122,0-4.635,1.466-4.635,3.075
				c0,2.033,1.749,2.931,5.911,4.493c5.628,2.081,8.229,5.013,8.229,9.505c0,5.344-4.067,9.885-12.816,9.885
				c-3.642,0-7.235-0.993-9.033-1.985L351.965,142.785z"/>
			<path fill="#FFFFFF" d="M394.717,149.596c-1.276,0.616-3.689,1.089-6.433,1.089c-7.471,0-12.249-4.589-12.249-11.823
				c0-6.764,4.634-12.296,13.242-12.296c1.892,0,3.973,0.33,5.486,0.896l-1.135,5.346c-0.852-0.379-2.129-0.71-4.021-0.71
				c-3.784,0-6.243,2.695-6.196,6.48c0,4.208,2.838,6.479,6.337,6.479c1.703,0,3.027-0.284,4.115-0.757L394.717,149.596z"/>
			<path fill="#FFFFFF" d="M406.114,120.652c0,1.986-1.467,3.594-3.879,3.594c-2.271,0-3.736-1.608-3.736-3.594
				c0-2.035,1.513-3.594,3.831-3.594C404.646,117.058,406.066,118.619,406.114,120.652z M398.688,150.21v-23.126h7.189v23.126
				H398.688z"/>
			<path fill="#FFFFFF" d="M417.179,140.941c0.188,2.979,3.169,4.398,6.526,4.398c2.459,0,4.446-0.331,6.385-0.993l0.945,4.871
				c-2.364,0.994-5.25,1.467-8.371,1.467c-7.852,0-12.345-4.542-12.345-11.775c0-5.865,3.643-12.344,11.683-12.344
				c7.472,0,10.31,5.816,10.31,11.539c0,1.23-0.144,2.317-0.237,2.837H417.179z M425.644,136.022c0-1.75-0.755-4.683-4.067-4.683
				c-3.026,0-4.255,2.792-4.444,4.683H425.644z"/>
			<path fill="#FFFFFF" d="M436.616,134.462c0-2.885-0.097-5.299-0.189-7.378h6.242l0.332,3.217h0.142
				c0.946-1.514,3.263-3.735,7.142-3.735c4.729,0,8.276,3.168,8.276,9.979v13.668h-7.188v-12.818c0-2.98-1.042-5.012-3.643-5.012
				c-1.987,0-3.17,1.37-3.689,2.694c-0.188,0.473-0.236,1.136-0.236,1.797v13.339h-7.188V134.462L436.616,134.462z"/>
			<path fill="#FFFFFF" d="M481.685,149.596c-1.275,0.616-3.688,1.089-6.432,1.089c-7.473,0-12.25-4.589-12.25-11.823
				c0-6.764,4.636-12.296,13.243-12.296c1.891,0,3.974,0.33,5.486,0.896l-1.135,5.346c-0.852-0.379-2.13-0.71-4.021-0.71
				c-3.783,0-6.242,2.695-6.196,6.48c0,4.208,2.838,6.479,6.34,6.479c1.7,0,3.025-0.284,4.114-0.757L481.685,149.596z"/>
			<path fill="#FFFFFF" d="M490.669,140.941c0.189,2.979,3.17,4.398,6.527,4.398c2.46,0,4.445-0.331,6.384-0.993l0.947,4.871
				c-2.365,0.994-5.25,1.467-8.373,1.467c-7.85,0-12.344-4.542-12.344-11.775c0-5.865,3.644-12.344,11.683-12.344
				c7.473,0,10.31,5.816,10.31,11.539c0,1.23-0.143,2.317-0.236,2.837H490.669z M499.135,136.022c0-1.75-0.756-4.683-4.066-4.683
				c-3.027,0-4.256,2.792-4.445,4.683H499.135z"/>
			<path fill="#FFFFFF" d="M510.06,143.967c1.326,0.805,4.068,1.703,6.197,1.703c2.175,0,3.073-0.709,3.073-1.891
				c0-1.23-0.71-1.797-3.357-2.697c-4.824-1.606-6.669-4.21-6.622-6.95c0-4.352,3.688-7.615,9.412-7.615
				c2.695,0,5.062,0.662,6.479,1.372l-1.229,4.965c-1.041-0.566-3.073-1.324-5.013-1.324c-1.75,0-2.742,0.708-2.742,1.844
				s0.897,1.702,3.734,2.696c4.398,1.514,6.197,3.783,6.242,7.142c0,4.352-3.356,7.52-9.979,7.52c-3.027,0-5.723-0.71-7.474-1.655
				L510.06,143.967z"/>
			<path fill="#FFFFFF" d="M562.602,116.632v26.672c0,2.602,0.094,5.346,0.189,6.905h-6.385l-0.285-3.357h-0.142
				c-1.42,2.555-4.257,3.879-7.237,3.879c-5.486,0-9.884-4.683-9.884-11.87c-0.048-7.805,4.824-12.345,10.358-12.345
				c2.885,0,5.06,1.041,6.102,2.602h0.094v-12.486H562.602z M555.412,136.873c0-0.376,0-0.896-0.095-1.324
				c-0.426-1.891-1.985-3.499-4.209-3.499c-3.311,0-4.966,2.932-4.966,6.574c0,3.925,1.938,6.385,4.917,6.385
				c2.082,0,3.784-1.42,4.21-3.452c0.094-0.521,0.143-1.089,0.143-1.656V136.873z"/>
			<path fill="#FFFFFF" d="M573.902,140.941c0.189,2.979,3.168,4.398,6.525,4.398c2.461,0,4.447-0.331,6.386-0.993l0.947,4.871
				c-2.365,0.994-5.251,1.467-8.373,1.467c-7.852,0-12.344-4.542-12.344-11.775c0-5.865,3.642-12.344,11.683-12.344
				c7.472,0,10.309,5.816,10.309,11.539c0,1.23-0.143,2.317-0.236,2.837H573.902z M582.368,136.022c0-1.75-0.755-4.683-4.066-4.683
				c-3.028,0-4.258,2.792-4.445,4.683H582.368z"/>
			<path fill="#FFFFFF" d="M602.893,116.632h7.188v33.58h-7.188V116.632z"/>
			<path fill="#FFFFFF" d="M635.146,144.631c0,2.175,0.095,4.304,0.378,5.581h-6.479l-0.426-2.317h-0.142
				c-1.515,1.844-3.879,2.837-6.621,2.837c-4.683,0-7.472-3.406-7.472-7.096c0-6.006,5.391-8.843,13.57-8.843v-0.284
				c0-1.276-0.66-3.027-4.209-3.027c-2.364,0-4.871,0.806-6.384,1.749l-1.325-4.634c1.608-0.898,4.776-2.08,8.986-2.08
				c7.708,0,10.121,4.538,10.121,10.025v8.089H635.146z M628.193,139.286c-3.784,0-6.716,0.898-6.716,3.64
				c0,1.845,1.229,2.744,2.838,2.744c1.748,0,3.262-1.182,3.735-2.648c0.095-0.377,0.143-0.804,0.143-1.23V139.286z"/>
			<path fill="#FFFFFF" d="M650.893,142.785c1.893,0.994,4.918,1.986,7.993,1.986c3.311,0,5.062-1.372,5.062-3.452
				c0-1.984-1.515-3.121-5.345-4.446c-5.298-1.891-8.796-4.821-8.796-9.458c0-5.439,4.587-9.553,12.06-9.553
				c3.641,0,6.243,0.708,8.136,1.607l-1.61,5.77c-1.229-0.615-3.546-1.513-6.62-1.513c-3.122,0-4.634,1.466-4.634,3.075
				c0,2.033,1.75,2.931,5.912,4.493c5.626,2.081,8.229,5.013,8.229,9.505c0,5.344-4.068,9.885-12.818,9.885
				c-3.641,0-7.234-0.993-9.032-1.985L650.893,142.785z"/>
			<path fill="#FFFFFF" d="M695.584,144.631c0,2.175,0.095,4.304,0.378,5.581h-6.479l-0.425-2.317h-0.143
				c-1.515,1.844-3.878,2.837-6.622,2.837c-4.683,0-7.471-3.406-7.471-7.096c0-6.006,5.39-8.843,13.572-8.843v-0.284
				c0-1.276-0.662-3.027-4.211-3.027c-2.364,0-4.871,0.806-6.384,1.749l-1.325-4.634c1.609-0.898,4.776-2.08,8.986-2.08
				c7.709,0,10.121,4.538,10.121,10.025v8.089H695.584z M688.631,139.286c-3.783,0-6.715,0.898-6.715,3.64
				c0,1.845,1.229,2.744,2.837,2.744c1.75,0,3.265-1.182,3.736-2.648c0.096-0.377,0.142-0.804,0.142-1.23V139.286z"/>
			<path fill="#FFFFFF" d="M701.306,134.462c0-2.885-0.095-5.299-0.189-7.378h6.242l0.332,3.217h0.143
				c0.945-1.514,3.263-3.735,7.142-3.735c4.728,0,8.276,3.168,8.276,9.979v13.668h-7.189v-12.818c0-2.98-1.041-5.012-3.641-5.012
				c-1.987,0-3.17,1.37-3.688,2.694c-0.189,0.473-0.238,1.136-0.238,1.797v13.339h-7.188V134.462L701.306,134.462z"/>
			<path fill="#FFFFFF" d="M736.773,120.842v6.242h5.156v5.298h-5.156v8.37c0,2.79,0.71,4.069,2.838,4.069
				c0.994,0,1.467-0.05,2.13-0.19l0.046,5.438c-0.898,0.332-2.646,0.615-4.635,0.615c-2.317,0-4.256-0.805-5.438-1.986
				c-1.326-1.372-1.987-3.596-1.987-6.858v-9.458h-3.073v-5.298h3.073v-4.304L736.773,120.842z"/>
			<path fill="#FFFFFF" d="M751.388,140.941c0.188,2.979,3.169,4.398,6.527,4.398c2.458,0,4.445-0.331,6.384-0.993l0.946,4.871
				c-2.365,0.994-5.25,1.467-8.372,1.467c-7.852,0-12.345-4.542-12.345-11.775c0-5.865,3.642-12.344,11.683-12.344
				c7.472,0,10.31,5.816,10.31,11.539c0,1.23-0.142,2.317-0.237,2.837H751.388z M759.853,136.022c0-1.75-0.755-4.683-4.066-4.683
				c-3.026,0-4.258,2.792-4.446,4.683H759.853z M763.778,117.011l-5.77,7.189h-4.918l4.067-7.189H763.778z"/>
		</g>
		<g>
			<g>
				<g>
					<path fill="#FFFFFF" stroke="#999999" stroke-width="0.9741" d="M54.574,73.895c-5.034,3.873-11.054,5.918-17.235,5.345
						C23.056,77.911,13.35,63.104,15.658,46.167c1.046-7.667,4.388-14.437,9.043-19.45c0,0-9.913,7.525-11.755,19.934
						C9.727,68.337,22.17,86.238,39.983,87.894c8.699,0.81,17.146-2.551,23.853-8.649L54.574,73.895z"/>
					<path fill="#FFFFFF" stroke="#999999" stroke-width="0.9741" d="M86.795,23.484C70.374,9.892,47.899,11.679,37.56,26.276
						c-5.614,7.925-6.614,18.155-3.669,27.938l8.884-6.077c-1.481-7.035-0.409-14.163,3.6-19.823
						c8.292-11.706,25.969-12.707,39.482-2.239c6.117,4.738,10.308,11.018,12.323,17.555C98.18,43.63,97.529,32.37,86.795,23.484z"
						/>
					<path fill="#FFFFFF" stroke="#999999" stroke-width="0.9741" d="M92.968,54.199c-3.68-8.006-10.9-13.671-19.636-16.402v10.675
						c5.972,2.407,10.838,6.637,13.463,12.344c5.992,13.033-1.979,28.846-17.801,35.313c-7.163,2.93-14.697,3.42-21.365,1.896
						c0,0,5.805,4.811,23.141,0.212C91.374,92.77,100.44,70.453,92.968,54.199z"/>
					
						<linearGradient id="SVGID_1_" gradientUnits="userSpaceOnUse" x1="95.5581" y1="656.3574" x2="54.1671" y2="672.5294" gradientTransform="matrix(1 0 0 1 -26.96 -617.6602)">
						<stop  offset="0" style="stop-color:#FFFFFF"/>
						<stop  offset="1" style="stop-color:#1F5221"/>
					</linearGradient>
					<path fill="url(#SVGID_1_)" stroke="#999999" stroke-width="0.9741" d="M47.295,48.93c7.558-3.09,15.539-3.484,22.47-1.639
						V36.86c-8.167-1.738-17.336-1.046-26.054,2.516c-8.428,3.445-15.048,9.025-19.31,15.543l8.24,5.285
						C36.063,55.494,41.058,51.479,47.295,48.93z"/>
					
						<linearGradient id="SVGID_2_" gradientUnits="userSpaceOnUse" x1="92.4751" y1="690.4658" x2="100.3911" y2="648.0583" gradientTransform="matrix(1 0 0 1 -26.96 -617.6602)">
						<stop  offset="0" style="stop-color:#FFFFFF"/>
						<stop  offset="1" style="stop-color:#1F5221"/>
					</linearGradient>
					<path fill="url(#SVGID_2_)" stroke="#999999" stroke-width="0.9741" d="M73.642,28.153l-8.698,4.493
						c2.37,5.321,3.35,11.651,2.438,18.329c-1.102,8.085-4.745,15.188-9.805,20.267l8.993,5.259
						c5.604-6.207,9.603-14.506,10.878-23.854C78.678,43.625,77.157,35.102,73.642,28.153z"/>
					
						<linearGradient id="SVGID_3_" gradientUnits="userSpaceOnUse" x1="67.5049" y1="669.498" x2="96.849" y2="705.1142" gradientTransform="matrix(1 0 0 1 -26.96 -617.6602)">
						<stop  offset="0" style="stop-color:#FFFFFF"/>
						<stop  offset="1" style="stop-color:#1F5221"/>
					</linearGradient>
					<path fill="url(#SVGID_3_)" stroke="#999999" stroke-width="0.9741" d="M55.831,68.467
						C49.67,63.693,45.447,57.36,43.452,50.772c-3.281,1.814-6.125,4.06-8.47,6.591c2.785,7.09,7.652,13.781,14.368,18.982
						c7.198,5.576,15.339,8.521,23.115,8.951l0.459-9.78C67.132,74.91,61.16,72.594,55.831,68.467z"/>
				</g>
				<g>
					<path fill="#FFFFFF" d="M113.404,18.444h26.662c13.877,0,24.33,3.203,31.362,9.607c7.031,6.404,10.546,16.313,10.546,29.724
						c0,13.413-3.516,23.473-10.546,30.18c-7.032,6.704-17.485,10.059-31.362,10.059h-26.662V18.444z M130.321,83.741h9.605
						c9.7,0,16.151-2.228,19.353-6.683c1.717-2.32,3.028-5.069,3.934-8.25c0.905-3.178,1.357-6.856,1.357-11.033
						c0-4.084-0.452-7.634-1.357-10.65c-0.905-3.017-2.217-5.639-3.934-7.867c-3.341-4.456-9.792-6.683-19.353-6.683h-9.605V83.741z
						"/>
					<path fill="#FFFFFF" d="M221.166,99.264c-4.827,0-9.119-0.684-12.878-2.052c-3.759-1.369-6.926-3.343-9.502-5.917
						c-2.576-2.576-4.524-5.709-5.847-9.396c-1.323-3.69-1.984-7.879-1.984-12.566c0-4.734,0.673-8.969,2.02-12.705
						c1.346-3.734,3.283-6.903,5.813-9.502c2.529-2.599,5.615-4.583,9.259-5.953c3.643-1.368,7.784-2.053,12.426-2.053
						c4.5,0,8.55,0.65,12.147,1.949c3.595,1.3,6.648,3.203,9.154,5.708c2.505,2.506,4.431,5.604,5.777,9.293
						c1.345,3.688,2.019,7.926,2.019,12.705v4.037H208.08c0.046,2.877,0.406,5.338,1.08,7.379c0.672,2.043,1.588,3.725,2.75,5.047
						c1.159,1.323,2.517,2.287,4.072,2.891c1.555,0.604,3.282,0.904,5.187,0.904c3.108,0,5.662-0.649,7.657-1.949
						c1.994-1.299,3.341-3.411,4.038-6.336h15.593c-0.557,3.018-1.625,5.674-3.202,7.972c-1.579,2.296-3.55,4.224-5.918,5.778
						c-2.366,1.556-5.082,2.739-8.144,3.549C228.127,98.859,224.787,99.264,221.166,99.264z M233,63.066
						c-0.372-4.918-1.612-8.551-3.725-10.894c-2.111-2.344-5.046-3.516-8.806-3.516c-3.435,0-6.277,1.277-8.527,3.829
						c-2.251,2.552-3.493,6.08-3.724,10.58H233L233,63.066z"/>
					<path fill="#FFFFFF" d="M296,99.264c-5.616,0-10.767-0.894-15.454-2.68c-4.688-1.783-8.703-4.533-12.043-8.248
						c-3.436-3.759-5.952-8.121-7.554-13.087c-1.601-4.966-2.401-10.628-2.401-16.987c0-12.714,3.317-22.763,9.954-30.142
						c3.434-3.712,7.471-6.483,12.112-8.317c4.641-1.833,9.77-2.75,15.384-2.75c4.456,0,8.54,0.534,12.253,1.602
						c3.712,1.067,7.1,2.714,10.163,4.943c3.759,2.783,6.521,5.964,8.284,9.537s2.9,7.611,3.411,12.112h-16.986
						c-0.557-4.315-2.32-7.692-5.29-10.128c-2.97-2.437-6.916-3.655-11.835-3.655c-3.017,0-5.768,0.592-8.249,1.775
						c-2.483,1.184-4.595,2.914-6.334,5.186c-1.741,2.274-3.087,5.082-4.038,8.423c-0.952,3.342-1.427,7.147-1.427,11.417
						s0.464,8.064,1.393,11.382c0.928,3.318,2.25,6.126,3.969,8.423c1.716,2.297,3.804,4.039,6.265,5.221
						c2.458,1.185,5.221,1.775,8.284,1.775c4.918,0,8.864-1.264,11.835-3.793c2.969-2.529,4.778-6.162,5.429-10.895h16.847
						c-0.511,4.641-1.636,8.76-3.376,12.356c-1.74,3.597-4.143,6.695-7.205,9.293c-3.063,2.507-6.521,4.339-10.373,5.499
						C305.165,98.685,300.827,99.264,296,99.264z"/>
					<path fill="#FFFFFF" d="M374.176,99.264c-10.814,0-19.283-2.296-25.409-6.891c-6.125-4.594-9.445-11.557-9.955-20.885h16.291
						c0.556,4.781,2.423,8.354,5.603,10.721c3.179,2.367,7.529,3.551,13.053,3.551c5.057,0,9.061-0.881,12.009-2.646
						c2.946-1.762,4.418-4.314,4.418-7.656c0-1.484-0.357-2.738-1.076-3.76c-0.721-1.02-1.81-1.914-3.272-2.68
						c-1.462-0.766-3.285-1.473-5.465-2.123c-2.182-0.65-4.758-1.346-7.726-2.089l-2.995-0.835
						c-3.759-0.975-7.333-1.961-10.72-2.959c-3.389-0.998-6.359-2.32-8.911-3.969c-2.552-1.646-4.583-3.781-6.091-6.403
						c-1.508-2.622-2.262-6.022-2.262-10.199c0-3.992,0.835-7.46,2.506-10.408c1.671-2.946,3.933-5.384,6.787-7.309
						c2.854-1.926,6.161-3.352,9.919-4.282c3.76-0.926,7.728-1.392,11.905-1.392c4.825,0,9.199,0.568,13.122,1.706
						c3.922,1.138,7.285,2.773,10.096,4.908c2.807,2.136,4.998,4.746,6.576,7.831c1.578,3.087,2.436,6.579,2.578,10.477h-16.43
						c-0.418-3.759-1.985-6.601-4.7-8.527c-2.715-1.924-6.463-2.889-11.242-2.889c-4.595,0-8.122,0.825-10.581,2.472
						c-2.461,1.647-3.691,3.91-3.691,6.788c0,1.346,0.313,2.495,0.94,3.445s1.601,1.787,2.923,2.505
						c1.323,0.721,3.017,1.381,5.083,1.984c2.064,0.603,4.536,1.252,7.414,1.949c2.877,0.649,5.674,1.3,8.389,1.948
						c2.714,0.649,5.268,1.393,7.657,2.228c2.391,0.836,4.57,1.822,6.545,2.959c1.971,1.138,3.654,2.519,5.047,4.143
						c1.391,1.625,2.48,3.55,3.271,5.777c0.787,2.228,1.184,4.851,1.184,7.866c0,3.944-0.777,7.45-2.332,10.511
						c-1.555,3.064-3.76,5.64-6.613,7.728c-2.854,2.089-6.301,3.679-10.338,4.77C383.643,98.719,379.141,99.264,374.176,99.264z"/>
					<path fill="#FFFFFF" d="M448.313,18.444l-23.041,79.569h-13.576l22.973-79.569H448.313z"/>
					<path fill="#FFFFFF" d="M540.551,98.014h-15.246V35.152l-18.934,62.862h-15.453l-19.354-62.862v62.862H456.18V18.444h24.367
						l17.959,60.146l17.82-60.146h24.227v79.569H540.551z"/>
					<path fill="#FFFFFF" d="M582.736,99.264c-4.828,0-9.119-0.684-12.879-2.052c-3.758-1.369-6.928-3.343-9.504-5.917
						c-2.574-2.576-4.521-5.709-5.846-9.396c-1.32-3.69-1.982-7.879-1.982-12.566c0-4.734,0.672-8.969,2.018-12.705
						c1.346-3.734,3.283-6.903,5.813-9.502s5.615-4.583,9.258-5.953c3.645-1.368,7.785-2.053,12.428-2.053
						c4.502,0,8.549,0.65,12.148,1.949c3.594,1.3,6.648,3.203,9.152,5.708c2.508,2.506,4.432,5.604,5.779,9.293
						c1.348,3.688,2.018,7.926,2.018,12.705v4.037H569.65c0.047,2.877,0.404,5.338,1.078,7.379c0.672,2.043,1.59,3.725,2.75,5.047
						c1.16,1.323,2.518,2.287,4.072,2.891s3.281,0.904,5.186,0.904c3.109,0,5.66-0.649,7.658-1.949
						c1.994-1.299,3.342-3.411,4.037-6.336h15.594c-0.559,3.018-1.625,5.674-3.203,7.972c-1.578,2.296-3.549,4.224-5.916,5.778
						c-2.367,1.556-5.082,2.739-8.146,3.549C589.697,98.859,586.355,99.264,582.736,99.264z M594.57,63.066
						c-0.373-4.918-1.611-8.551-3.725-10.894c-2.111-2.344-5.047-3.516-8.807-3.516c-3.434,0-6.275,1.277-8.525,3.829
						c-2.252,2.552-3.494,6.08-3.725,10.58H594.57L594.57,63.066z"/>
					<path fill="#FFFFFF" d="M654.021,99.264c-10.816,0-19.285-2.296-25.41-6.891c-6.127-4.594-9.445-11.557-9.955-20.885h16.289
						c0.557,4.781,2.426,8.354,5.604,10.721c3.18,2.367,7.531,3.551,13.053,3.551c5.057,0,9.061-0.881,12.008-2.646
						c2.947-1.762,4.422-4.314,4.422-7.656c0-1.484-0.361-2.738-1.08-3.76c-0.719-1.02-1.809-1.914-3.271-2.68
						c-1.461-0.766-3.283-1.473-5.465-2.123s-4.758-1.346-7.727-2.089l-2.996-0.835c-3.758-0.975-7.332-1.961-10.721-2.959
						s-6.357-2.32-8.908-3.969c-2.553-1.646-4.584-3.781-6.094-6.403c-1.506-2.622-2.262-6.022-2.262-10.199
						c0-3.992,0.836-7.46,2.506-10.408c1.67-2.946,3.936-5.384,6.787-7.309c2.855-1.926,6.162-3.352,9.92-4.282
						c3.76-0.926,7.729-1.392,11.904-1.392c4.828,0,9.201,0.568,13.123,1.706c3.92,1.138,7.283,2.773,10.094,4.908
						c2.807,2.136,5,4.746,6.578,7.831c1.576,3.087,2.436,6.579,2.576,10.477h-16.43c-0.416-3.759-1.982-6.601-4.699-8.527
						c-2.715-1.924-6.463-2.889-11.242-2.889c-4.594,0-8.121,0.825-10.58,2.472c-2.461,1.647-3.689,3.91-3.689,6.788
						c0,1.346,0.311,2.495,0.938,3.445s1.602,1.787,2.926,2.505c1.32,0.721,3.016,1.381,5.08,1.984
						c2.064,0.603,4.537,1.252,7.416,1.949c2.875,0.649,5.672,1.3,8.389,1.948c2.713,0.649,5.264,1.393,7.654,2.228
						c2.391,0.836,4.572,1.822,6.545,2.959c1.973,1.138,3.654,2.519,5.047,4.143c1.393,1.625,2.484,3.55,3.273,5.777
						c0.785,2.228,1.182,4.851,1.182,7.866c0,3.944-0.775,7.45-2.332,10.511c-1.555,3.064-3.756,5.64-6.611,7.728
						c-2.854,2.089-6.301,3.679-10.338,4.77C663.488,98.719,658.984,99.264,654.021,99.264z"/>
					<path fill="#FFFFFF" d="M765.262,98.014h-16.848V63.346h-31.951v34.668h-16.916V18.444h16.916v30.839h31.951V18.444h16.848
						V98.014z"/>
				</g>
			</g>
		</g>
	</g>
</g>
</svg>
