<?xml version="1.0" encoding="utf-8"?>
<!-- Generator: Adobe Illustrator 14.0.0, SVG Export Plug-In . SVG Version: 6.00 Build 43363)  -->
<!DOCTYPE svg PUBLIC "-//W3C//DTD SVG 1.1//EN" "http://www.w3.org/Graphics/SVG/1.1/DTD/svg11.dtd">
<svg version="1.1" id="Camada_1" xmlns="http://www.w3.org/2000/svg" xmlns:xlink="http://www.w3.org/1999/xlink" x="0px" y="0px"
	 width="300px" height="300px" viewBox="0 0 300 300" enable-background="new 0 0 300 300" xml:space="preserve">
<path fill="#3B96D2" d="M172.072,102.56c0,2.308-1.87,4.177-4.177,4.177H44.249c-2.307,0-4.177-1.87-4.177-4.177l0,0
	c0-2.307,1.871-4.177,4.177-4.177h123.646C170.202,98.383,172.072,100.253,172.072,102.56L172.072,102.56z"/>
<path fill="#3B96D2" d="M172.072,76.768c0,2.307-1.87,4.177-4.177,4.177H44.249c-2.307,0-4.177-1.87-4.177-4.177l0,0
	c0-2.306,1.871-4.177,4.177-4.177h123.646C170.202,72.591,172.072,74.462,172.072,76.768L172.072,76.768z"/>
<path fill="#3B96D2" d="M172.072,128.352c0,2.306-1.87,4.177-4.177,4.177H44.249c-2.307,0-4.177-1.871-4.177-4.177l0,0
	c0-2.307,1.871-4.177,4.177-4.177h123.646C170.202,124.175,172.072,126.044,172.072,128.352L172.072,128.352z"/>
<path fill="#3B96D2" d="M172.072,154.144c0,2.308-1.87,4.177-4.177,4.177H44.249c-2.307,0-4.177-1.869-4.177-4.177l0,0
	c0-2.308,1.871-4.178,4.177-4.178h123.646C170.202,149.966,172.072,151.836,172.072,154.144L172.072,154.144z"/>
<path fill="#2C3E50" d="M195.072,30.5c2.762,0,5,2.366,5,5.285v156.43c0,2.918-2.238,5.285-5,5.285l0,0c-2.762,0-5-2.367-5-5.285
	V35.785C190.072,32.866,192.311,30.5,195.072,30.5L195.072,30.5z"/>
<g id="Expanded">
	<g>
		<g>
			<path fill="#2C3E50" d="M269.229,250.929H31.748C18.651,250.929,8,239.803,8,226.132V50.121
				c0-13.671,10.651-24.797,23.748-24.797h237.48c13.097,0,23.747,11.126,23.747,24.797v176.011
				C292.976,239.803,282.325,250.929,269.229,250.929z M31.748,37.197c-6.549,0-11.873,5.801-11.873,12.923v176.011
				c0,7.125,5.324,12.923,11.873,12.923h237.48c6.551,0,11.873-5.798,11.873-12.923V50.121c0-7.123-5.322-12.923-11.873-12.923
				H31.748z"/>
		</g>
		<g>
			<path fill="#2C3E50" d="M233.606,274.677H67.371c-3.276,0-5.938-2.661-5.938-5.937c0-3.276,2.661-5.938,5.938-5.938h166.235
				c3.275,0,5.937,2.661,5.937,5.938C239.543,272.016,236.882,274.677,233.606,274.677z"/>
		</g>
		<g>
			<path fill="#2C3E50" d="M150.488,274.677c-3.275,0-5.938-2.661-5.938-5.937v-23.748c0-3.276,2.662-5.938,5.938-5.938
				s5.937,2.661,5.937,5.938v23.748C156.425,272.016,153.764,274.677,150.488,274.677z"/>
		</g>
		<g>
			<circle fill="#2C3E50" cx="150.488" cy="221.244" r="11.874"/>
		</g>
		<g>
			<rect x="13.938" y="191.559" fill="#2C3E50" width="273.102" height="11.874"/>
		</g>
	</g>
</g>
</svg>
