<?xml version="1.0" encoding="UTF-8"?>
<svg xmlns="http://www.w3.org/2000/svg" version="1.1" viewBox="0 0 1452 237.7">
  <defs>
    <style>
      .cls-1 {
        fill: #868e88;
      }

      .cls-2 {
        fill: #bd3131;
      }

      .cls-3 {
        fill: #fff;
      }

      .cls-4 {
        fill: #557f57;
      }

      .cls-5 {
        isolation: isolate;
      }

      .cls-6 {
        fill: #384d38;
      }

      .cls-7 {
        fill: #93c01f;
      }
    </style>
  </defs>
  <!-- Generator: Adobe Illustrator 28.7.3, SVG Export Plug-In . SVG Version: 1.2.0 Build 164)  -->
  <g>
    <g id="Camada_1">
      <g id="Camada_1-2" data-name="Camada_1">
        <g id="Camada_1-2">
          <g>
            <g>
              <path class="cls-1" d="M235,124.2c1.3-8.9-4.9-17.2-13.8-18.4-6.5-.9-12.7,2.1-16,7.4l-9.8-5.2c.3-.8.5-1.6.6-2.4.9-6.1-3.3-11.7-9.4-12.5-4.9-.7-9.6,2-11.6,6.3l-11.3-3.7h0c.7-4.7-2.5-8.9-7.1-9.6-4.5-.6-8.7,2.5-9.5,7h-10.8c-.6-2.6-2.7-4.8-5.6-5.2-3.6-.5-7,2-7.5,5.6s2,7,5.6,7.5c3.5.5,6.8-1.8,7.5-5.3h10.8c.6,3.5,3.4,6.4,7.1,6.9,3.6.5,7-1.4,8.6-4.4l11.3,3.7c0,.2,0,.4-.1.6-.9,6.1,3.3,11.7,9.4,12.5,4.3.6,8.4-1.3,10.7-4.6l9.8,5.2c-.5,1.3-.9,2.7-1.1,4.1-1.3,8.9,4.9,17.2,13.8,18.4,8.9,1.3,17.2-4.9,18.4-13.8h0Z"/>
              <path class="cls-1" d="M206.7,77.3c-1.1-5.6-6.5-9.3-12.1-8.2-3.9.8-6.9,3.7-8,7.3l-7.1-1.1c0-.4,0-.7-.1-1.1-.7-3.8-4.4-6.3-8.3-5.6-2.9.6-5.1,2.9-5.6,5.7h-7.7c-.7-2.5-3.4-4.2-6.1-3.7-2.7.5-4.5,3-4.3,5.7l-6.7,2.3c-.9-1.2-2.5-1.9-4.1-1.6-2.3.4-3.8,2.7-3.4,4.9.4,2.3,2.7,3.8,4.9,3.4,2-.4,3.5-2.2,3.4-4.2l6.7-2.3c1.2,1.7,3.3,2.7,5.4,2.3,2.1-.4,3.7-2,4.2-4h7.7c.8,3.6,4.4,6.1,8.2,5.4,2.5-.5,4.5-2.3,5.3-4.5l7.1,1.1c0,.7,0,1.5.2,2.2,1.1,5.6,6.5,9.3,12.1,8.2,5.6-1.1,9.3-6.5,8.2-12.1h.1Z"/>
            </g>
            <g>
              <path class="cls-4" d="M177.7,218.9c8.4-3.3,12.4-12.8,9.1-21.2-2.5-6.1-8.2-9.9-14.4-10.2l-.4-11.1c.8-.1,1.6-.3,2.4-.7,5.7-2.3,8.4-8.7,6.2-14.4-1.9-4.6-6.5-7.3-11.2-6.9l-2.4-11.6h.1c4.3-1.7,6.4-6.6,4.7-10.9-1.7-4.3-6.5-6.3-10.8-4.7l-5.4-9.4c2-1.8,2.8-4.8,1.7-7.4-1.4-3.4-5.2-5.1-8.6-3.7-3.4,1.4-5.1,5.2-3.7,8.6,1.3,3.3,5,4.9,8.3,3.8l5.4,9.4c-2.8,2.3-3.9,6.1-2.5,9.6,1.4,3.4,4.7,5.4,8.2,5.2l2.4,11.6c-.2,0-.4.1-.6.2-5.7,2.3-8.4,8.7-6.2,14.4,1.6,4,5.3,6.6,9.4,6.9l.4,11.1c-1.4.2-2.8.5-4.1,1.1-8.4,3.3-12.4,12.8-9.1,21.2,3.3,8.4,12.8,12.4,21.2,9.1h0Z"/>
              <path class="cls-4" d="M204.2,171c4.3-3.7,4.8-10.3,1.1-14.6-2.6-3-6.6-4.2-10.3-3.3l-2.6-6.7c.3-.2.6-.4.9-.6,2.9-2.5,3.3-7,.7-9.9-2-2.3-5.1-3-7.7-2l-4-6.6c1.9-2,2.1-5.1.2-7.2-1.8-2.1-4.8-2.4-7.1-.9l-5.4-4.7c.6-1.4.4-3.1-.7-4.4-1.5-1.8-4.2-2-6-.4-1.8,1.5-2,4.2-.4,6,1.4,1.6,3.6,1.9,5.4.9l5.4,4.6c-.9,1.9-.7,4.2.7,5.8s3.6,2.2,5.5,1.6l4,6.6c-2.9,2.6-3.2,6.9-.6,9.9,1.7,1.9,4.2,2.7,6.6,2.3l2.6,6.7c-.6.3-1.3.8-1.8,1.3-4.3,3.7-4.8,10.3-1.1,14.6s10.3,4.8,14.6,1.1h0Z"/>
            </g>
            <g>
              <path class="cls-6" d="M67.1,216.7c7.1,5.6,17.3,4.3,22.9-2.7,4.1-5.2,4.5-12.1,1.6-17.6l9.4-5.9c.5.6,1.1,1.2,1.8,1.7,4.8,3.8,11.8,2.9,15.6-1.9,3.1-3.9,3.1-9.3.4-13.2l8.8-7.9h0c3.6,2.9,8.9,2.2,11.8-1.4,2.8-3.6,2.2-8.8-1.3-11.7l5.4-9.4c2.6.9,5.5,0,7.3-2.2,2.3-2.9,1.8-7.1-1.1-9.3-2.9-2.3-7.1-1.8-9.3,1.1-2.2,2.8-1.8,6.8.8,9.1l-5.4,9.4c-3.3-1.3-7.2-.3-9.5,2.7-2.3,2.9-2.3,6.8-.5,9.7l-8.8,7.9c0-.1-.3-.3-.5-.4-4.8-3.8-11.8-2.9-15.6,1.9-2.7,3.4-3,7.9-1.3,11.6l-9.4,5.9c-.8-1.1-1.8-2.1-3-3-7.1-5.6-17.3-4.3-22.9,2.7-5.6,7.1-4.3,17.3,2.7,22.9h.1Z"/>
              <path class="cls-6" d="M121.8,215.6c5.4,1.9,11.3-1,13.2-6.4,1.3-3.8.3-7.8-2.3-10.6l4.5-5.6c.3.2.6.3,1,.4,3.7,1.3,7.7-.7,9-4.4,1-2.8,0-5.9-2.1-7.7l3.8-6.7c2.7.7,5.5-.8,6.4-3.4.9-2.6-.3-5.4-2.8-6.6l1.3-7c1.5-.2,2.9-1.2,3.4-2.8.8-2.2-.4-4.6-2.6-5.4-2.2-.8-4.6.4-5.4,2.6-.7,2,.2,4.1,1.9,5.1l-1.3,7c-2.1.1-4,1.5-4.7,3.6-.7,2-.1,4.2,1.4,5.6l-3.8,6.7c-3.6-1.2-7.6.7-8.9,4.4-.8,2.4-.3,5,1.3,6.9l-4.5,5.6c-.6-.4-1.3-.7-2-.9-5.4-1.9-11.3,1-13.2,6.4-1.9,5.4,1,11.3,6.4,13.2h0Z"/>
            </g>
            <g>
              <path class="cls-4" d="M13.7,119.8c-1.3,8.9,4.9,17.2,13.8,18.4,6.5.9,12.7-2.1,16-7.4l9.8,5.2c-.3.8-.5,1.6-.6,2.4-.9,6.1,3.3,11.7,9.4,12.5,4.9.7,9.6-2,11.6-6.3l11.3,3.7h0c-.7,4.7,2.5,8.9,7.1,9.6,4.5.6,8.7-2.5,9.5-7h10.8c.6,2.6,2.7,4.8,5.6,5.2,3.6.5,7-2,7.5-5.6s-2-7-5.6-7.5c-3.5-.5-6.8,1.8-7.5,5.3h-10.8c-.6-3.5-3.4-6.4-7.1-6.9-3.6-.5-7,1.4-8.6,4.4l-11.3-3.7v-.6c.9-6.1-3.3-11.7-9.4-12.5-4.3-.6-8.4,1.3-10.7,4.6l-9.8-5.2c.5-1.3.9-2.7,1.1-4.1,1.3-8.9-4.9-17.2-13.8-18.4-8.9-1.3-17.2,4.9-18.4,13.8h.1Z"/>
              <path class="cls-4" d="M42,166.7c1.1,5.6,6.5,9.3,12.1,8.2,3.9-.8,6.9-3.7,8-7.3l7.1,1.1v1.1c.7,3.8,4.4,6.3,8.3,5.6,2.9-.6,5.1-2.9,5.6-5.7h7.7c.7,2.5,3.4,4.2,6.1,3.7s4.5-3,4.3-5.7l6.7-2.3c.9,1.2,2.5,1.9,4.1,1.6,2.3-.4,3.8-2.7,3.4-4.9-.4-2.3-2.7-3.8-4.9-3.4-2,.4-3.5,2.2-3.4,4.2l-6.7,2.3c-1.2-1.7-3.3-2.7-5.4-2.3s-3.7,2-4.2,4h-7.7c-.8-3.6-4.4-6.1-8.2-5.4-2.5.5-4.5,2.3-5.3,4.5l-7.1-1.1c0-.7,0-1.5-.2-2.2-1.1-5.6-6.5-9.3-12.1-8.2-5.6,1.1-9.3,6.5-8.2,12.1h0Z"/>
            </g>
            <g>
              <path class="cls-7" d="M70.9,25.1c-8.4,3.3-12.4,12.8-9.1,21.2,2.5,6.1,8.2,9.9,14.4,10.2l.4,11.1c-.8,0-1.6.3-2.4.7-5.7,2.3-8.4,8.7-6.2,14.4,1.9,4.6,6.5,7.3,11.2,6.9l2.4,11.6h0c-4.3,1.7-6.4,6.6-4.7,10.9,1.7,4.3,6.5,6.3,10.8,4.7l5.4,9.4c-2,1.8-2.8,4.8-1.7,7.4,1.4,3.4,5.2,5.1,8.6,3.7,3.4-1.4,5.1-5.2,3.7-8.6-1.3-3.3-5-4.9-8.3-3.8l-5.4-9.4c2.8-2.3,3.9-6.1,2.5-9.6-1.4-3.4-4.7-5.4-8.2-5.2l-2.4-11.6c.2,0,.4,0,.6-.2,5.7-2.3,8.4-8.7,6.2-14.4-1.6-4-5.3-6.6-9.4-6.9l-.4-11.1c1.4-.2,2.8-.5,4.1-1.1,8.4-3.3,12.4-12.8,9.1-21.2-3.3-8.4-12.8-12.4-21.2-9.1h0Z"/>
              <path class="cls-7" d="M44.4,73c-4.3,3.7-4.8,10.3-1.1,14.6,2.6,3,6.6,4.2,10.3,3.3l2.6,6.7c-.3.2-.6.4-.9.6-2.9,2.5-3.3,7-.7,9.9,2,2.3,5.1,3,7.7,2l4,6.6c-1.9,2-2.1,5.1-.2,7.2,1.8,2.1,4.8,2.4,7.1.9l5.4,4.7c-.6,1.4-.4,3.1.7,4.4,1.5,1.8,4.2,2,6,.4,1.8-1.5,2-4.2.4-6-1.4-1.6-3.6-1.9-5.4-.9l-5.4-4.6c.9-1.9.7-4.2-.7-5.8-1.4-1.6-3.6-2.2-5.5-1.6l-4-6.6c2.9-2.6,3.2-6.9.6-9.9-1.7-1.9-4.2-2.7-6.6-2.3l-2.6-6.7c.6-.3,1.3-.8,1.8-1.3,4.3-3.7,4.8-10.3,1.1-14.6-3.7-4.3-10.3-4.8-14.6-1.1h0Z"/>
            </g>
            <g>
              <path class="cls-4" d="M181.5,27.3c-7.1-5.6-17.3-4.3-22.9,2.7-4.1,5.2-4.5,12.1-1.6,17.6l-9.4,5.9c-.5-.6-1.1-1.2-1.8-1.7-4.8-3.8-11.8-2.9-15.6,1.9-3.1,3.9-3.1,9.3-.4,13.2l-8.8,7.9h0c-3.6-2.9-8.9-2.2-11.8,1.4-2.8,3.6-2.2,8.8,1.3,11.7l-5.4,9.4c-2.6-.9-5.5,0-7.3,2.2-2.3,2.9-1.8,7.1,1.1,9.3s7.1,1.8,9.3-1.1c2.2-2.8,1.8-6.8-.8-9.1l5.4-9.4c3.3,1.3,7.2.3,9.5-2.7,2.3-2.9,2.3-6.8.5-9.7l8.8-7.9c.1,0,.3.3.5.4,4.8,3.8,11.8,2.9,15.6-1.9,2.7-3.4,3-7.9,1.3-11.6l9.4-5.9c.8,1.1,1.8,2.1,3,3,7.1,5.6,17.3,4.3,22.9-2.7,5.6-7.1,4.3-17.3-2.7-22.9h0Z"/>
              <path class="cls-4" d="M126.8,28.3c-5.4-1.9-11.3,1-13.2,6.4-1.3,3.8-.3,7.8,2.3,10.6l-4.5,5.6c-.3-.2-.6-.3-1-.4-3.7-1.3-7.7.7-9,4.4-1,2.8,0,5.9,2.1,7.7l-3.8,6.7c-2.7-.7-5.5.8-6.4,3.4s.3,5.4,2.8,6.6l-1.3,7c-1.5.2-2.9,1.2-3.4,2.8-.8,2.2.4,4.6,2.6,5.4s4.6-.4,5.4-2.6c.7-2-.2-4.1-1.9-5.1l1.3-7c2.1,0,4-1.5,4.7-3.6.7-2,0-4.2-1.4-5.6l3.8-6.7c3.6,1.2,7.6-.7,8.9-4.4.8-2.4.3-5-1.3-6.9l4.5-5.6c.6.4,1.3.7,2,.9,5.4,1.9,11.3-1,13.2-6.4s-1-11.3-6.4-13.2h0Z"/>
            </g>
            <circle class="cls-7" cx="144.4" cy="23.4" r="7.4"/>
            <circle class="cls-6" cx="104.2" cy="220.5" r="7.4"/>
            <path class="cls-4" d="M219.3,160c-4.1-.4-7-4.1-6.5-8.1.4-4.1,4.1-7,8.1-6.5,4.1.4,7,4.1,6.5,8.1-.4,4.1-4.1,7-8.1,6.5Z"/>
            <circle class="cls-4" cx="28.6" cy="91.2" r="7.4"/>
            <circle class="cls-6" cx="144.8" cy="220.4" r="7.4"/>
            <circle class="cls-4" cx="103.8" cy="23.5" r="7.4"/>
            <circle class="cls-4" cx="50" cy="189.9" r="7.4"/>
            <circle class="cls-4" cx="198.5" cy="54" r="7.4"/>
            <circle class="cls-1" cx="28.8" cy="153.9" r="7.4"/>
            <circle class="cls-6" cx="219.7" cy="90.3" r="7.4"/>
            <circle class="cls-6" cx="49.3" cy="55" r="7.4"/>
            <circle class="cls-7" cx="199.3" cy="188.9" r="7.4"/>
          </g>
          <g>
            <path class="cls-4" d="M322.8,177c-10.4,5.2-22,7.1-41.4,7.1h-29.8V56.2h29.3c20.1,0,35.3,3.1,45.4,9.2,17.8,10.7,27.9,30.8,27.9,55s-11.6,46.9-31.3,56.6h-.1ZM310.7,84c-7.4-3.8-15.6-5.2-30.6-5.2h-4.7v82.6h5.2c14.2,0,24.1-1.7,31.2-5.7,11.4-6.2,18.5-19.9,18.5-35.3s-7.4-30.1-19.6-36.4Z"/>
            <path class="cls-4" d="M465.5,146.4h-74.3c2.8,11.6,12.8,18.9,26.5,18.9s15.2-2.6,21.1-9.5h25.1c-6.4,19.7-26.3,30.6-45.7,30.6-29.3,0-51.9-21.8-51.9-49.9s22.3-50.5,50.5-50.5,49.5,21.8,49.5,51.6-.2,5.5-.9,8.8h0ZM417.2,107.1c-13.7,0-23,6.8-26.7,19h53.1c-2.9-12.3-12.3-19-26.5-19h.1Z"/>
            <path class="cls-4" d="M544.4,186.3c-37.4,0-67.3-29.8-67.3-66.6s29.6-65.8,65.8-65.8,49.3,14.2,60.6,39h-26.5c-8.7-11.3-18.7-16.1-33.6-16.1-24.4,0-42.4,19-42.4,43.1s19.4,43.6,42.9,43.6,21.3-4.2,31.7-15.1h27.9c-10,23.4-32.9,37.9-59,37.9h-.1Z"/>
            <path class="cls-4" d="M651.4,186.3c-22.5,0-40-14.5-42.1-38.8h24.8c1,10.7,6.8,15.9,17.3,15.9s17.3-6.4,17.3-15.6-2.1-10-5.9-13-5.2-3.5-22.2-9.9c-17.1-6.4-26.7-18.7-26.7-34.8s16.6-36.4,37.2-36.4,36.7,13.8,37.9,36.4h-24.6c-.7-8.7-5.5-13.5-13.5-13.5s-13.2,5.4-13.2,13,2.4,8.7,7.1,11.6c1.7,1,2.1,1.2,14.2,5.7,26,9.7,33.1,20.9,33.1,38.3s-17.8,41-40.9,41h.2Z"/>
            <path class="cls-4" d="M780.9,78.8v30.1h39.5v22.7h-39.5v52.5h-23.7V56.2h65.1v22.7h-41.4,0Z"/>
            <path class="cls-4" d="M837.9,184.1v-95.9h23v95.9h-23ZM838,74.3v-23h23v23h-23Z"/>
            <path class="cls-4" d="M941.5,184.1v-46.9c0-25.6-6.9-30.1-18.3-30.1s-13.3,3.1-17,8.8c-2.9,4.7-3.8,10.2-3.8,23v45.2h-23v-95.9h21.3v9.2c8.5-8.1,16.1-11.4,27-11.4s23.7,4.8,29.9,13.8c5.2,7.4,6.9,15.8,6.9,32.9v51.4h-23Z"/>
            <path class="cls-4" d="M1058.9,184.1v-12.5c-9.2,10.4-18.7,14.7-31.7,14.7-27.2,0-48.1-22-48.1-50.4s21.1-51.2,48-51.2,23.2,4.5,29.9,11.9v-40.5h23v127.9h-21.1ZM1030.4,105.8c-15.8,0-28,12.8-28,29.1s12.5,30.3,28.6,30.3,27.9-13,27.9-29.6-12.3-29.8-28.4-29.8h0Z"/>
            <path class="cls-4" d="M1192.6,146.4h-74.3c2.8,11.6,12.8,18.9,26.5,18.9s15.2-2.6,21.1-9.5h25.1c-6.4,19.7-26.3,30.6-45.7,30.6-29.3,0-51.9-21.8-51.9-49.9s22.3-50.5,50.5-50.5,49.5,21.8,49.5,51.6-.2,5.5-.9,8.8h.1ZM1144.3,107.1c-13.7,0-23,6.8-26.7,19h53.1c-2.9-12.3-12.3-19-26.5-19h0Z"/>
            <path class="cls-4" d="M1231.3,130.8v53.3h-23v-95.9h21.1v9.3c6.1-8.8,10.9-11.6,20.8-11.6h1.7v22.2c-13.8.3-20.6,7.8-20.6,22.7Z"/>
          </g>
          <rect class="cls-2" x="1271" y="79" width="169.1" height="109.6" rx="38" ry="38"/>
          <g class="cls-5">
            <g class="cls-5">
              <path class="cls-3" d="M1349.3,105.4c0-3.4,2-4.5,4.5-4.5h4.2c2.5,0,4.5,1,4.5,4.5v59.4c0,3.4-2,4.5-4.5,4.5h-4.2c-2.5,0-4.5-1-4.5-4.5v-59.4Z"/>
              <path class="cls-3" d="M1390.6,105.2c1-3.3,3.1-4.3,5.8-4.3h8.9c2.7,0,4.8,1,5.8,4.3l18,59.8c1.1,3.9-.9,4.3-3.1,4.3h-5.8c-2.7,0-3.7-1-4.7-4.3l-3.8-13.7h-22.1l-3.8,13.7c-1,3.3-2,4.3-4.7,4.3h-5.2c-2.3,0-4.4-.4-3.2-4.3l18-59.8ZM1408.6,140.4l-7.9-28.6h-.2l-7.9,28.6h16Z"/>
            </g>
          </g>
          <g>
            <path class="cls-3" d="M1320,103.5l10.4-1.1-8.6,5.9c-5.3,3.6-8.1,9.9-7.5,16.3l1.1,10.4-5.9-8.6c-3.6-5.3-9.9-8.1-16.3-7.5l-10.4,1.1,8.6-5.9c5.3-3.6,8.1-9.9,7.5-16.3l-1.1-10.4,5.9,8.6c3.6,5.3,9.9,8.1,16.3,7.5Z"/>
            <path class="cls-3" d="M1310.8,143.3l2.5-.3-2,1.4c-5.3,3.6-8.1,9.9-7.5,16.3l.3,2.5-1.4-2c-3.6-5.3-9.9-8.1-16.3-7.5l-2.5.3,2-1.4c5.3-3.6,8.1-9.9,7.5-16.3l-.3-2.5,1.4,2c3.6,5.3,9.9,8.1,16.3,7.5Z"/>
            <path class="cls-3" d="M1336.5,123h0c-3.8,2.6-5.8,7.1-5.4,11.6h0c-2.6-3.8-7.1-5.8-11.6-5.4h0c3.8-2.6,5.8-7.1,5.4-11.6h0c2.6,3.8,7.1,5.8,11.6,5.4h0Z"/>
          </g>
        </g>
      </g>
    </g>
  </g>
</svg>