<?xml version="1.0" encoding="utf-8"?>
<!-- Generator: Adobe Illustrator 14.0.0, SVG Export Plug-In . SVG Version: 6.00 Build 43363)  -->
<!DOCTYPE svg PUBLIC "-//W3C//DTD SVG 1.1//EN" "http://www.w3.org/Graphics/SVG/1.1/DTD/svg11.dtd">
<svg version="1.1" id="Camada_1" xmlns="http://www.w3.org/2000/svg" xmlns:xlink="http://www.w3.org/1999/xlink" x="0px" y="0px"
	 width="774px" height="250px" viewBox="0 0 774 250" enable-background="new 0 0 774 250" xml:space="preserve">
<g>
	<g>
		<g>
			<path fill="#1F5221" d="M24.573,106.764v15.859h15.31v-15.859h9.271v41.11h-9.271v-17.14h-15.31v17.14h-9.271v-41.11H24.573
				L24.573,106.764z"/>
			<path fill="#1F5221" d="M64.223,135.857c0.305,3.9,4.086,5.729,8.418,5.729c3.172,0,5.732-0.427,8.233-1.276l1.22,6.277
				c-3.05,1.281-6.771,1.895-10.796,1.895c-10.125,0-15.92-5.854-15.92-15.248c0-7.563,4.757-15.921,15.065-15.921
				c9.638,0,13.297,7.503,13.297,14.886c0,1.586-0.183,2.986-0.304,3.72L64.223,135.857z M75.141,129.518
				c0-2.197-0.977-6.041-5.185-6.041c-3.965,0-5.551,3.599-5.795,6.041H75.141z"/>
			<path fill="#1F5221" d="M114.118,140.678c0,2.807,0.123,5.551,0.488,7.196h-8.356l-0.549-2.987h-0.183
				c-1.952,2.379-5.001,3.659-8.54,3.659c-6.038,0-9.638-4.392-9.638-9.147c0-7.748,6.953-11.403,17.507-11.403v-0.365
				c0-1.587-0.854-3.843-5.43-3.843c-3.05,0-6.282,1.036-8.233,2.193l-1.708-5.917c2.072-1.159,6.16-2.685,11.589-2.685
				c9.941,0,13.053,5.855,13.053,12.872V140.678L114.118,140.678z M105.152,133.785c-4.88,0-8.661,1.158-8.661,4.695
				c0,2.379,1.585,3.537,3.659,3.537c2.257,0,4.209-1.523,4.818-3.414c0.123-0.487,0.184-1.037,0.184-1.586V133.785L105.152,133.785
				z"/>
			<path fill="#1F5221" d="M121.5,104.566h9.271v43.308H121.5V104.566z"/>
			<path fill="#1F5221" d="M148.582,109.936v8.112h6.649v6.83h-6.649v10.858c0,3.6,0.915,5.246,3.66,5.246
				c1.282,0,1.891-0.063,2.745-0.246l0.062,7.017c-1.159,0.429-3.416,0.793-5.978,0.793c-2.988,0-5.49-1.036-7.015-2.563
				c-1.708-1.771-2.562-4.635-2.562-8.844v-12.262h-3.964v-6.832h3.964v-5.611L148.582,109.936z"/>
			<path fill="#1F5221" d="M160.599,104.566h9.271v17.079h0.122c0.976-1.341,2.196-2.378,3.66-3.11
				c1.401-0.732,3.109-1.159,4.816-1.159c5.917,0,10.433,4.087,10.433,13.116v17.383h-9.271v-16.407
				c0-3.903-1.342-6.588-4.816-6.588c-2.44,0-3.967,1.586-4.638,3.295c-0.244,0.55-0.305,1.341-0.305,2.013v17.688H160.6
				L160.599,104.566L160.599,104.566z"/>
			<path fill="#1F5221" d="M209.275,138.359c2.438,1.281,6.343,2.563,10.308,2.563c4.27,0,6.527-1.77,6.527-4.514
				c0-2.501-1.952-4.024-6.895-5.733c-6.831-2.438-11.344-6.221-11.344-12.261c0-7.014,5.917-12.32,15.553-12.32
				c4.697,0,8.051,0.915,10.491,2.074l-2.074,7.442c-1.585-0.792-4.574-1.952-8.539-1.952c-4.023,0-5.978,1.891-5.978,3.964
				c0,2.624,2.257,3.782,7.624,5.856c7.258,2.686,10.614,6.465,10.614,12.322c0,6.892-5.246,12.748-16.53,12.748
				c-4.696,0-9.332-1.28-11.65-2.563L209.275,138.359z"/>
			<path fill="#1F5221" d="M263.989,147.143c-1.647,0.793-4.758,1.403-8.296,1.403c-9.638,0-15.797-5.916-15.797-15.31
				c0-8.724,5.977-15.861,17.077-15.861c2.438,0,5.123,0.427,7.074,1.159l-1.464,6.893c-1.098-0.488-2.745-0.915-5.184-0.915
				c-4.881,0-8.055,3.478-7.992,8.357c0,5.488,3.661,8.417,8.173,8.417c2.196,0,3.904-0.365,5.307-0.978L263.989,147.143z"/>
			<path fill="#1F5221" d="M273.688,114.145c-3.109,0-5.122-2.196-5.122-4.941c0-2.805,2.072-4.94,5.244-4.94
				c3.174,0,5.124,2.135,5.187,4.94c0,2.746-2.013,4.941-5.246,4.941H273.688z M269.113,147.874v-29.827h9.271v29.827H269.113z"/>
			<path fill="#1F5221" d="M292.962,135.857c0.304,3.9,4.086,5.729,8.417,5.729c3.172,0,5.734-0.427,8.234-1.276l1.22,6.277
				c-3.049,1.281-6.77,1.895-10.795,1.895c-10.125,0-15.92-5.854-15.92-15.248c0-7.563,4.757-15.921,15.064-15.921
				c9.639,0,13.298,7.503,13.298,14.886c0,1.586-0.188,2.986-0.309,3.72L292.962,135.857z M303.88,129.518
				c0-2.197-0.976-6.041-5.184-6.041c-3.965,0-5.55,3.599-5.795,6.041H303.88z"/>
			<path fill="#1F5221" d="M318.033,127.563c0-3.721-0.122-6.832-0.244-9.515h8.051l0.426,4.146h0.188
				c1.22-1.952,4.209-4.818,9.209-4.818c6.1,0,10.675,4.087,10.675,12.872v17.627h-9.271v-16.527c0-3.845-1.344-6.468-4.694-6.468
				c-2.563,0-4.087,1.771-4.757,3.478c-0.245,0.608-0.31,1.467-0.31,2.317v17.2h-9.271L318.033,127.563L318.033,127.563z"/>
			<path fill="#1F5221" d="M376.164,147.143c-1.647,0.793-4.758,1.403-8.296,1.403c-9.636,0-15.797-5.916-15.797-15.31
				c0-8.724,5.978-15.861,17.079-15.861c2.438,0,5.123,0.427,7.07,1.159l-1.464,6.893c-1.098-0.488-2.745-0.915-5.184-0.915
				c-4.88,0-8.053,3.478-7.991,8.357c0,5.488,3.661,8.417,8.173,8.417c2.196,0,3.904-0.365,5.311-0.978L376.164,147.143z"/>
			<path fill="#1F5221" d="M387.755,135.857c0.304,3.9,4.086,5.729,8.417,5.729c3.171,0,5.733-0.427,8.233-1.276l1.22,6.277
				c-3.048,1.281-6.771,1.895-10.794,1.895c-10.126,0-15.921-5.854-15.921-15.248c0-7.563,4.757-15.921,15.063-15.921
				c9.642,0,13.301,7.503,13.301,14.886c0,1.586-0.187,2.986-0.308,3.72L387.755,135.857z M398.673,129.518
				c0-2.197-0.977-6.041-5.186-6.041c-3.964,0-5.55,3.599-5.795,6.041H398.673z"/>
			<path fill="#1F5221" d="M412.764,139.824c1.708,1.035,5.247,2.195,7.991,2.195c2.808,0,3.965-0.916,3.965-2.438
				c0-1.587-0.916-2.317-4.331-3.478c-6.221-2.018-8.601-5.434-8.54-8.905c0-5.613,4.763-9.821,12.144-9.821
				c3.477,0,6.522,0.854,8.354,1.77l-1.587,6.343c-1.341-0.672-3.964-1.646-6.465-1.646c-2.257,0-3.537,0.914-3.537,2.379
				s1.159,2.193,4.818,3.479c5.671,1.891,7.987,4.817,8.052,9.146c0,5.609-4.332,9.696-12.87,9.696c-3.903,0-7.38-0.915-9.638-2.136
				L412.764,139.824z"/>
			<path fill="#1F5221" d="M451.925,107.374c3.416-0.61,7.868-0.914,12.504-0.914c7.868,0,12.992,1.28,16.896,4.27
				c4.271,3.172,6.954,8.295,6.954,15.616c0,7.867-2.867,13.297-6.771,16.649c-4.331,3.599-10.979,5.308-19.029,5.308
				c-4.815,0-8.297-0.305-10.553-0.609L451.925,107.374L451.925,107.374z M461.195,140.859c0.792,0.185,2.136,0.185,3.229,0.185
				c8.479,0.062,14.029-4.573,14.029-14.396c0-8.848-5.002-13.057-13.054-13.057c-2.018,0-3.416,0.184-4.209,0.366L461.195,140.859
				L461.195,140.859z"/>
			<path fill="#1F5221" d="M501.516,135.857c0.31,3.9,4.088,5.729,8.418,5.729c3.176,0,5.732-0.427,8.233-1.276l1.22,6.277
				c-3.05,1.281-6.771,1.895-10.796,1.895c-10.126,0-15.92-5.854-15.92-15.248c0-7.563,4.759-15.921,15.066-15.921
				c9.637,0,13.296,7.503,13.296,14.886c0,1.586-0.187,2.986-0.309,3.72L501.516,135.857z M512.434,129.518
				c0-2.197-0.976-6.041-5.185-6.041c-3.964,0-5.55,3.599-5.795,6.041H512.434z"/>
			<path fill="#1F5221" d="M526.524,139.824c1.706,1.035,5.241,2.195,7.986,2.195c2.811,0,3.964-0.916,3.964-2.438
				c0-1.587-0.91-2.317-4.326-3.478c-6.226-2.018-8.604-5.434-8.539-8.905c0-5.613,4.757-9.821,12.138-9.821
				c3.477,0,6.526,0.854,8.354,1.77l-1.585,6.343c-1.341-0.672-3.964-1.646-6.465-1.646c-2.258,0-3.538,0.914-3.538,2.379
				s1.159,2.193,4.818,3.479c5.672,1.891,7.99,4.817,8.053,9.146c0,5.609-4.333,9.696-12.87,9.696c-3.899,0-7.381-0.915-9.638-2.136
				L526.524,139.824z"/>
			<path fill="#1F5221" d="M575.443,147.143c-1.647,0.793-4.763,1.403-8.295,1.403c-9.644,0-15.804-5.916-15.804-15.31
				c0-8.724,5.979-15.861,17.079-15.861c2.439,0,5.123,0.427,7.075,1.159l-1.463,6.893c-1.101-0.488-2.747-0.915-5.188-0.915
				c-4.879,0-8.052,3.478-7.985,8.357c0,5.488,3.655,8.417,8.173,8.417c2.191,0,3.9-0.365,5.306-0.978L575.443,147.143z"/>
			<path fill="#1F5221" d="M580.629,127.869c0-4.393-0.061-7.26-0.243-9.822h7.934l0.361,5.551h0.245
				c1.524-4.393,5.123-6.222,8.056-6.222c0.853,0,1.277,0.062,1.947,0.183v8.723c-0.793-0.121-1.521-0.244-2.562-0.244
				c-3.416,0-5.733,1.771-6.345,4.696c-0.122,0.608-0.188,1.281-0.188,2.074v15.063h-9.271L580.629,127.869z"/>
			<path fill="#1F5221" d="M608.199,114.145c-3.109,0-5.123-2.196-5.123-4.941c0-2.805,2.074-4.94,5.246-4.94
				s5.123,2.135,5.184,4.94c0,2.746-2.012,4.941-5.244,4.941H608.199z M603.626,147.874v-29.827h9.271v29.827H603.626z"/>
			<path fill="#1F5221" d="M620.339,128.051c0-3.904-0.124-7.197-0.245-10.002h8.053l0.431,4.146h0.122
				c2.191-3.11,5.606-4.818,9.938-4.818c6.525,0,12.381,5.673,12.381,15.189c0,10.854-6.892,15.979-13.539,15.979
				c-3.601,0-6.401-1.464-7.742-3.415h-0.122v14.821h-9.271L620.339,128.051L620.339,128.051z M629.61,135.064
				c0,0.729,0.061,1.344,0.183,1.951c0.61,2.502,2.745,4.395,5.429,4.395c4.025,0,6.404-3.355,6.404-8.418
				c0-4.758-2.135-8.358-6.282-8.358c-2.624,0-4.938,1.954-5.55,4.699c-0.122,0.487-0.184,1.099-0.184,1.646V135.064L629.61,135.064
				z"/>
			<path fill="#1F5221" d="M667.184,109.936v8.112h6.648v6.83h-6.648v10.858c0,3.6,0.915,5.246,3.659,5.246
				c1.281,0,1.896-0.063,2.745-0.246l0.063,7.017c-1.16,0.429-3.416,0.793-5.979,0.793c-2.989,0-5.49-1.036-7.015-2.563
				c-1.708-1.771-2.563-4.635-2.563-8.844v-12.262h-3.966v-6.832h3.966v-5.611L667.184,109.936z"/>
			<path fill="#1F5221" d="M692.62,148.546c-8.722,0-15.433-5.733-15.433-15.37c0-9.639,6.345-15.799,15.979-15.799
				c9.09,0,15.188,6.282,15.188,15.311c0,10.856-7.743,15.858-15.677,15.858H692.62L692.62,148.546z M692.802,141.896
				c3.661,0,5.919-3.603,5.919-8.967c0-4.395-1.71-8.909-5.919-8.909c-4.391,0-6.098,4.515-6.098,8.967
				c0,5.063,2.135,8.902,6.037,8.902h0.061V141.896L692.802,141.896z"/>
			<path fill="#1F5221" d="M714.152,127.869c0-4.393-0.063-7.26-0.243-9.822h7.929l0.366,5.551h0.244
				c1.521-4.393,5.124-6.222,8.051-6.222c0.854,0,1.282,0.062,1.952,0.183v8.723c-0.793-0.121-1.525-0.244-2.563-0.244
				c-3.413,0-5.729,1.771-6.345,4.696c-0.121,0.608-0.182,1.281-0.182,2.074v15.063h-9.271L714.152,127.869z"/>
			<path fill="#1F5221" d="M737.21,139.824c1.707,1.035,5.246,2.195,7.991,2.195c2.806,0,3.964-0.916,3.964-2.438
				c0-1.587-0.916-2.317-4.33-3.478c-6.222-2.018-8.601-5.434-8.54-8.905c0-5.613,4.758-9.821,12.138-9.821
				c3.479,0,6.527,0.854,8.356,1.77l-1.586,6.343c-1.342-0.672-3.965-1.646-6.465-1.646c-2.258,0-3.538,0.914-3.538,2.379
				s1.159,2.193,4.813,3.479c5.677,1.891,7.99,4.817,8.057,9.146c0,5.609-4.332,9.696-12.869,9.696
				c-3.904,0-7.381-0.915-9.639-2.136L737.21,139.824z"/>
		</g>
		<g>
			<g>
				<g>
					<path fill="#FFFFFF" stroke="#999999" stroke-width="0.9741" d="M54.574,69.598c-5.034,3.873-11.054,5.918-17.235,5.345
						C23.056,73.614,13.35,58.807,15.658,41.87c1.046-7.667,4.388-14.437,9.043-19.45c0,0-9.913,7.525-11.755,19.934
						C9.727,64.04,22.17,81.941,39.983,83.597c8.699,0.81,17.146-2.551,23.853-8.649L54.574,69.598z"/>
					<path fill="#FFFFFF" stroke="#999999" stroke-width="0.9741" d="M86.795,19.187C70.374,5.595,47.899,7.382,37.56,21.979
						c-5.614,7.925-6.614,18.155-3.669,27.938l8.884-6.077c-1.481-7.035-0.409-14.163,3.6-19.823
						c8.292-11.706,25.969-12.707,39.482-2.239c6.117,4.738,10.308,11.018,12.323,17.555C98.18,39.333,97.529,28.073,86.795,19.187z
						"/>
					<path fill="#FFFFFF" stroke="#999999" stroke-width="0.9741" d="M92.968,49.902c-3.68-8.006-10.9-13.671-19.636-16.402v10.675
						c5.972,2.407,10.838,6.637,13.463,12.344c5.992,13.033-1.979,28.846-17.801,35.313c-7.163,2.93-14.697,3.42-21.365,1.896
						c0,0,5.805,4.811,23.141,0.212C91.374,88.473,100.44,66.156,92.968,49.902z"/>
					
						<linearGradient id="SVGID_1_" gradientUnits="userSpaceOnUse" x1="-92.4414" y1="1194.0596" x2="-133.8337" y2="1210.2321" gradientTransform="matrix(1 0 0 1 161.04 -1159.6602)">
						<stop  offset="0" style="stop-color:#FFFFFF"/>
						<stop  offset="1" style="stop-color:#1F5221"/>
					</linearGradient>
					<path fill="url(#SVGID_1_)" stroke="#999999" stroke-width="0.9741" d="M47.295,44.633c7.558-3.09,15.539-3.484,22.47-1.639
						V32.563c-8.167-1.738-17.336-1.046-26.054,2.516c-8.428,3.445-15.048,9.025-19.31,15.543l8.24,5.285
						C36.063,51.197,41.058,47.183,47.295,44.633z"/>
					
						<linearGradient id="SVGID_2_" gradientUnits="userSpaceOnUse" x1="-95.5269" y1="1228.1689" x2="-87.6109" y2="1185.7615" gradientTransform="matrix(1 0 0 1 161.04 -1159.6602)">
						<stop  offset="0" style="stop-color:#FFFFFF"/>
						<stop  offset="1" style="stop-color:#1F5221"/>
					</linearGradient>
					<path fill="url(#SVGID_2_)" stroke="#999999" stroke-width="0.9741" d="M73.642,23.856l-8.698,4.493
						c2.37,5.321,3.35,11.651,2.438,18.329c-1.102,8.085-4.745,15.188-9.805,20.267l8.993,5.259
						c5.604-6.207,9.603-14.506,10.878-23.854C78.678,39.328,77.157,30.805,73.642,23.856z"/>
					
						<linearGradient id="SVGID_3_" gradientUnits="userSpaceOnUse" x1="-120.4951" y1="1207.2021" x2="-91.1516" y2="1242.8175" gradientTransform="matrix(1 0 0 1 161.04 -1159.6602)">
						<stop  offset="0" style="stop-color:#FFFFFF"/>
						<stop  offset="1" style="stop-color:#1F5221"/>
					</linearGradient>
					<path fill="url(#SVGID_3_)" stroke="#999999" stroke-width="0.9741" d="M55.831,64.17
						c-6.161-4.773-10.384-11.106-12.379-17.694c-3.281,1.814-6.125,4.06-8.47,6.591c2.785,7.09,7.652,13.781,14.368,18.982
						C56.548,77.625,64.689,80.57,72.465,81l0.459-9.78C67.132,70.613,61.16,68.297,55.831,64.17z"/>
				</g>
				<g>
					<path fill="#1F5221" d="M113.404,14.147h26.662c13.877,0,24.33,3.203,31.362,9.607c7.031,6.404,10.546,16.313,10.546,29.724
						c0,13.413-3.516,23.473-10.546,30.18c-7.032,6.704-17.485,10.059-31.362,10.059h-26.662V14.147z M130.321,79.444h9.605
						c9.7,0,16.151-2.228,19.353-6.683c1.717-2.32,3.028-5.069,3.934-8.25c0.905-3.178,1.357-6.854,1.357-11.033
						c0-4.084-0.452-7.634-1.357-10.65c-0.905-3.017-2.217-5.639-3.934-7.867c-3.341-4.456-9.792-6.683-19.353-6.683h-9.605V79.444z
						"/>
					<path fill="#1F5221" d="M221.166,94.967c-4.827,0-9.119-0.684-12.878-2.052c-3.759-1.369-6.926-3.343-9.502-5.917
						c-2.576-2.576-4.524-5.709-5.847-9.396c-1.323-3.69-1.984-7.879-1.984-12.566c0-4.734,0.673-8.969,2.02-12.705
						c1.346-3.734,3.283-6.903,5.813-9.502c2.529-2.599,5.615-4.583,9.259-5.953c3.643-1.368,7.784-2.053,12.426-2.053
						c4.5,0,8.55,0.65,12.147,1.949c3.595,1.3,6.648,3.203,9.154,5.708c2.505,2.506,4.431,5.604,5.777,9.293
						c1.345,3.688,2.019,7.926,2.019,12.705v4.037h-41.49c0.046,2.877,0.406,5.338,1.08,7.379c0.672,2.043,1.588,3.725,2.75,5.047
						c1.159,1.323,2.517,2.287,4.072,2.891s3.282,0.904,5.187,0.904c3.108,0,5.662-0.649,7.657-1.949
						c1.994-1.299,3.341-3.411,4.038-6.336h15.593c-0.557,3.018-1.625,5.674-3.202,7.972c-1.579,2.296-3.55,4.224-5.918,5.778
						c-2.366,1.556-5.082,2.739-8.144,3.549C228.127,94.563,224.787,94.967,221.166,94.967z M233,58.77
						c-0.372-4.918-1.612-8.551-3.725-10.894c-2.111-2.344-5.046-3.516-8.806-3.516c-3.435,0-6.277,1.277-8.527,3.829
						c-2.251,2.552-3.493,6.08-3.724,10.58L233,58.77L233,58.77z"/>
					<path fill="#1F5221" d="M296,94.967c-5.616,0-10.767-0.894-15.454-2.68c-4.688-1.783-8.703-4.533-12.043-8.248
						c-3.436-3.759-5.952-8.121-7.554-13.087c-1.601-4.966-2.401-10.628-2.401-16.987c0-12.714,3.317-22.763,9.954-30.142
						c3.434-3.712,7.471-6.483,12.112-8.317c4.641-1.833,9.77-2.75,15.384-2.75c4.456,0,8.54,0.534,12.253,1.602
						c3.712,1.067,7.1,2.714,10.163,4.943c3.759,2.783,6.521,5.964,8.284,9.537c1.763,3.573,2.898,7.611,3.411,12.112h-16.986
						c-0.557-4.315-2.32-7.692-5.29-10.128c-2.97-2.438-6.916-3.655-11.835-3.655c-3.017,0-5.768,0.592-8.249,1.775
						c-2.483,1.184-4.595,2.914-6.334,5.186c-1.741,2.274-3.087,5.082-4.038,8.423c-0.952,3.342-1.427,7.147-1.427,11.417
						c0,4.27,0.464,8.064,1.393,11.382c0.928,3.318,2.25,6.126,3.969,8.423c1.716,2.297,3.804,4.039,6.265,5.221
						c2.458,1.185,5.221,1.775,8.284,1.775c4.918,0,8.864-1.264,11.835-3.793c2.969-2.529,4.776-6.162,5.429-10.895h16.847
						c-0.511,4.641-1.636,8.76-3.376,12.356c-1.738,3.597-4.143,6.695-7.205,9.293c-3.063,2.507-6.521,4.339-10.373,5.499
						C305.165,94.388,300.827,94.967,296,94.967z"/>
					<path fill="#1F5221" d="M374.176,94.967c-10.813,0-19.283-2.296-25.409-6.891c-6.125-4.594-9.443-11.557-9.954-20.885h16.291
						c0.557,4.781,2.424,8.354,5.604,10.721c3.179,2.367,7.529,3.551,13.053,3.551c5.059,0,9.063-0.881,12.009-2.646
						c2.946-1.762,4.419-4.314,4.419-7.656c0-1.484-0.356-2.738-1.075-3.76c-0.723-1.02-1.812-1.914-3.272-2.68
						c-1.462-0.766-3.285-1.473-5.465-2.123c-2.182-0.65-4.758-1.346-7.726-2.089l-2.995-0.835
						c-3.761-0.975-7.333-1.961-10.722-2.959s-6.357-2.32-8.909-3.969c-2.554-1.646-4.583-3.781-6.093-6.403
						c-1.508-2.622-2.262-6.022-2.262-10.199c0-3.992,0.835-7.46,2.506-10.408c1.671-2.946,3.935-5.384,6.787-7.309
						c2.854-1.926,6.161-3.352,9.919-4.282c3.76-0.926,7.729-1.392,11.905-1.392c4.825,0,9.199,0.568,13.122,1.706
						c3.922,1.138,7.285,2.773,10.096,4.908c2.809,2.136,4.998,4.746,6.576,7.831c1.578,3.087,2.436,6.579,2.578,10.477h-16.432
						c-0.418-3.759-1.983-6.601-4.698-8.527c-2.716-1.924-6.463-2.889-11.242-2.889c-4.595,0-8.122,0.825-10.581,2.472
						c-2.461,1.647-3.691,3.91-3.691,6.788c0,1.346,0.313,2.495,0.94,3.445c0.627,0.95,1.601,1.787,2.923,2.505
						c1.323,0.721,3.017,1.381,5.083,1.984c2.064,0.603,4.536,1.252,7.414,1.949c2.877,0.649,5.674,1.3,8.389,1.948
						c2.714,0.649,5.27,1.393,7.657,2.228c2.393,0.836,4.57,1.822,6.545,2.959c1.973,1.138,3.654,2.519,5.047,4.143
						c1.393,1.625,2.48,3.55,3.271,5.777c0.787,2.228,1.184,4.851,1.184,7.866c0,3.944-0.775,7.45-2.332,10.511
						c-1.555,3.064-3.76,5.64-6.611,7.728c-2.854,2.089-6.303,3.679-10.34,4.77C383.643,94.422,379.141,94.967,374.176,94.967z"/>
					<path fill="#1F5221" d="M448.313,14.147l-23.041,79.569h-13.574l22.973-79.569H448.313z"/>
					<path fill="#1F5221" d="M540.551,93.717h-15.246V30.855l-18.934,62.862h-15.453l-19.354-62.862v62.862H456.18v-79.57h24.367
						l17.959,60.146l17.82-60.146h24.227v79.569L540.551,93.717L540.551,93.717z"/>
					<path fill="#1F5221" d="M582.736,94.967c-4.828,0-9.119-0.684-12.879-2.052c-3.76-1.369-6.93-3.343-9.506-5.917
						c-2.572-2.576-4.521-5.709-5.846-9.396c-1.32-3.69-1.98-7.879-1.98-12.566c0-4.734,0.672-8.969,2.018-12.705
						c1.346-3.734,3.283-6.903,5.813-9.502c2.53-2.599,5.615-4.583,9.26-5.953c3.645-1.368,7.783-2.053,12.428-2.053
						c4.502,0,8.549,0.65,12.146,1.949c3.596,1.3,6.648,3.203,9.152,5.708c2.508,2.506,4.432,5.604,5.779,9.293
						c1.348,3.688,2.018,7.926,2.018,12.705v4.037H569.65c0.047,2.877,0.402,5.338,1.078,7.379c0.672,2.043,1.59,3.725,2.75,5.047
						c1.158,1.323,2.518,2.287,4.07,2.891c1.555,0.604,3.281,0.904,5.188,0.904c3.107,0,5.66-0.649,7.658-1.949
						c1.992-1.299,3.342-3.411,4.035-6.336h15.596c-0.561,3.018-1.625,5.674-3.203,7.972c-1.578,2.296-3.549,4.224-5.916,5.778
						c-2.367,1.556-5.082,2.739-8.146,3.549C589.697,94.563,586.355,94.967,582.736,94.967z M594.57,58.77
						c-0.373-4.918-1.611-8.551-3.727-10.894c-2.109-2.344-5.047-3.516-8.807-3.516c-3.436,0-6.275,1.277-8.525,3.829
						c-2.252,2.552-3.494,6.08-3.725,10.58L594.57,58.77L594.57,58.77z"/>
					<path fill="#1F5221" d="M654.021,94.967c-10.816,0-19.285-2.296-25.41-6.891c-6.127-4.594-9.445-11.557-9.955-20.885h16.289
						c0.557,4.781,2.426,8.354,5.604,10.721c3.18,2.367,7.531,3.551,13.053,3.551c5.059,0,9.063-0.881,12.01-2.646
						c2.945-1.762,4.422-4.314,4.422-7.656c0-1.484-0.361-2.738-1.08-3.76c-0.719-1.02-1.811-1.914-3.271-2.68
						c-1.461-0.766-3.281-1.473-5.465-2.123c-2.182-0.65-4.758-1.346-7.727-2.089l-2.996-0.835
						c-3.758-0.975-7.332-1.961-10.723-2.959c-3.389-0.998-6.355-2.32-8.906-3.969c-2.555-1.646-4.584-3.781-6.096-6.403
						c-1.506-2.622-2.262-6.022-2.262-10.199c0-3.992,0.836-7.46,2.506-10.408c1.67-2.946,3.938-5.384,6.787-7.309
						c2.855-1.926,6.162-3.352,9.92-4.282c3.76-0.926,7.729-1.392,11.904-1.392c4.828,0,9.201,0.568,13.123,1.706
						c3.92,1.138,7.283,2.773,10.094,4.908c2.807,2.136,5,4.746,6.578,7.831c1.576,3.087,2.436,6.579,2.576,10.477h-16.432
						c-0.416-3.759-1.98-6.601-4.697-8.527c-2.715-1.924-6.463-2.889-11.242-2.889c-4.594,0-8.121,0.825-10.58,2.472
						c-2.461,1.647-3.689,3.91-3.689,6.788c0,1.346,0.313,2.495,0.938,3.445c0.627,0.95,1.602,1.787,2.926,2.505
						c1.32,0.721,3.018,1.381,5.08,1.984c2.064,0.603,4.537,1.252,7.416,1.949c2.875,0.649,5.672,1.3,8.389,1.948
						c2.715,0.649,5.266,1.393,7.654,2.228c2.392,0.836,4.572,1.822,6.545,2.959c1.975,1.138,3.654,2.519,5.047,4.143
						c1.395,1.625,2.484,3.55,3.273,5.777c0.785,2.228,1.182,4.851,1.182,7.866c0,3.944-0.773,7.45-2.332,10.511
						c-1.555,3.064-3.756,5.64-6.609,7.728c-2.854,2.089-6.303,3.679-10.339,4.77C663.488,94.422,658.984,94.967,654.021,94.967z"/>
					<path fill="#1F5221" d="M765.262,93.717h-16.848V59.049h-31.951v34.668h-16.916v-79.57h16.916v30.839h31.951V14.147h16.848
						V93.717z"/>
				</g>
			</g>
		</g>
	</g>
	<rect x="277.907" y="170.346" fill="#FFFF00" width="218.186" height="74.347"/>
	<g>
		<path d="M305.337,183.171h23.23v4.672h-17.599v14.335h16.255v4.607h-16.255v19.519h-5.632V183.171z"/>
		<path d="M340.985,186.627c0,1.92-1.344,3.455-3.584,3.455c-2.048,0-3.392-1.535-3.392-3.455s1.408-3.521,3.52-3.521
			C339.577,183.106,340.985,184.643,340.985,186.627z M334.714,226.304V195.33h5.632v30.974H334.714z"/>
		<path d="M349.689,203.713c0-3.264-0.064-5.823-0.256-8.383h4.991l0.32,5.119h0.128c1.536-2.88,5.12-5.759,10.239-5.759
			c4.288,0,10.943,2.56,10.943,13.183v18.431h-5.632v-17.854c0-4.992-1.855-9.151-7.167-9.151c-3.648,0-6.528,2.624-7.552,5.76
			c-0.256,0.703-0.384,1.663-0.384,2.623v18.623h-5.632V203.713z"/>
		<path d="M411.896,180.867v37.438c0,2.751,0.128,5.887,0.256,7.999h-4.992l-0.256-5.376h-0.191
			c-1.664,3.456-5.376,6.08-10.432,6.08c-7.487,0-13.312-6.336-13.312-15.743c-0.063-10.303,6.4-16.574,13.888-16.574
			c4.8,0,7.936,2.239,9.344,4.671h0.127v-18.494H411.896z M406.327,207.938c0-0.704-0.063-1.664-0.256-2.368
			c-0.832-3.52-3.903-6.464-8.127-6.464c-5.824,0-9.279,5.12-9.279,11.903c0,6.271,3.136,11.455,9.151,11.455
			c3.776,0,7.231-2.56,8.255-6.72c0.192-0.768,0.256-1.535,0.256-2.432V207.938z"/>
		<path d="M424.44,211.841c0.129,7.615,4.928,10.751,10.623,10.751c4.032,0,6.527-0.704,8.576-1.6l1.023,4.031
			c-1.984,0.896-5.439,1.984-10.367,1.984c-9.535,0-15.23-6.336-15.23-15.679c0-9.344,5.504-16.639,14.527-16.639
			c10.174,0,12.799,8.831,12.799,14.526c0,1.152-0.064,1.984-0.192,2.624H424.44z M440.952,207.809
			c0.063-3.52-1.473-9.087-7.809-9.087c-5.76,0-8.191,5.184-8.639,9.087H440.952z"/>
		<path d="M453.368,204.993c0-3.647-0.064-6.783-0.256-9.663h4.928l0.256,6.144h0.192c1.407-4.16,4.863-6.783,8.64-6.783
			c0.576,0,1.023,0.063,1.535,0.128v5.312c-0.576-0.128-1.152-0.128-1.92-0.128c-3.967,0-6.783,2.943-7.551,7.167
			c-0.129,0.769-0.192,1.729-0.192,2.624v16.511h-5.632V204.993z"/>
	</g>
</g>
</svg>
