<?xml version="1.0" encoding="utf-8"?>
<!-- Generator: Adobe Illustrator 14.0.0, SVG Export Plug-In . SVG Version: 6.00 Build 43363)  -->
<!DOCTYPE svg PUBLIC "-//W3C//DTD SVG 1.1//EN" "http://www.w3.org/Graphics/SVG/1.1/DTD/svg11.dtd">
<svg version="1.1" id="Camada_1" xmlns="http://www.w3.org/2000/svg" xmlns:xlink="http://www.w3.org/1999/xlink" x="0px" y="0px"
	 width="774px" height="250px" viewBox="0 0 774 250" enable-background="new 0 0 774 250" xml:space="preserve">
<g>
	<rect x="180.907" y="169.501" fill="#FFFF00" width="412.186" height="74.347"/>
	<g enable-background="new    ">
		<path d="M226.434,223.089h-5.521V204.48h-17.027v18.606h-5.521V182.55h5.521v17.151h17.027V182.55h5.521V223.089z"/>
		<path d="M245.416,196.416h-9.213v-4.467h14.671v26.643h9.272v4.497H235.18v-4.497h10.236V196.416L245.416,196.416z
			 M247.307,178.893c0.601,0,1.158,0.108,1.677,0.325c0.516,0.218,0.966,0.522,1.349,0.915s0.683,0.844,0.899,1.35
			c0.217,0.51,0.325,1.063,0.325,1.66c0,0.578-0.108,1.127-0.325,1.646c-0.218,0.519-0.518,0.972-0.899,1.362
			c-0.383,0.396-0.833,0.697-1.349,0.914c-0.519,0.22-1.076,0.326-1.677,0.326c-0.6,0-1.157-0.106-1.674-0.326
			c-0.518-0.217-0.967-0.521-1.35-0.914c-0.383-0.393-0.683-0.849-0.899-1.362c-0.217-0.519-0.325-1.063-0.325-1.646
			c0-0.601,0.108-1.15,0.325-1.66c0.218-0.506,0.518-0.957,0.899-1.35c0.381-0.393,0.832-0.697,1.35-0.915
			C246.148,179.001,246.707,178.893,247.307,178.893z"/>
		<path d="M292.155,196.354c0.579,0.728,1.027,1.566,1.349,2.528c0.32,0.961,0.48,2,0.48,3.116c0,1.613-0.294,3.087-0.884,4.42
			c-0.59,1.334-1.422,2.477-2.497,3.428c-1.074,0.951-2.361,1.69-3.861,2.217c-1.498,0.527-3.147,0.791-4.946,0.791
			c-1.303,0-2.521-0.14-3.659-0.418c-1.139-0.276-2.037-0.625-2.699-1.039c-0.393,0.58-0.724,1.127-0.991,1.646
			c-0.271,0.52-0.403,1.098-0.403,1.734c0,0.785,0.377,1.438,1.132,1.953c0.755,0.521,1.753,0.797,2.993,0.838l8.188,0.313
			c1.552,0.042,2.982,0.238,4.296,0.59c1.313,0.354,2.438,0.858,3.381,1.521c0.94,0.662,1.676,1.479,2.202,2.451
			c0.526,0.972,0.791,2.099,0.791,3.381c0,1.385-0.301,2.697-0.899,3.938c-0.6,1.241-1.525,2.331-2.775,3.271
			c-1.252,0.939-2.838,1.689-4.762,2.25c-1.922,0.558-4.207,0.837-6.854,0.837c-2.523,0-4.668-0.201-6.437-0.604
			c-1.769-0.401-3.221-0.962-4.357-1.675c-1.139-0.714-1.965-1.562-2.481-2.544c-0.517-0.98-0.775-2.063-0.775-3.24
			c0-1.51,0.353-2.834,1.056-3.971c0.703-1.137,1.789-2.232,3.257-3.287c-0.538-0.248-1.003-0.559-1.396-0.932
			c-0.393-0.371-0.713-0.779-0.961-1.227c-0.249-0.443-0.436-0.912-0.559-1.41c-0.125-0.496-0.188-0.98-0.188-1.457
			c0-1.346,0.315-2.574,0.946-3.69c0.631-1.116,1.38-2.171,2.248-3.163c-0.393-0.477-0.739-0.939-1.039-1.396
			c-0.3-0.455-0.559-0.943-0.774-1.474c-0.217-0.528-0.384-1.096-0.496-1.706c-0.113-0.609-0.17-1.308-0.17-2.093
			c0-1.613,0.294-3.087,0.883-4.42c0.59-1.334,1.416-2.478,2.481-3.429c1.064-0.949,2.347-1.689,3.847-2.217
			c1.498-0.527,3.157-0.791,4.978-0.791c0.765,0,1.499,0.053,2.202,0.152c0.703,0.104,1.322,0.238,1.861,0.403h11.289v4.401h-4.994
			v0.002H292.155L292.155,196.354z M273.422,227.586c0,1.469,0.766,2.538,2.295,3.21c1.53,0.672,3.66,1.009,6.39,1.009
			c1.717,0,3.157-0.154,4.326-0.466c1.168-0.312,2.109-0.719,2.822-1.225c0.714-0.509,1.227-1.087,1.536-1.737s0.465-1.318,0.465-2
			c0-1.262-0.518-2.191-1.551-2.792c-1.034-0.601-2.616-0.95-4.746-1.056l-8.125-0.278c-0.683,0.455-1.246,0.899-1.691,1.334
			c-0.443,0.435-0.791,0.873-1.039,1.317c-0.247,0.445-0.424,0.89-0.526,1.334C273.473,226.682,273.422,227.131,273.422,227.586z
			 M275.065,202.122c0,0.993,0.165,1.903,0.497,2.729c0.329,0.824,0.795,1.527,1.395,2.106s1.309,1.028,2.125,1.353
			c0.816,0.318,1.721,0.479,2.714,0.479c1.075,0,2.032-0.182,2.869-0.543s1.54-0.854,2.108-1.475
			c0.567-0.621,1.003-1.334,1.303-2.142c0.3-0.807,0.45-1.646,0.45-2.513c0-0.992-0.166-1.901-0.497-2.729
			c-0.33-0.826-0.795-1.529-1.396-2.107c-0.601-0.579-1.309-1.028-2.125-1.353c-0.815-0.319-1.721-0.479-2.714-0.479
			c-1.075,0-2.031,0.188-2.868,0.559c-0.838,0.372-1.541,0.863-2.108,1.476c-0.569,0.607-1.004,1.315-1.304,2.125
			C275.214,200.417,275.065,201.254,275.065,202.122z"/>
		<path d="M329.684,223.089h-5.396v-19.881c0-2.397-0.449-4.19-1.353-5.381c-0.896-1.188-2.186-1.783-3.858-1.783
			c-0.727,0-1.4,0.099-2.031,0.294c-0.631,0.197-1.287,0.538-1.969,1.023c-0.687,0.486-1.428,1.144-2.234,1.97
			c-0.806,0.827-1.733,1.86-2.791,3.103v20.655h-5.396v-43.823h5.396v12.687l-0.186,4.897c0.848-1.013,1.68-1.865,2.496-2.559
			c0.813-0.691,1.633-1.256,2.45-1.689c0.814-0.435,1.646-0.744,2.494-0.932c0.851-0.186,1.729-0.277,2.64-0.277
			c3.102,0,5.5,0.944,7.192,2.838c1.695,1.894,2.543,4.74,2.543,8.543L329.684,223.089L329.684,223.089z"/>
		<path d="M350.186,183.699h-9.213v-4.436h14.672v39.325h9.273v4.497h-24.969v-4.497h10.233L350.186,183.699L350.186,183.699z"/>
		<path d="M385.107,196.416h-9.211v-4.467h14.67v26.643h9.271v4.497H374.87v-4.497h10.233L385.107,196.416L385.107,196.416z
			 M387,178.893c0.6,0,1.158,0.108,1.676,0.325c0.519,0.218,0.965,0.522,1.351,0.915c0.383,0.393,0.684,0.844,0.897,1.35
			c0.217,0.51,0.326,1.063,0.326,1.66c0,0.578-0.109,1.127-0.326,1.646s-0.518,0.972-0.897,1.362
			c-0.386,0.396-0.832,0.697-1.351,0.914c-0.518,0.22-1.076,0.326-1.676,0.326s-1.158-0.106-1.674-0.326
			c-0.521-0.217-0.967-0.521-1.353-0.914c-0.383-0.394-0.684-0.849-0.897-1.362c-0.216-0.519-0.324-1.063-0.324-1.646
			c0-0.601,0.107-1.15,0.324-1.66c0.217-0.506,0.518-0.957,0.897-1.35c0.385-0.393,0.832-0.697,1.353-0.915
			C385.842,179.001,386.4,178.893,387,178.893z"/>
		<path d="M431.848,196.354c0.578,0.728,1.029,1.566,1.353,2.528c0.317,0.961,0.479,2,0.479,3.116c0,1.613-0.295,3.087-0.885,4.42
			c-0.588,1.334-1.422,2.477-2.496,3.428s-2.36,1.69-3.86,2.217c-1.5,0.527-3.146,0.791-4.945,0.791c-1.305,0-2.521-0.14-3.66-0.418
			c-1.137-0.276-2.035-0.625-2.697-1.039c-0.393,0.58-0.725,1.127-0.992,1.646c-0.27,0.52-0.401,1.098-0.401,1.734
			c0,0.785,0.377,1.438,1.133,1.953c0.754,0.521,1.752,0.797,2.992,0.838l8.188,0.313c1.552,0.042,2.982,0.238,4.295,0.59
			c1.313,0.354,2.439,0.858,3.382,1.521c0.938,0.662,1.676,1.479,2.2,2.451c0.527,0.971,0.791,2.099,0.791,3.381
			c0,1.385-0.299,2.697-0.896,3.938c-0.603,1.241-1.525,2.331-2.775,3.271c-1.252,0.939-2.838,1.689-4.762,2.25
			c-1.924,0.558-4.207,0.837-6.854,0.837c-2.521,0-4.668-0.201-6.438-0.604c-1.771-0.401-3.222-0.962-4.357-1.675
			c-1.137-0.714-1.965-1.562-2.479-2.544c-0.521-0.98-0.775-2.063-0.775-3.24c0-1.51,0.354-2.834,1.056-3.971
			s1.786-2.232,3.257-3.287c-0.536-0.248-1.002-0.559-1.396-0.932c-0.396-0.371-0.715-0.779-0.963-1.227
			c-0.248-0.443-0.435-0.912-0.558-1.41c-0.125-0.496-0.188-0.98-0.188-1.457c0-1.346,0.315-2.574,0.947-3.69
			c0.629-1.116,1.379-2.171,2.248-3.163c-0.396-0.477-0.74-0.939-1.039-1.396c-0.302-0.455-0.562-0.943-0.775-1.474
			c-0.215-0.528-0.383-1.096-0.496-1.706c-0.11-0.609-0.17-1.308-0.17-2.093c0-1.613,0.293-3.087,0.884-4.42
			c0.592-1.334,1.415-2.478,2.479-3.429c1.065-0.949,2.348-1.689,3.848-2.217c1.498-0.527,3.158-0.791,4.979-0.791
			c0.766,0,1.5,0.053,2.203,0.152c0.702,0.104,1.319,0.238,1.858,0.403h11.289v4.401h-4.995v0.002H431.848L431.848,196.354z
			 M413.115,227.586c0,1.469,0.764,2.538,2.295,3.21c1.529,0.672,3.66,1.009,6.389,1.009c1.717,0,3.158-0.154,4.326-0.466
			s2.109-0.719,2.822-1.225c0.715-0.509,1.227-1.087,1.535-1.737c0.311-0.65,0.467-1.318,0.467-2c0-1.262-0.521-2.191-1.553-2.792
			c-1.033-0.601-2.615-0.95-4.744-1.056l-8.125-0.278c-0.687,0.455-1.246,0.899-1.691,1.334s-0.791,0.873-1.039,1.317
			c-0.248,0.445-0.424,0.89-0.527,1.334C413.166,226.682,413.115,227.131,413.115,227.586z M414.758,202.122
			c0,0.993,0.166,1.903,0.496,2.729c0.332,0.824,0.797,1.527,1.396,2.106c0.599,0.579,1.307,1.028,2.125,1.353
			c0.813,0.317,1.721,0.479,2.713,0.479c1.076,0,2.028-0.182,2.869-0.543c0.838-0.361,1.541-0.854,2.106-1.475
			c0.568-0.621,1.002-1.334,1.303-2.142c0.302-0.807,0.449-1.646,0.449-2.513c0-0.992-0.166-1.901-0.496-2.729
			c-0.33-0.828-0.797-1.529-1.395-2.107c-0.604-0.579-1.312-1.028-2.125-1.353c-0.818-0.319-1.726-0.479-2.715-0.479
			c-1.074,0-2.031,0.188-2.869,0.559c-0.836,0.372-1.539,0.863-2.107,1.476c-0.567,0.607-1.004,1.315-1.303,2.125
			C414.908,200.417,414.758,201.254,414.758,202.122z"/>
		<path d="M469.377,223.089h-5.396v-19.881c0-2.397-0.449-4.19-1.353-5.381c-0.896-1.188-2.186-1.783-3.859-1.783
			c-0.727,0-1.399,0.099-2.03,0.294c-0.631,0.197-1.287,0.538-1.97,1.023c-0.686,0.486-1.43,1.144-2.233,1.97
			c-0.808,0.827-1.736,1.86-2.791,3.103v20.655h-5.396v-43.823h5.396v12.687l-0.188,4.897c0.851-1.013,1.683-1.865,2.496-2.559
			c0.816-0.691,1.635-1.256,2.451-1.689c0.816-0.435,1.648-0.744,2.496-0.932c0.848-0.186,1.729-0.277,2.637-0.277
			c3.104,0,5.5,0.944,7.195,2.838s2.543,4.74,2.543,8.543L469.377,223.089L469.377,223.089z"/>
		<path d="M504.361,222.654c-1.222,0.311-2.48,0.531-3.783,0.666c-1.303,0.136-2.627,0.203-3.971,0.203
			c-3.908,0-6.822-0.885-8.746-2.652c-1.922-1.768-2.888-4.48-2.888-8.143v-16.252h-8.715v-4.527h8.715v-8.561l5.396-1.396v9.956
			h13.988v4.526H490.37v15.817c0,2.231,0.596,3.901,1.785,5.01c1.188,1.105,2.938,1.658,5.256,1.658
			c0.992,0,2.078-0.076,3.258-0.231c1.178-0.153,2.408-0.396,3.689-0.729L504.361,222.654L504.361,222.654z"/>
		<path d="M540.494,205.875c0,0.766-0.01,1.406-0.031,1.923c-0.02,0.519-0.051,1.004-0.092,1.458h-21.867
			c0,3.186,0.889,5.63,2.668,7.335c1.777,1.706,4.342,2.56,7.691,2.56c0.91,0,1.817-0.033,2.729-0.106
			c0.908-0.069,1.787-0.17,2.638-0.294c0.848-0.124,1.657-0.266,2.436-0.419c0.777-0.155,1.494-0.326,2.156-0.515v4.438
			c-1.472,0.414-3.129,0.75-4.979,1.01c-1.852,0.26-3.77,0.389-5.754,0.389c-2.666,0-4.963-0.361-6.885-1.086
			c-1.924-0.726-3.5-1.771-4.73-3.147c-1.229-1.374-2.141-3.06-2.729-5.056c-0.59-1.994-0.885-4.254-0.885-6.776
			c0-2.19,0.313-4.265,0.944-6.219c0.629-1.953,1.553-3.671,2.762-5.148c1.209-1.477,2.691-2.651,4.449-3.52
			c1.757-0.869,3.752-1.304,5.984-1.304c2.172,0,4.096,0.342,5.771,1.021c1.678,0.684,3.087,1.646,4.233,2.896
			c1.146,1.252,2.017,2.771,2.605,4.563C540.199,201.663,540.494,203.663,540.494,205.875z M534.881,205.1
			c0.063-1.385-0.072-2.648-0.404-3.799c-0.33-1.146-0.842-2.135-1.532-2.962c-0.691-0.827-1.558-1.474-2.593-1.938
			c-1.03-0.465-2.229-0.695-3.598-0.695c-1.178,0-2.254,0.229-3.225,0.684c-0.976,0.454-1.813,1.098-2.515,1.924
			c-0.7,0.826-1.271,1.817-1.707,2.979c-0.434,1.158-0.7,2.43-0.807,3.814h16.378L534.881,205.1L534.881,205.1z"/>
		<path d="M550.389,191.949h4.935l0.151,5.738c1.845-2.213,3.654-3.815,5.443-4.811c1.789-0.992,3.594-1.486,5.412-1.486
			c3.227,0,5.672,1.045,7.336,3.133s2.434,5.188,2.311,9.305h-5.459c0.063-2.729-0.336-4.709-1.19-5.939
			c-0.859-1.229-2.115-1.845-3.771-1.845c-0.723,0-1.453,0.129-2.186,0.388c-0.734,0.26-1.488,0.672-2.264,1.24
			c-0.775,0.569-1.601,1.299-2.47,2.188c-0.869,0.892-1.799,1.967-2.791,3.228v20.005h-5.459L550.389,191.949L550.389,191.949z"/>
	</g>
	<g>
		<g>
			<path fill="#1F5221" d="M13.185,119.595c2.863-0.46,6.595-0.768,10.48-0.768c6.596,0,10.889,1.228,14.162,3.683
				c3.578,2.657,5.828,6.899,5.828,12.986c0,6.593-2.403,11.146-5.675,13.954c-3.63,3.017-9.202,4.448-15.951,4.448
				c-4.039,0-6.953-0.254-8.845-0.51L13.185,119.595L13.185,119.595z M20.956,147.66c0.665,0.152,1.789,0.152,2.709,0.152
				c7.105,0.054,11.759-3.832,11.759-12.064c0-7.155-4.192-10.939-10.94-10.939c-1.688,0-2.863,0.154-3.528,0.307V147.66z"/>
			<path fill="#1F5221" d="M54.494,143.521c0.205,3.221,3.425,4.754,7.054,4.754c2.659,0,4.806-0.358,6.902-1.074l1.022,5.265
				c-2.557,1.074-5.675,1.586-9.049,1.586c-8.487,0-13.343-4.907-13.343-12.729c0-6.34,3.937-13.342,12.627-13.342
				c8.078,0,11.145,6.287,11.145,12.473c0,1.33-0.153,2.505-0.255,3.068H54.494L54.494,143.521z M63.646,138.203
				c0-1.895-0.818-5.061-4.398-5.061c-3.271,0-4.6,3.015-4.805,5.061H63.646z"/>
			<path fill="#1F5221" d="M75.455,146.792c1.432,0.868,4.397,1.841,6.698,1.841c2.352,0,3.324-0.767,3.324-2.046
				c0-1.329-0.768-1.94-3.631-2.914c-5.215-1.737-7.209-4.548-7.157-7.516c0-4.701,3.988-8.23,10.173-8.23
				c2.915,0,5.471,0.716,7.004,1.483l-1.329,5.367c-1.125-0.612-3.323-1.43-5.419-1.43c-1.892,0-2.966,0.766-2.966,1.993
				s0.971,1.841,4.039,2.912c4.754,1.636,6.697,4.09,6.748,7.722c0,4.7-3.63,8.127-10.787,8.127c-3.272,0-6.186-0.766-8.077-1.787
				L75.455,146.792z"/>
			<path fill="#1F5221" d="M116.456,152.876c-1.381,0.664-3.987,1.176-6.954,1.176c-8.078,0-13.241-4.96-13.241-12.782
				c0-7.309,5.01-13.289,14.314-13.289c2.045,0,4.294,0.357,5.93,0.971l-1.228,5.777c-0.92-0.41-2.3-0.768-4.345-0.768
				c-4.09,0-6.749,2.915-6.697,7.002c0,4.553,3.067,7.006,6.851,7.006c1.841,0,3.272-0.307,4.448-0.818L116.456,152.876z"/>
			<path fill="#1F5221" d="M120.751,136.771c0-3.683-0.051-6.086-0.205-8.23h6.646l0.308,4.602h0.204
				c1.278-3.682,4.295-5.216,6.749-5.216c0.715,0,1.073,0.054,1.636,0.154v7.31c-0.614-0.102-1.228-0.203-2.097-0.203
				c-2.863,0-4.806,1.535-5.317,3.938c-0.103,0.509-0.153,1.123-0.153,1.734v12.681h-7.77L120.751,136.771L120.751,136.771z"/>
			<path fill="#1F5221" d="M148.205,121.587c0,2.149-1.586,3.887-4.193,3.887c-2.454,0-4.038-1.738-4.038-3.887
				c0-2.197,1.636-3.885,4.141-3.885C146.619,117.703,148.153,119.39,148.205,121.587z M140.178,153.54v-24.999h7.77v24.999H140.178
				z"/>
			<path fill="#1F5221" d="M162.875,121.792v6.749h5.573v5.727h-5.573v9.047c0,3.018,0.767,4.396,3.067,4.396
				c1.074,0,1.584-0.051,2.3-0.203l0.052,5.881c-0.971,0.357-2.862,0.663-5.01,0.663c-2.505,0-4.601-0.87-5.879-2.146
				c-1.432-1.483-2.147-3.889-2.147-7.415v-10.224h-3.324v-5.727h3.324v-4.653L162.875,121.792z"/>
			<path fill="#1F5221" d="M197.385,140.76c0,9.15-6.493,13.344-13.19,13.344c-7.311,0-12.934-4.807-12.934-12.884
				c0-8.128,5.317-13.293,13.394-13.293C192.272,127.927,197.385,133.191,197.385,140.76z M179.288,141.016
				c0,4.295,1.789,7.517,5.111,7.517c3.068,0,4.96-3.017,4.96-7.568c0-3.681-1.433-7.464-4.96-7.464
				C180.719,133.499,179.288,137.334,179.288,141.016z"/>
			<path fill="#1F5221" d="M202.191,136.771c0-3.683-0.051-6.086-0.205-8.23h6.647l0.305,4.602h0.205
				c1.278-3.682,4.294-5.216,6.749-5.216c0.716,0,1.074,0.054,1.635,0.154v7.31c-0.612-0.102-1.227-0.203-2.095-0.203
				c-2.864,0-4.806,1.535-5.318,3.938c-0.102,0.509-0.153,1.123-0.153,1.734v12.681h-7.77V136.771z"/>
			<path fill="#1F5221" d="M227.191,143.521c0.204,3.221,3.426,4.754,7.054,4.754c2.659,0,4.807-0.358,6.903-1.074l1.022,5.265
				c-2.556,1.074-5.674,1.586-9.048,1.586c-8.487,0-13.343-4.907-13.343-12.729c0-6.34,3.936-13.342,12.627-13.342
				c8.078,0,11.145,6.287,11.145,12.473c0,1.33-0.153,2.505-0.255,3.068H227.191L227.191,143.521z M236.343,138.203
				c0-1.895-0.818-5.061-4.397-5.061c-3.271,0-4.601,3.015-4.805,5.061H236.343z"/>
			<path fill="#1F5221" d="M248.152,146.792c1.432,0.868,4.396,1.841,6.698,1.841c2.351,0,3.323-0.767,3.323-2.046
				c0-1.329-0.768-1.94-3.63-2.914c-5.216-1.737-7.209-4.548-7.158-7.516c0-4.701,3.988-8.23,10.172-8.23
				c2.915,0,5.471,0.716,7.005,1.483l-1.329,5.367c-1.125-0.612-3.323-1.43-5.42-1.43c-1.891,0-2.964,0.766-2.964,1.993
				s0.97,1.841,4.038,2.912c4.755,1.636,6.697,4.09,6.749,7.722c0,4.7-3.631,8.127-10.787,8.127c-3.272,0-6.187-0.766-8.078-1.787
				L248.152,146.792z"/>
			<path fill="#1F5221" d="M286.699,143.521c0.204,3.221,3.425,4.754,7.056,4.754c2.658,0,4.805-0.358,6.901-1.074l1.023,5.265
				c-2.556,1.074-5.674,1.586-9.05,1.586c-8.487,0-13.343-4.907-13.343-12.729c0-6.34,3.936-13.342,12.627-13.342
				c8.077,0,11.144,6.287,11.144,12.473c0,1.33-0.153,2.505-0.254,3.068H286.699L286.699,143.521z M295.851,138.203
				c0-1.895-0.818-5.061-4.396-5.061c-3.272,0-4.601,3.015-4.805,5.061H295.851z"/>
			<path fill="#1F5221" d="M307.712,136.518c0-3.119-0.102-5.729-0.203-7.977h6.595l0.308,3.375h0.153
				c1.072-1.636,3.322-3.989,7.566-3.989c3.271,0,5.776,1.688,6.852,4.296h0.102c0.972-1.33,2.046-2.352,3.272-3.068
				c1.38-0.764,2.913-1.228,4.754-1.228c4.807,0,8.436,3.374,8.436,10.892v14.723h-7.565v-13.6c0-3.631-1.177-5.726-3.683-5.726
				c-1.839,0-3.066,1.228-3.629,2.71c-0.153,0.563-0.256,1.328-0.256,1.994v14.62h-7.565v-14.058c0-3.12-1.125-5.268-3.63-5.268
				c-1.995,0-3.17,1.532-3.631,2.762c-0.254,0.612-0.306,1.328-0.306,1.996v14.566h-7.566v-17.021H307.712z"/>
			<path fill="#1F5221" d="M387.516,152.621c-1.38,0.664-4.651,1.48-8.792,1.48c-11.911,0-18.046-7.461-18.046-17.277
				c0-11.76,8.385-18.252,18.813-18.252c4.038,0,7.104,0.767,8.484,1.534l-1.635,6.134c-1.534-0.663-3.731-1.278-6.545-1.278
				c-6.135,0-10.938,3.731-10.938,11.399c0,6.902,4.091,11.248,10.99,11.248c2.403,0,4.96-0.459,6.543-1.125L387.516,152.621z"/>
			<path fill="#1F5221" d="M400.247,121.587c0,2.149-1.585,3.887-4.192,3.887c-2.453,0-4.039-1.738-4.039-3.887
				c0-2.197,1.637-3.885,4.144-3.885C398.661,117.703,400.194,119.39,400.247,121.587z M392.22,153.54v-24.999h7.772v24.999H392.22z
				"/>
			<path fill="#1F5221" d="M412.209,143.521c0.205,3.221,3.426,4.754,7.057,4.754c2.657,0,4.805-0.358,6.9-1.074l1.021,5.265
				c-2.556,1.074-5.675,1.586-9.049,1.586c-8.484,0-13.344-4.907-13.344-12.729c0-6.34,3.938-13.342,12.627-13.342
				c8.079,0,11.146,6.287,11.146,12.473c0,1.33-0.152,2.505-0.256,3.068H412.209L412.209,143.521z M419.775,117.651l5.062,7.771
				h-5.062l-2.559-4.448h-0.101l-2.606,4.448h-5.063l5.111-7.771H419.775z M421.361,138.203c0-1.895-0.818-5.061-4.397-5.061
				c-3.271,0-4.601,3.015-4.806,5.061H421.361z"/>
			<path fill="#1F5221" d="M433.222,136.518c0-3.119-0.102-5.729-0.204-7.977h6.749l0.357,3.477h0.154
				c1.021-1.638,3.526-4.037,7.719-4.037c5.112,0,8.948,3.425,8.948,10.787v14.772h-7.771v-13.854c0-3.22-1.124-5.418-3.938-5.418
				c-2.147,0-3.426,1.48-3.986,2.914c-0.204,0.51-0.256,1.228-0.256,1.943v14.415h-7.771L433.222,136.518L433.222,136.518z"/>
			<path fill="#1F5221" d="M481.944,152.876c-1.382,0.664-3.988,1.176-6.953,1.176c-8.078,0-13.241-4.96-13.241-12.782
				c0-7.309,5.01-13.289,14.314-13.289c2.045,0,4.295,0.357,5.931,0.971l-1.229,5.777c-0.92-0.41-2.3-0.768-4.347-0.768
				c-4.09,0-6.748,2.915-6.695,7.002c0,4.553,3.066,7.006,6.85,7.006c1.842,0,3.272-0.307,4.447-0.818L481.944,152.876z"/>
			<path fill="#1F5221" d="M494.264,121.587c0,2.149-1.585,3.887-4.191,3.887c-2.453,0-4.038-1.738-4.038-3.887
				c0-2.197,1.637-3.885,4.142-3.885C492.679,117.703,494.213,119.39,494.264,121.587z M486.238,153.54v-24.999h7.771v24.999
				H486.238z"/>
			<path fill="#1F5221" d="M521.054,147.508c0,2.352,0.102,4.651,0.409,6.032h-7.006l-0.46-2.504h-0.153
				c-1.635,1.991-4.19,3.065-7.158,3.065c-5.061,0-8.076-3.681-8.076-7.67c0-6.492,5.828-9.559,14.674-9.559v-0.307
				c0-1.381-0.717-3.271-4.551-3.271c-2.559,0-5.267,0.867-6.901,1.891l-1.433-5.01c1.738-0.971,5.162-2.25,9.713-2.25
				c8.335,0,10.941,4.907,10.941,10.838L521.054,147.508L521.054,147.508z M513.539,141.73c-4.092,0-7.261,0.971-7.261,3.937
				c0,1.993,1.329,2.966,3.066,2.966c1.893,0,3.526-1.277,4.037-2.863c0.104-0.408,0.156-0.871,0.156-1.33L513.539,141.73
				L513.539,141.73z"/>
			<path fill="#1F5221" d="M527.188,146.792c1.433,0.868,4.397,1.841,6.697,1.841c2.353,0,3.322-0.767,3.322-2.046
				c0-1.329-0.766-1.94-3.629-2.914c-5.216-1.737-7.209-4.548-7.16-7.516c0-4.701,3.988-8.23,10.176-8.23
				c2.912,0,5.47,0.716,7.003,1.483l-1.327,5.367c-1.128-0.612-3.324-1.43-5.42-1.43c-1.892,0-2.967,0.766-2.967,1.993
				s0.972,1.841,4.039,2.912c4.753,1.636,6.696,4.09,6.747,7.722c0,4.7-3.63,8.127-10.786,8.127c-3.271,0-6.184-0.766-8.076-1.787
				L527.188,146.792z"/>
			<path fill="#1F5221" d="M583.986,117.244v28.833c0,2.813,0.103,5.776,0.205,7.464h-6.901l-0.308-3.63h-0.153
				c-1.532,2.762-4.601,4.19-7.821,4.19c-5.932,0-10.687-5.06-10.687-12.832c-0.05-8.434,5.217-13.345,11.196-13.345
				c3.117,0,5.47,1.129,6.594,2.813h0.104v-13.495L583.986,117.244L583.986,117.244z M576.216,139.125c0-0.411,0-0.975-0.103-1.434
				c-0.458-2.045-2.147-3.783-4.549-3.783c-3.581,0-5.369,3.169-5.369,7.107c0,4.241,2.098,6.9,5.315,6.9
				c2.25,0,4.091-1.534,4.553-3.732c0.1-0.563,0.151-1.177,0.151-1.791L576.216,139.125L576.216,139.125z"/>
			<path fill="#1F5221" d="M611.031,147.508c0,2.352,0.102,4.651,0.408,6.032h-7.004l-0.459-2.504h-0.154
				c-1.637,1.991-4.191,3.065-7.158,3.065c-5.061,0-8.076-3.681-8.076-7.67c0-6.492,5.827-9.559,14.672-9.559v-0.307
				c0-1.381-0.716-3.271-4.549-3.271c-2.558,0-5.267,0.867-6.901,1.891l-1.433-5.01c1.738-0.971,5.163-2.252,9.712-2.252
				c8.336,0,10.941,4.909,10.941,10.84L611.031,147.508L611.031,147.508z M603.518,141.73c-4.092,0-7.262,0.971-7.262,3.937
				c0,1.993,1.331,2.966,3.068,2.966c1.892,0,3.526-1.277,4.038-2.863c0.104-0.408,0.154-0.871,0.154-1.33L603.518,141.73
				L603.518,141.73z"/>
			<path fill="#1F5221" d="M628.057,145.516c2.043,1.071,5.315,2.146,8.641,2.146c3.579,0,5.471-1.481,5.471-3.729
				c0-2.147-1.635-3.375-5.777-4.806c-5.726-2.048-9.509-5.217-9.509-10.226c0-5.881,4.959-10.328,13.036-10.328
				c3.938,0,6.75,0.767,8.793,1.739l-1.738,6.235c-1.328-0.665-3.831-1.635-7.156-1.635c-3.374,0-5.01,1.586-5.01,3.323
				c0,2.197,1.892,3.168,6.39,4.855c6.085,2.25,8.896,5.422,8.896,10.277c0,5.775-4.396,10.685-13.854,10.685
				c-3.938,0-7.82-1.073-9.764-2.146L628.057,145.516z"/>
			<path fill="#1F5221" d="M676.369,147.508c0,2.352,0.102,4.651,0.409,6.032h-7.005l-0.459-2.504h-0.155
				c-1.635,1.991-4.191,3.065-7.156,3.065c-5.063,0-8.077-3.681-8.077-7.67c0-6.492,5.827-9.559,14.671-9.559v-0.307
				c0-1.381-0.715-3.271-4.549-3.271c-2.557,0-5.268,0.867-6.901,1.891l-1.432-5.01c1.738-0.971,5.163-2.252,9.713-2.252
				c8.333,0,10.941,4.909,10.941,10.84V147.508L676.369,147.508z M668.854,141.73c-4.091,0-7.26,0.971-7.26,3.937
				c0,1.993,1.33,2.966,3.067,2.966c1.893,0,3.526-1.277,4.038-2.863c0.102-0.408,0.154-0.871,0.154-1.33V141.73L668.854,141.73z"/>
			<path fill="#1F5221" d="M706.123,145.516c0,3.271,0.102,5.928,0.206,8.024h-6.751l-0.357-3.524h-0.151
				c-0.973,1.53-3.323,4.086-7.823,4.086c-5.11,0-8.793-3.168-8.793-10.889v-14.672h7.77v13.445c0,3.631,1.177,5.826,3.938,5.826
				c2.146,0,3.424-1.481,3.886-2.707c0.204-0.461,0.305-1.023,0.305-1.688v-14.877h7.771V145.516L706.123,145.516z M702.748,117.651
				l-6.234,7.771h-5.317l4.396-7.771H702.748z"/>
			<path fill="#1F5221" d="M736.594,117.244v28.833c0,2.813,0.102,5.776,0.204,7.464h-6.901l-0.307-3.63h-0.154
				c-1.532,2.762-4.601,4.19-7.822,4.19c-5.929,0-10.684-5.06-10.684-12.832c-0.052-8.434,5.212-13.345,11.193-13.345
				c3.12,0,5.472,1.129,6.597,2.813h0.102v-13.495L736.594,117.244L736.594,117.244z M728.821,139.125c0-0.411,0-0.975-0.103-1.434
				c-0.459-2.045-2.146-3.783-4.549-3.783c-3.579,0-5.368,3.169-5.368,7.107c0,4.241,2.098,6.9,5.316,6.9
				c2.249,0,4.091-1.534,4.549-3.732c0.104-0.563,0.154-1.177,0.154-1.791V139.125L728.821,139.125z"/>
			<path fill="#1F5221" d="M748.813,143.521c0.203,3.221,3.427,4.754,7.058,4.754c2.656,0,4.803-0.358,6.899-1.074l1.021,5.265
				c-2.555,1.074-5.674,1.586-9.048,1.586c-8.486,0-13.344-4.907-13.344-12.729c0-6.34,3.938-13.342,12.626-13.342
				c8.08,0,11.146,6.287,11.146,12.473c0,1.33-0.154,2.505-0.255,3.068H748.813L748.813,143.521z M757.964,138.203
				c0-1.895-0.817-5.061-4.396-5.061c-3.271,0-4.602,3.015-4.806,5.061H757.964z"/>
		</g>
		<g>
			<g>
				<g>
					<path fill="#FFFFFF" stroke="#999999" stroke-width="0.9741" d="M54.574,77.819c-5.034,3.873-11.054,5.918-17.235,5.345
						C23.056,81.836,13.35,67.028,15.658,50.092c1.046-7.667,4.388-14.437,9.043-19.45c0,0-9.913,7.525-11.755,19.934
						C9.727,72.262,22.17,90.163,39.983,91.818c8.699,0.81,17.146-2.551,23.853-8.649L54.574,77.819z"/>
					<path fill="#FFFFFF" stroke="#999999" stroke-width="0.9741" d="M86.795,27.409C70.374,13.816,47.899,15.604,37.56,30.201
						c-5.614,7.925-6.614,18.155-3.669,27.938l8.884-6.077c-1.481-7.035-0.409-14.163,3.6-19.823
						C54.666,20.534,72.344,19.532,85.857,30c6.117,4.738,10.308,11.018,12.323,17.555C98.18,47.555,97.529,36.294,86.795,27.409z"
						/>
					<path fill="#FFFFFF" stroke="#999999" stroke-width="0.9741" d="M92.968,58.124c-3.68-8.006-10.9-13.671-19.636-16.402v10.675
						c5.972,2.407,10.838,6.637,13.463,12.344c5.992,13.033-1.979,28.846-17.801,35.313c-7.163,2.93-14.697,3.42-21.365,1.896
						c0,0,5.805,4.811,23.141,0.212C91.374,96.694,100.44,74.378,92.968,58.124z"/>
					
						<linearGradient id="SVGID_1_" gradientUnits="userSpaceOnUse" x1="1.5581" y1="-406.2813" x2="-39.8321" y2="-422.4528" gradientTransform="matrix(1 0 0 -1 67.04 -363.6602)">
						<stop  offset="0" style="stop-color:#FFFFFF"/>
						<stop  offset="1" style="stop-color:#1F5221"/>
					</linearGradient>
					<path fill="url(#SVGID_1_)" stroke="#999999" stroke-width="0.9741" d="M47.295,52.854c7.558-3.09,15.539-3.484,22.47-1.639
						v-10.43c-8.167-1.738-17.336-1.046-26.054,2.516c-8.428,3.445-15.048,9.025-19.31,15.543l8.24,5.285
						C36.063,59.419,41.058,55.404,47.295,52.854z"/>
					
						<linearGradient id="SVGID_2_" gradientUnits="userSpaceOnUse" x1="-1.5259" y1="-440.3901" x2="6.3901" y2="-397.9827" gradientTransform="matrix(1 0 0 -1 67.04 -363.6602)">
						<stop  offset="0" style="stop-color:#FFFFFF"/>
						<stop  offset="1" style="stop-color:#1F5221"/>
					</linearGradient>
					<path fill="url(#SVGID_2_)" stroke="#999999" stroke-width="0.9741" d="M73.642,32.078l-8.698,4.493
						c2.37,5.321,3.35,11.651,2.438,18.329c-1.102,8.085-4.745,15.188-9.805,20.267l8.993,5.259
						c5.604-6.207,9.603-14.506,10.878-23.854C78.678,47.55,77.157,39.027,73.642,32.078z"/>
					
						<linearGradient id="SVGID_3_" gradientUnits="userSpaceOnUse" x1="-26.4956" y1="-419.4233" x2="2.8485" y2="-455.0394" gradientTransform="matrix(1 0 0 -1 67.04 -363.6602)">
						<stop  offset="0" style="stop-color:#FFFFFF"/>
						<stop  offset="1" style="stop-color:#1F5221"/>
					</linearGradient>
					<path fill="url(#SVGID_3_)" stroke="#999999" stroke-width="0.9741" d="M55.831,72.392
						c-6.161-4.773-10.384-11.106-12.379-17.694c-3.281,1.814-6.125,4.06-8.47,6.591c2.785,7.09,7.652,13.781,14.368,18.982
						c7.198,5.576,15.339,8.521,23.115,8.951l0.459-9.78C67.132,78.835,61.16,76.519,55.831,72.392z"/>
				</g>
				<g>
					<path fill="#1F5221" d="M113.404,22.369h26.662c13.877,0,24.33,3.203,31.362,9.607c7.031,6.404,10.546,16.313,10.546,29.724
						c0,13.413-3.516,23.473-10.546,30.18c-7.032,6.704-17.485,10.059-31.362,10.059h-26.662V22.369z M130.321,87.666h9.605
						c9.7,0,16.151-2.228,19.353-6.683c1.717-2.32,3.028-5.069,3.934-8.25c0.905-3.178,1.357-6.856,1.357-11.033
						c0-4.084-0.452-7.634-1.357-10.65c-0.905-3.017-2.217-5.639-3.934-7.867c-3.341-4.456-9.792-6.683-19.353-6.683h-9.605V87.666z
						"/>
					<path fill="#1F5221" d="M221.166,103.188c-4.827,0-9.119-0.684-12.878-2.052c-3.759-1.369-6.926-3.343-9.502-5.917
						c-2.576-2.576-4.524-5.709-5.847-9.396c-1.323-3.69-1.984-7.879-1.984-12.566c0-4.734,0.673-8.969,2.02-12.705
						c1.346-3.734,3.283-6.903,5.813-9.502c2.529-2.599,5.615-4.583,9.259-5.953c3.643-1.368,7.784-2.053,12.426-2.053
						c4.5,0,8.55,0.65,12.147,1.949c3.595,1.3,6.648,3.203,9.154,5.708c2.505,2.506,4.431,5.604,5.777,9.293
						c1.345,3.688,2.019,7.926,2.019,12.705v4.037h-41.49c0.046,2.877,0.406,5.338,1.08,7.379c0.672,2.043,1.588,3.725,2.75,5.047
						c1.159,1.323,2.517,2.287,4.072,2.891c1.555,0.604,3.282,0.904,5.187,0.904c3.108,0,5.662-0.649,7.657-1.949
						c1.994-1.299,3.341-3.411,4.038-6.336h15.593c-0.557,3.018-1.625,5.674-3.202,7.972c-1.579,2.296-3.55,4.224-5.918,5.778
						c-2.366,1.556-5.082,2.739-8.144,3.549C228.127,102.784,224.787,103.188,221.166,103.188z M233,66.991
						c-0.372-4.918-1.612-8.551-3.725-10.894c-2.111-2.344-5.046-3.516-8.806-3.516c-3.435,0-6.277,1.277-8.527,3.829
						c-2.251,2.552-3.493,6.08-3.724,10.58L233,66.991L233,66.991z"/>
					<path fill="#1F5221" d="M296,103.188c-5.616,0-10.767-0.894-15.454-2.68c-4.688-1.783-8.703-4.533-12.043-8.248
						c-3.436-3.759-5.952-8.121-7.554-13.087c-1.601-4.966-2.401-10.628-2.401-16.987c0-12.714,3.317-22.763,9.954-30.142
						c3.434-3.712,7.471-6.483,12.112-8.317c4.641-1.833,9.77-2.75,15.384-2.75c4.456,0,8.54,0.534,12.253,1.602
						c3.712,1.067,7.1,2.714,10.163,4.943c3.759,2.783,6.521,5.964,8.284,9.537c1.763,3.573,2.899,7.611,3.411,12.112h-16.986
						c-0.557-4.315-2.32-7.692-5.29-10.128c-2.97-2.437-6.916-3.655-11.835-3.655c-3.017,0-5.768,0.592-8.249,1.775
						c-2.483,1.184-4.595,2.914-6.334,5.186c-1.741,2.274-3.087,5.082-4.038,8.423c-0.952,3.342-1.427,7.147-1.427,11.417
						s0.464,8.064,1.393,11.382c0.928,3.318,2.25,6.126,3.969,8.423c1.716,2.297,3.804,4.039,6.265,5.221
						c2.458,1.185,5.221,1.775,8.284,1.775c4.918,0,8.864-1.264,11.835-3.793c2.969-2.529,4.777-6.162,5.429-10.896h16.847
						c-0.511,4.641-1.636,8.76-3.376,12.356c-1.739,3.597-4.143,6.695-7.205,9.293c-3.063,2.507-6.521,4.339-10.373,5.499
						C305.165,102.609,300.827,103.188,296,103.188z"/>
					<path fill="#1F5221" d="M374.176,103.188c-10.813,0-19.283-2.296-25.409-6.891c-6.125-4.594-9.444-11.557-9.954-20.885h16.291
						c0.556,4.781,2.423,8.354,5.603,10.721c3.179,2.367,7.529,3.551,13.053,3.551c5.058,0,9.062-0.881,12.009-2.646
						c2.946-1.762,4.418-4.314,4.418-7.656c0-1.484-0.356-2.738-1.075-3.76c-0.722-1.02-1.811-1.914-3.272-2.68
						s-3.285-1.473-5.465-2.123c-2.182-0.65-4.758-1.346-7.726-2.089l-2.995-0.835c-3.76-0.975-7.333-1.961-10.721-2.959
						c-3.389-0.998-6.358-2.32-8.91-3.969c-2.553-1.646-4.583-3.781-6.092-6.403c-1.508-2.622-2.262-6.022-2.262-10.199
						c0-3.992,0.835-7.46,2.506-10.408c1.671-2.946,3.934-5.384,6.787-7.309c2.854-1.926,6.161-3.352,9.919-4.282
						c3.76-0.926,7.729-1.392,11.905-1.392c4.825,0,9.199,0.568,13.122,1.706c3.922,1.138,7.285,2.773,10.096,4.908
						c2.808,2.136,4.998,4.746,6.576,7.831c1.578,3.087,2.436,6.579,2.578,10.477h-16.431c-0.418-3.759-1.984-6.601-4.699-8.527
						c-2.715-1.924-6.463-2.889-11.242-2.889c-4.595,0-8.122,0.825-10.581,2.472c-2.461,1.647-3.691,3.91-3.691,6.788
						c0,1.346,0.313,2.495,0.94,3.445c0.627,0.95,1.601,1.787,2.923,2.505c1.323,0.721,3.017,1.381,5.083,1.984
						c2.064,0.603,4.536,1.252,7.414,1.949c2.877,0.649,5.674,1.3,8.389,1.948c2.714,0.649,5.269,1.393,7.657,2.228
						c2.392,0.836,4.57,1.822,6.545,2.959c1.972,1.138,3.654,2.519,5.047,4.143c1.392,1.625,2.48,3.55,3.271,5.777
						c0.787,2.228,1.184,4.851,1.184,7.866c0,3.944-0.776,7.45-2.332,10.511c-1.555,3.064-3.76,5.64-6.612,7.728
						c-2.854,2.089-6.302,3.679-10.339,4.77C383.643,102.644,379.141,103.188,374.176,103.188z"/>
					<path fill="#1F5221" d="M448.313,22.369l-23.041,79.569h-13.575l22.973-79.569H448.313z"/>
					<path fill="#1F5221" d="M540.551,101.938h-15.246V39.077l-18.934,62.862h-15.453l-19.354-62.862v62.862H456.18v-79.57h24.367
						l17.959,60.146l17.82-60.146h24.227v79.569H540.551z"/>
					<path fill="#1F5221" d="M582.736,103.188c-4.828,0-9.119-0.684-12.879-2.052c-3.759-1.369-6.929-3.343-9.505-5.917
						c-2.573-2.576-4.521-5.709-5.846-9.396c-1.32-3.69-1.981-7.879-1.981-12.566c0-4.734,0.672-8.969,2.018-12.705
						c1.346-3.734,3.283-6.903,5.813-9.502c2.53-2.599,5.615-4.583,9.259-5.953c3.645-1.368,7.784-2.053,12.428-2.053
						c4.502,0,8.549,0.65,12.147,1.949c3.595,1.3,6.648,3.203,9.152,5.708c2.508,2.506,4.432,5.604,5.779,9.293
						c1.348,3.688,2.018,7.926,2.018,12.705v4.037H569.65c0.047,2.877,0.403,5.338,1.078,7.379c0.672,2.043,1.59,3.725,2.75,5.047
						c1.159,1.323,2.518,2.287,4.071,2.891c1.555,0.604,3.281,0.904,5.187,0.904c3.108,0,5.66-0.649,7.658-1.949
						c1.993-1.299,3.342-3.411,4.036-6.336h15.595c-0.56,3.018-1.625,5.674-3.203,7.972c-1.578,2.296-3.549,4.224-5.916,5.778
						c-2.367,1.556-5.082,2.739-8.146,3.549C589.697,102.784,586.355,103.188,582.736,103.188z M594.57,66.991
						c-0.373-4.918-1.611-8.551-3.726-10.894c-2.11-2.344-5.047-3.516-8.807-3.516c-3.435,0-6.275,1.277-8.525,3.829
						c-2.252,2.552-3.494,6.08-3.725,10.58L594.57,66.991L594.57,66.991z"/>
					<path fill="#1F5221" d="M654.021,103.188c-10.816,0-19.285-2.296-25.41-6.891c-6.127-4.594-9.445-11.557-9.955-20.885h16.289
						c0.557,4.781,2.426,8.354,5.604,10.721c3.18,2.367,7.531,3.551,13.053,3.551c5.058,0,9.062-0.881,12.009-2.646
						c2.946-1.762,4.422-4.314,4.422-7.656c0-1.484-0.361-2.738-1.08-3.76c-0.719-1.02-1.81-1.914-3.271-2.68
						c-1.461-0.766-3.282-1.473-5.465-2.123c-2.182-0.65-4.758-1.346-7.727-2.089l-2.996-0.835
						c-3.758-0.975-7.332-1.961-10.722-2.959c-3.389-0.998-6.356-2.32-8.907-3.969c-2.554-1.646-4.584-3.781-6.095-6.403
						c-1.506-2.622-2.262-6.022-2.262-10.199c0-3.992,0.836-7.46,2.506-10.408c1.67-2.946,3.937-5.384,6.787-7.309
						c2.855-1.926,6.162-3.352,9.92-4.282c3.76-0.926,7.729-1.392,11.904-1.392c4.828,0,9.201,0.568,13.123,1.706
						c3.92,1.138,7.283,2.773,10.094,4.908c2.807,2.136,5,4.746,6.578,7.831c1.576,3.087,2.436,6.579,2.576,10.477h-16.431
						c-0.416-3.759-1.981-6.601-4.698-8.527c-2.715-1.924-6.463-2.889-11.242-2.889c-4.594,0-8.121,0.825-10.58,2.472
						c-2.461,1.647-3.689,3.91-3.689,6.788c0,1.346,0.312,2.495,0.938,3.445c0.627,0.95,1.602,1.787,2.926,2.505
						c1.32,0.721,3.017,1.381,5.08,1.984c2.064,0.603,4.537,1.252,7.416,1.949c2.875,0.649,5.672,1.3,8.389,1.948
						c2.714,0.649,5.265,1.393,7.654,2.228c2.391,0.836,4.572,1.822,6.545,2.959c1.974,1.138,3.654,2.519,5.047,4.143
						c1.394,1.625,2.484,3.55,3.273,5.777c0.785,2.228,1.182,4.851,1.182,7.866c0,3.944-0.774,7.45-2.332,10.511
						c-1.555,3.064-3.756,5.64-6.61,7.728c-2.854,2.089-6.302,3.679-10.339,4.77C663.488,102.644,658.984,103.188,654.021,103.188z"
						/>
					<path fill="#1F5221" d="M765.262,101.938h-16.848V67.271h-31.951v34.668h-16.916v-79.57h16.916v30.839h31.951V22.369h16.848
						V101.938z"/>
				</g>
			</g>
		</g>
	</g>
</g>
</svg>
